<ttFont>
    <TTGlyph name=".notdef" xMin="68" yMin="0" xMax="612" yMax="1365">
      <contour>
        <pt x="68" y="0" on="1"/>
        <pt x="68" y="1365" on="1"/>
        <pt x="612" y="1365" on="1"/>
        <pt x="612" y="0" on="1"/>
      </contour>
      <contour>
        <pt x="136" y="68" on="1"/>
        <pt x="544" y="68" on="1"/>
        <pt x="544" y="1297" on="1"/>
        <pt x="136" y="1297" on="1"/>
      </contour>
    </TTGlyph>
    <TTGlyph name="A" xMin="20" yMin="0" xMax="1349" yMax="1438">
      <contour>
        <pt x="1158" y="0" on="1"/>
        <pt x="969" y="489" on="1"/>
        <pt x="400" y="489" on="1"/>
        <pt x="211" y="0" on="1"/>
        <pt x="20" y="0" on="1"/>
        <pt x="590" y="1438" on="1"/>
        <pt x="779" y="1438" on="1"/>
        <pt x="1349" y="0" on="1"/>
      </contour>
      <contour>
        <pt x="459" y="643" on="1"/>
        <pt x="910" y="643" on="1"/>
        <pt x="684" y="1228" on="1"/>
      </contour>
    </TTGlyph>
    <TTGlyph name="AE" xMin="0" yMin="0" xMax="1734" yMax="1438">
      <contour>
        <pt x="1102" y="154" on="1"/>
        <pt x="1734" y="154" on="1"/>
        <pt x="1734" y="0" on="1"/>
        <pt x="914" y="0" on="1"/>
        <pt x="914" y="489" on="1"/>
        <pt x="499" y="489" on="1"/>
        <pt x="229" y="0" on="1"/>
        <pt x="0" y="0" on="1"/>
        <pt x="834" y="1438" on="1"/>
        <pt x="1712" y="1438" on="1"/>
        <pt x="1712" y="1284" on="1"/>
        <pt x="1102" y="1284" on="1"/>
        <pt x="1102" y="887" on="1"/>
        <pt x="1533" y="887" on="1"/>
        <pt x="1533" y="733" on="1"/>
        <pt x="1102" y="733" on="1"/>
      </contour>
      <contour>
        <pt x="584" y="643" on="1"/>
        <pt x="914" y="643" on="1"/>
        <pt x="914" y="1240" on="1"/>
      </contour>
    </TTGlyph>
    <TTGlyph name="Aacute" xMin="20" yMin="0" xMax="1349" yMax="2057">
      <contour>
        <pt x="709" y="1833" on="1"/>
        <pt x="658" y="2010" on="1"/>
        <pt x="723" y="2057" on="0"/>
        <pt x="779" y="2057" on="1"/>
        <pt x="841" y="2057" on="0"/>
        <pt x="912" y="1991" on="0"/>
        <pt x="914" y="1894" on="0"/>
        <pt x="895" y="1840" on="1"/>
        <pt x="867" y="1773" on="0"/>
        <pt x="752" y="1571" on="1"/>
        <pt x="630" y="1571" on="1"/>
      </contour>
      <contour>
        <pt x="1158" y="0" on="1"/>
        <pt x="969" y="489" on="1"/>
        <pt x="400" y="489" on="1"/>
        <pt x="211" y="0" on="1"/>
        <pt x="20" y="0" on="1"/>
        <pt x="590" y="1438" on="1"/>
        <pt x="779" y="1438" on="1"/>
        <pt x="1349" y="0" on="1"/>
      </contour>
      <contour>
        <pt x="459" y="643" on="1"/>
        <pt x="910" y="643" on="1"/>
        <pt x="684" y="1228" on="1"/>
      </contour>
    </TTGlyph>
    <TTGlyph name="Abreve" xMin="20" yMin="0" xMax="1349" yMax="1887">
      <contour>
        <pt x="893" y="1887" on="1"/>
        <pt x="969" y="1887" on="1"/>
        <pt x="953" y="1805" on="0"/>
        <pt x="918" y="1723" on="0"/>
        <pt x="883" y="1682" on="1"/>
        <pt x="845" y="1637" on="0"/>
        <pt x="741" y="1588" on="0"/>
        <pt x="686" y="1588" on="1"/>
        <pt x="577" y="1588" on="0"/>
        <pt x="430" y="1740" on="0"/>
        <pt x="399" y="1887" on="1"/>
        <pt x="475" y="1887" on="1"/>
        <pt x="506" y="1806" on="0"/>
        <pt x="609" y="1734" on="0"/>
        <pt x="688" y="1734" on="1"/>
        <pt x="763" y="1734" on="0"/>
        <pt x="862" y="1806" on="0"/>
      </contour>
      <contour>
        <pt x="1158" y="0" on="1"/>
        <pt x="969" y="489" on="1"/>
        <pt x="400" y="489" on="1"/>
        <pt x="211" y="0" on="1"/>
        <pt x="20" y="0" on="1"/>
        <pt x="590" y="1438" on="1"/>
        <pt x="779" y="1438" on="1"/>
        <pt x="1349" y="0" on="1"/>
      </contour>
      <contour>
        <pt x="459" y="643" on="1"/>
        <pt x="910" y="643" on="1"/>
        <pt x="684" y="1228" on="1"/>
      </contour>
    </TTGlyph>
    <TTGlyph name="Acircumflex" xMin="20" yMin="0" xMax="1349" yMax="1902">
      <contour>
        <pt x="367" y="1648" on="1"/>
        <pt x="684" y="1902" on="1"/>
        <pt x="997" y="1648" on="1"/>
        <pt x="926" y="1561" on="1"/>
        <pt x="684" y="1702" on="1"/>
        <pt x="438" y="1561" on="1"/>
      </contour>
      <contour>
        <pt x="1158" y="0" on="1"/>
        <pt x="969" y="489" on="1"/>
        <pt x="400" y="489" on="1"/>
        <pt x="211" y="0" on="1"/>
        <pt x="20" y="0" on="1"/>
        <pt x="590" y="1438" on="1"/>
        <pt x="779" y="1438" on="1"/>
        <pt x="1349" y="0" on="1"/>
      </contour>
      <contour>
        <pt x="459" y="643" on="1"/>
        <pt x="910" y="643" on="1"/>
        <pt x="684" y="1228" on="1"/>
      </contour>
    </TTGlyph>
    <TTGlyph name="Adieresis" xMin="20" yMin="0" xMax="1349" yMax="1798">
      <contour>
        <pt x="464" y="1798" on="1"/>
        <pt x="488" y="1798" on="0"/>
        <pt x="532" y="1779" on="0"/>
        <pt x="548" y="1763" on="1"/>
        <pt x="564" y="1747" on="0"/>
        <pt x="583" y="1703" on="0"/>
        <pt x="583" y="1679" on="1"/>
        <pt x="583" y="1653" on="0"/>
        <pt x="564" y="1609" on="0"/>
        <pt x="548" y="1593" on="1"/>
        <pt x="532" y="1577" on="0"/>
        <pt x="488" y="1558" on="0"/>
        <pt x="464" y="1558" on="1"/>
        <pt x="438" y="1558" on="0"/>
        <pt x="394" y="1577" on="0"/>
        <pt x="377" y="1593" on="1"/>
        <pt x="341" y="1626" on="0"/>
        <pt x="341" y="1679" on="1"/>
        <pt x="341" y="1703" on="0"/>
        <pt x="360" y="1747" on="0"/>
        <pt x="377" y="1763" on="1"/>
        <pt x="394" y="1779" on="0"/>
        <pt x="438" y="1798" on="0"/>
      </contour>
      <contour>
        <pt x="906" y="1798" on="1"/>
        <pt x="931" y="1798" on="0"/>
        <pt x="975" y="1779" on="0"/>
        <pt x="992" y="1763" on="1"/>
        <pt x="1009" y="1747" on="0"/>
        <pt x="1027" y="1703" on="0"/>
        <pt x="1027" y="1679" on="1"/>
        <pt x="1027" y="1626" on="0"/>
        <pt x="992" y="1593" on="1"/>
        <pt x="975" y="1577" on="0"/>
        <pt x="931" y="1558" on="0"/>
        <pt x="906" y="1558" on="1"/>
        <pt x="882" y="1558" on="0"/>
        <pt x="839" y="1577" on="0"/>
        <pt x="822" y="1593" on="1"/>
        <pt x="805" y="1609" on="0"/>
        <pt x="785" y="1653" on="0"/>
        <pt x="785" y="1679" on="1"/>
        <pt x="785" y="1703" on="0"/>
        <pt x="805" y="1747" on="0"/>
        <pt x="822" y="1763" on="1"/>
        <pt x="839" y="1779" on="0"/>
        <pt x="882" y="1798" on="0"/>
      </contour>
      <contour>
        <pt x="969" y="489" on="1"/>
        <pt x="400" y="489" on="1"/>
        <pt x="211" y="0" on="1"/>
        <pt x="20" y="0" on="1"/>
        <pt x="590" y="1438" on="1"/>
        <pt x="779" y="1438" on="1"/>
        <pt x="1349" y="0" on="1"/>
        <pt x="1158" y="0" on="1"/>
      </contour>
      <contour>
        <pt x="910" y="643" on="1"/>
        <pt x="684" y="1228" on="1"/>
        <pt x="459" y="643" on="1"/>
      </contour>
    </TTGlyph>
    <TTGlyph name="Agrave" xMin="20" yMin="0" xMax="1349" yMax="2057">
      <contour>
        <pt x="737" y="1571" on="1"/>
        <pt x="615" y="1571" on="1"/>
        <pt x="500" y="1773" on="0"/>
        <pt x="472" y="1840" on="1"/>
        <pt x="453" y="1894" on="0"/>
        <pt x="455" y="1991" on="0"/>
        <pt x="526" y="2057" on="0"/>
        <pt x="588" y="2057" on="1"/>
        <pt x="644" y="2057" on="0"/>
        <pt x="709" y="2010" on="1"/>
        <pt x="658" y="1833" on="1"/>
      </contour>
      <contour>
        <pt x="1158" y="0" on="1"/>
        <pt x="969" y="489" on="1"/>
        <pt x="400" y="489" on="1"/>
        <pt x="211" y="0" on="1"/>
        <pt x="20" y="0" on="1"/>
        <pt x="590" y="1438" on="1"/>
        <pt x="779" y="1438" on="1"/>
        <pt x="1349" y="0" on="1"/>
      </contour>
      <contour>
        <pt x="459" y="643" on="1"/>
        <pt x="910" y="643" on="1"/>
        <pt x="684" y="1228" on="1"/>
      </contour>
    </TTGlyph>
    <TTGlyph name="Amacron" xMin="20" yMin="0" xMax="1349" yMax="1719">
      <contour>
        <pt x="427" y="1719" on="1"/>
        <pt x="940" y="1719" on="1"/>
        <pt x="940" y="1598" on="1"/>
        <pt x="427" y="1598" on="1"/>
      </contour>
      <contour>
        <pt x="1158" y="0" on="1"/>
        <pt x="969" y="489" on="1"/>
        <pt x="400" y="489" on="1"/>
        <pt x="211" y="0" on="1"/>
        <pt x="20" y="0" on="1"/>
        <pt x="590" y="1438" on="1"/>
        <pt x="779" y="1438" on="1"/>
        <pt x="1349" y="0" on="1"/>
      </contour>
      <contour>
        <pt x="459" y="643" on="1"/>
        <pt x="910" y="643" on="1"/>
        <pt x="684" y="1228" on="1"/>
      </contour>
    </TTGlyph>
    <TTGlyph name="Aogonek" xMin="20" yMin="-408" xMax="1349" yMax="1438">
      <contour>
        <pt x="1349" y="0" on="1"/>
        <pt x="1265" y="0" on="1"/>
        <pt x="1207" y="-70" on="0"/>
        <pt x="1157" y="-157" on="0"/>
        <pt x="1157" y="-204" on="1"/>
        <pt x="1157" y="-296" on="0"/>
        <pt x="1228" y="-296" on="1"/>
        <pt x="1265" y="-296" on="0"/>
        <pt x="1330" y="-271" on="1"/>
        <pt x="1325" y="-361" on="1"/>
        <pt x="1254" y="-408" on="0"/>
        <pt x="1176" y="-408" on="1"/>
        <pt x="1111" y="-408" on="0"/>
        <pt x="1029" y="-319" on="0"/>
        <pt x="1029" y="-242" on="1"/>
        <pt x="1029" y="-206" on="0"/>
        <pt x="1044" y="-147" on="0"/>
        <pt x="1087" y="-82" on="0"/>
        <pt x="1119" y="-43" on="0"/>
        <pt x="1158" y="0" on="1"/>
        <pt x="969" y="489" on="1"/>
        <pt x="400" y="489" on="1"/>
        <pt x="211" y="0" on="1"/>
        <pt x="20" y="0" on="1"/>
        <pt x="590" y="1438" on="1"/>
        <pt x="779" y="1438" on="1"/>
      </contour>
      <contour>
        <pt x="459" y="643" on="1"/>
        <pt x="910" y="643" on="1"/>
        <pt x="684" y="1228" on="1"/>
      </contour>
    </TTGlyph>
    <TTGlyph name="Aring" xMin="20" yMin="0" xMax="1349" yMax="1922">
      <contour>
        <pt x="685" y="1922" on="1"/>
        <pt x="722" y="1922" on="0"/>
        <pt x="787" y="1895" on="0"/>
        <pt x="835" y="1847" on="0"/>
        <pt x="862" y="1782" on="0"/>
        <pt x="862" y="1745" on="1"/>
        <pt x="862" y="1708" on="0"/>
        <pt x="835" y="1643" on="0"/>
        <pt x="787" y="1595" on="0"/>
        <pt x="722" y="1568" on="0"/>
        <pt x="685" y="1568" on="1"/>
        <pt x="648" y="1568" on="0"/>
        <pt x="583" y="1595" on="0"/>
        <pt x="535" y="1643" on="0"/>
        <pt x="508" y="1708" on="0"/>
        <pt x="508" y="1745" on="1"/>
        <pt x="508" y="1782" on="0"/>
        <pt x="535" y="1847" on="0"/>
        <pt x="583" y="1895" on="0"/>
        <pt x="648" y="1922" on="0"/>
      </contour>
      <contour>
        <pt x="685" y="1828" on="1"/>
        <pt x="650" y="1828" on="0"/>
        <pt x="602" y="1780" on="0"/>
        <pt x="602" y="1745" on="1"/>
        <pt x="602" y="1710" on="0"/>
        <pt x="650" y="1662" on="0"/>
        <pt x="685" y="1662" on="1"/>
        <pt x="720" y="1662" on="0"/>
        <pt x="768" y="1710" on="0"/>
        <pt x="768" y="1745" on="1"/>
        <pt x="768" y="1780" on="0"/>
        <pt x="720" y="1828" on="0"/>
      </contour>
      <contour>
        <pt x="969" y="489" on="1"/>
        <pt x="400" y="489" on="1"/>
        <pt x="211" y="0" on="1"/>
        <pt x="20" y="0" on="1"/>
        <pt x="590" y="1438" on="1"/>
        <pt x="779" y="1438" on="1"/>
        <pt x="1349" y="0" on="1"/>
        <pt x="1158" y="0" on="1"/>
      </contour>
      <contour>
        <pt x="910" y="643" on="1"/>
        <pt x="684" y="1228" on="1"/>
        <pt x="459" y="643" on="1"/>
      </contour>
    </TTGlyph>
    <TTGlyph name="Atilde" xMin="20" yMin="0" xMax="1349" yMax="1778">
      <contour>
        <pt x="898" y="1778" on="1"/>
        <pt x="998" y="1778" on="1"/>
        <pt x="983" y="1683" on="0"/>
        <pt x="940" y="1632" on="1"/>
        <pt x="887" y="1571" on="0"/>
        <pt x="799" y="1571" on="1"/>
        <pt x="759" y="1571" on="0"/>
        <pt x="579" y="1639" on="0"/>
        <pt x="541" y="1639" on="1"/>
        <pt x="510" y="1639" on="0"/>
        <pt x="466" y="1589" on="0"/>
        <pt x="466" y="1563" on="1"/>
        <pt x="363" y="1563" on="1"/>
        <pt x="375" y="1643" on="0"/>
        <pt x="421" y="1700" on="1"/>
        <pt x="474" y="1768" on="0"/>
        <pt x="550" y="1768" on="1"/>
        <pt x="598" y="1768" on="0"/>
        <pt x="770" y="1698" on="0"/>
        <pt x="808" y="1698" on="1"/>
        <pt x="876" y="1698" on="0"/>
      </contour>
      <contour>
        <pt x="1158" y="0" on="1"/>
        <pt x="969" y="489" on="1"/>
        <pt x="400" y="489" on="1"/>
        <pt x="211" y="0" on="1"/>
        <pt x="20" y="0" on="1"/>
        <pt x="590" y="1438" on="1"/>
        <pt x="779" y="1438" on="1"/>
        <pt x="1349" y="0" on="1"/>
      </contour>
      <contour>
        <pt x="459" y="643" on="1"/>
        <pt x="910" y="643" on="1"/>
        <pt x="684" y="1228" on="1"/>
      </contour>
    </TTGlyph>
    <TTGlyph name="B" xMin="178" yMin="0" xMax="1203" yMax="1438">
      <contour>
        <pt x="631" y="1438" on="1"/>
        <pt x="733" y="1438" on="0"/>
        <pt x="912" y="1407" on="0"/>
        <pt x="1046" y="1329" on="0"/>
        <pt x="1124" y="1195" on="0"/>
        <pt x="1124" y="1091" on="1"/>
        <pt x="1124" y="1029" on="0"/>
        <pt x="1096" y="933" on="0"/>
        <pt x="1045" y="859" on="0"/>
        <pt x="971" y="806" on="0"/>
        <pt x="926" y="788" on="1"/>
        <pt x="926" y="786" on="1"/>
        <pt x="981" y="772" on="0"/>
        <pt x="1082" y="714" on="0"/>
        <pt x="1158" y="624" on="0"/>
        <pt x="1203" y="501" on="0"/>
        <pt x="1203" y="423" on="1"/>
        <pt x="1203" y="310" on="0"/>
        <pt x="1123" y="150" on="0"/>
        <pt x="982" y="48" on="0"/>
        <pt x="791" y="0" on="0"/>
        <pt x="680" y="0" on="1"/>
        <pt x="178" y="0" on="1"/>
        <pt x="178" y="1438" on="1"/>
      </contour>
      <contour>
        <pt x="628" y="847" on="1"/>
        <pt x="700" y="847" on="0"/>
        <pt x="814" y="871" on="0"/>
        <pt x="893" y="928" on="0"/>
        <pt x="936" y="1023" on="0"/>
        <pt x="936" y="1093" on="1"/>
        <pt x="936" y="1153" on="0"/>
        <pt x="886" y="1231" on="0"/>
        <pt x="843" y="1253" on="1"/>
        <pt x="800" y="1275" on="0"/>
        <pt x="688" y="1292" on="0"/>
        <pt x="628" y="1292" on="1"/>
        <pt x="366" y="1292" on="1"/>
        <pt x="366" y="847" on="1"/>
      </contour>
      <contour>
        <pt x="680" y="146" on="1"/>
        <pt x="750" y="146" on="0"/>
        <pt x="873" y="182" on="0"/>
        <pt x="963" y="252" on="0"/>
        <pt x="1015" y="356" on="0"/>
        <pt x="1015" y="424" on="1"/>
        <pt x="1015" y="492" on="0"/>
        <pt x="963" y="595" on="0"/>
        <pt x="873" y="665" on="0"/>
        <pt x="750" y="701" on="0"/>
        <pt x="680" y="701" on="1"/>
        <pt x="366" y="701" on="1"/>
        <pt x="366" y="146" on="1"/>
      </contour>
    </TTGlyph>
    <TTGlyph name="C" xMin="115" yMin="-24" xMax="1157" yMax="1460">
      <contour>
        <pt x="1157" y="41" on="1"/>
        <pt x="1064" y="12" on="0"/>
        <pt x="857" y="-24" on="0"/>
        <pt x="733" y="-24" on="1"/>
        <pt x="427" y="-24" on="0"/>
        <pt x="115" y="342" on="0"/>
        <pt x="115" y="698" on="1"/>
        <pt x="115" y="1076" on="0"/>
        <pt x="427" y="1460" on="0"/>
        <pt x="733" y="1460" on="1"/>
        <pt x="849" y="1460" on="0"/>
        <pt x="1034" y="1420" on="0"/>
        <pt x="1120" y="1388" on="1"/>
        <pt x="1068" y="1240" on="1"/>
        <pt x="1027" y="1255" on="0"/>
        <pt x="947" y="1279" on="0"/>
        <pt x="866" y="1295" on="0"/>
        <pt x="780" y="1303" on="0"/>
        <pt x="733" y="1303" on="1"/>
        <pt x="622" y="1303" on="0"/>
        <pt x="462" y="1224" on="0"/>
        <pt x="358" y="1073" on="0"/>
        <pt x="308" y="856" on="0"/>
        <pt x="308" y="718" on="1"/>
        <pt x="308" y="576" on="0"/>
        <pt x="358" y="358" on="0"/>
        <pt x="462" y="209" on="0"/>
        <pt x="622" y="133" on="0"/>
        <pt x="733" y="133" on="1"/>
        <pt x="835" y="133" on="0"/>
        <pt x="1019" y="167" on="0"/>
        <pt x="1110" y="195" on="1"/>
      </contour>
    </TTGlyph>
    <TTGlyph name="Cacute" xMin="115" yMin="-24" xMax="1157" yMax="2064">
      <contour>
        <pt x="695" y="2017" on="1"/>
        <pt x="733" y="2044" on="0"/>
        <pt x="788" y="2064" on="0"/>
        <pt x="816" y="2064" on="1"/>
        <pt x="865" y="2064" on="0"/>
        <pt x="925" y="2025" on="0"/>
        <pt x="952" y="1964" on="0"/>
        <pt x="948" y="1886" on="0"/>
        <pt x="932" y="1847" on="1"/>
        <pt x="921" y="1821" on="0"/>
        <pt x="885" y="1751" on="0"/>
        <pt x="845" y="1676" on="0"/>
        <pt x="804" y="1604" on="0"/>
        <pt x="789" y="1578" on="1"/>
        <pt x="667" y="1578" on="1"/>
        <pt x="746" y="1840" on="1"/>
      </contour>
      <contour>
        <pt x="1157" y="41" on="1"/>
        <pt x="1064" y="12" on="0"/>
        <pt x="857" y="-24" on="0"/>
        <pt x="733" y="-24" on="1"/>
        <pt x="427" y="-24" on="0"/>
        <pt x="115" y="342" on="0"/>
        <pt x="115" y="698" on="1"/>
        <pt x="115" y="1076" on="0"/>
        <pt x="427" y="1460" on="0"/>
        <pt x="733" y="1460" on="1"/>
        <pt x="849" y="1460" on="0"/>
        <pt x="1034" y="1420" on="0"/>
        <pt x="1120" y="1388" on="1"/>
        <pt x="1068" y="1240" on="1"/>
        <pt x="1027" y="1255" on="0"/>
        <pt x="947" y="1279" on="0"/>
        <pt x="866" y="1295" on="0"/>
        <pt x="780" y="1303" on="0"/>
        <pt x="733" y="1303" on="1"/>
        <pt x="622" y="1303" on="0"/>
        <pt x="462" y="1224" on="0"/>
        <pt x="358" y="1073" on="0"/>
        <pt x="308" y="856" on="0"/>
        <pt x="308" y="718" on="1"/>
        <pt x="308" y="576" on="0"/>
        <pt x="358" y="358" on="0"/>
        <pt x="462" y="209" on="0"/>
        <pt x="622" y="133" on="0"/>
        <pt x="733" y="133" on="1"/>
        <pt x="835" y="133" on="0"/>
        <pt x="1019" y="167" on="0"/>
        <pt x="1110" y="195" on="1"/>
      </contour>
    </TTGlyph>
    <TTGlyph name="Ccaron" xMin="115" yMin="-24" xMax="1157" yMax="1919">
      <contour>
        <pt x="972" y="1919" on="1"/>
        <pt x="1043" y="1832" on="1"/>
        <pt x="730" y="1578" on="1"/>
        <pt x="413" y="1832" on="1"/>
        <pt x="484" y="1919" on="1"/>
        <pt x="730" y="1778" on="1"/>
      </contour>
      <contour>
        <pt x="1157" y="41" on="1"/>
        <pt x="1064" y="12" on="0"/>
        <pt x="857" y="-24" on="0"/>
        <pt x="733" y="-24" on="1"/>
        <pt x="427" y="-24" on="0"/>
        <pt x="115" y="342" on="0"/>
        <pt x="115" y="698" on="1"/>
        <pt x="115" y="1076" on="0"/>
        <pt x="427" y="1460" on="0"/>
        <pt x="733" y="1460" on="1"/>
        <pt x="849" y="1460" on="0"/>
        <pt x="1034" y="1420" on="0"/>
        <pt x="1120" y="1388" on="1"/>
        <pt x="1068" y="1240" on="1"/>
        <pt x="1027" y="1255" on="0"/>
        <pt x="947" y="1279" on="0"/>
        <pt x="866" y="1295" on="0"/>
        <pt x="780" y="1303" on="0"/>
        <pt x="733" y="1303" on="1"/>
        <pt x="622" y="1303" on="0"/>
        <pt x="462" y="1224" on="0"/>
        <pt x="358" y="1073" on="0"/>
        <pt x="308" y="856" on="0"/>
        <pt x="308" y="718" on="1"/>
        <pt x="308" y="576" on="0"/>
        <pt x="358" y="358" on="0"/>
        <pt x="462" y="209" on="0"/>
        <pt x="622" y="133" on="0"/>
        <pt x="733" y="133" on="1"/>
        <pt x="835" y="133" on="0"/>
        <pt x="1019" y="167" on="0"/>
        <pt x="1110" y="195" on="1"/>
      </contour>
    </TTGlyph>
    <TTGlyph name="Ccedilla" xMin="115" yMin="-427" xMax="1157" yMax="1460">
      <contour>
        <pt x="721" y="-112" on="1"/>
        <pt x="799" y="-136" on="0"/>
        <pt x="865" y="-206" on="0"/>
        <pt x="865" y="-262" on="1"/>
        <pt x="865" y="-305" on="0"/>
        <pt x="833" y="-367" on="0"/>
        <pt x="776" y="-408" on="0"/>
        <pt x="698" y="-427" on="0"/>
        <pt x="652" y="-427" on="1"/>
        <pt x="610" y="-427" on="0"/>
        <pt x="522" y="-410" on="0"/>
        <pt x="476" y="-396" on="1"/>
        <pt x="526" y="-304" on="1"/>
        <pt x="566" y="-324" on="0"/>
        <pt x="629" y="-347" on="0"/>
        <pt x="658" y="-347" on="1"/>
        <pt x="700" y="-347" on="0"/>
        <pt x="740" y="-301" on="0"/>
        <pt x="740" y="-272" on="1"/>
        <pt x="740" y="-236" on="0"/>
        <pt x="665" y="-187" on="0"/>
        <pt x="590" y="-163" on="1"/>
        <pt x="675" y="-22" on="1"/>
        <pt x="396" y="-5" on="0"/>
        <pt x="115" y="358" on="0"/>
        <pt x="115" y="698" on="1"/>
        <pt x="115" y="1076" on="0"/>
        <pt x="427" y="1460" on="0"/>
        <pt x="733" y="1460" on="1"/>
        <pt x="849" y="1460" on="0"/>
        <pt x="1034" y="1420" on="0"/>
        <pt x="1120" y="1388" on="1"/>
        <pt x="1068" y="1240" on="1"/>
        <pt x="1027" y="1255" on="0"/>
        <pt x="947" y="1279" on="0"/>
        <pt x="866" y="1295" on="0"/>
        <pt x="780" y="1303" on="0"/>
        <pt x="733" y="1303" on="1"/>
        <pt x="622" y="1303" on="0"/>
        <pt x="462" y="1224" on="0"/>
        <pt x="358" y="1073" on="0"/>
        <pt x="308" y="856" on="0"/>
        <pt x="308" y="718" on="1"/>
        <pt x="308" y="576" on="0"/>
        <pt x="358" y="358" on="0"/>
        <pt x="462" y="209" on="0"/>
        <pt x="622" y="133" on="0"/>
        <pt x="733" y="133" on="1"/>
        <pt x="835" y="133" on="0"/>
        <pt x="1019" y="167" on="0"/>
        <pt x="1110" y="195" on="1"/>
        <pt x="1157" y="41" on="1"/>
        <pt x="1076" y="15" on="0"/>
        <pt x="896" y="-18" on="0"/>
        <pt x="792" y="-23" on="1"/>
      </contour>
    </TTGlyph>
    <TTGlyph name="Cdotaccent" xMin="115" yMin="-24" xMax="1157" yMax="1815">
      <contour>
        <pt x="730" y="1815" on="1"/>
        <pt x="755" y="1815" on="0"/>
        <pt x="799" y="1796" on="0"/>
        <pt x="832" y="1764" on="0"/>
        <pt x="851" y="1721" on="0"/>
        <pt x="851" y="1696" on="1"/>
        <pt x="851" y="1669" on="0"/>
        <pt x="831" y="1624" on="0"/>
        <pt x="798" y="1593" on="0"/>
        <pt x="754" y="1575" on="0"/>
        <pt x="730" y="1575" on="1"/>
        <pt x="706" y="1575" on="0"/>
        <pt x="662" y="1594" on="0"/>
        <pt x="629" y="1627" on="0"/>
        <pt x="609" y="1671" on="0"/>
        <pt x="609" y="1696" on="1"/>
        <pt x="609" y="1721" on="0"/>
        <pt x="630" y="1764" on="0"/>
        <pt x="664" y="1796" on="0"/>
        <pt x="707" y="1815" on="0"/>
      </contour>
      <contour>
        <pt x="1157" y="41" on="1"/>
        <pt x="1064" y="12" on="0"/>
        <pt x="857" y="-24" on="0"/>
        <pt x="733" y="-24" on="1"/>
        <pt x="427" y="-24" on="0"/>
        <pt x="115" y="342" on="0"/>
        <pt x="115" y="698" on="1"/>
        <pt x="115" y="1076" on="0"/>
        <pt x="427" y="1460" on="0"/>
        <pt x="733" y="1460" on="1"/>
        <pt x="849" y="1460" on="0"/>
        <pt x="1034" y="1420" on="0"/>
        <pt x="1120" y="1388" on="1"/>
        <pt x="1068" y="1240" on="1"/>
        <pt x="1027" y="1255" on="0"/>
        <pt x="947" y="1279" on="0"/>
        <pt x="866" y="1295" on="0"/>
        <pt x="780" y="1303" on="0"/>
        <pt x="733" y="1303" on="1"/>
        <pt x="622" y="1303" on="0"/>
        <pt x="462" y="1224" on="0"/>
        <pt x="358" y="1073" on="0"/>
        <pt x="308" y="856" on="0"/>
        <pt x="308" y="718" on="1"/>
        <pt x="308" y="576" on="0"/>
        <pt x="358" y="358" on="0"/>
        <pt x="462" y="209" on="0"/>
        <pt x="622" y="133" on="0"/>
        <pt x="733" y="133" on="1"/>
        <pt x="835" y="133" on="0"/>
        <pt x="1019" y="167" on="0"/>
        <pt x="1110" y="195" on="1"/>
      </contour>
    </TTGlyph>
    <TTGlyph name="D" xMin="182" yMin="0" xMax="1272" yMax="1438">
      <contour>
        <pt x="182" y="0" on="1"/>
        <pt x="182" y="1438" on="1"/>
        <pt x="486" y="1438" on="1"/>
        <pt x="609" y="1438" on="0"/>
        <pt x="820" y="1413" on="0"/>
        <pt x="908" y="1382" on="1"/>
        <pt x="996" y="1351" on="0"/>
        <pt x="1129" y="1248" on="0"/>
        <pt x="1177" y="1168" on="1"/>
        <pt x="1224" y="1088" on="0"/>
        <pt x="1272" y="868" on="0"/>
        <pt x="1272" y="719" on="1"/>
        <pt x="1272" y="570" on="0"/>
        <pt x="1224" y="350" on="0"/>
        <pt x="1177" y="270" on="1"/>
        <pt x="1129" y="190" on="0"/>
        <pt x="996" y="87" on="0"/>
        <pt x="908" y="56" on="1"/>
        <pt x="820" y="25" on="0"/>
        <pt x="609" y="0" on="0"/>
        <pt x="486" y="0" on="1"/>
      </contour>
      <contour>
        <pt x="517" y="154" on="1"/>
        <pt x="670" y="154" on="0"/>
        <pt x="883" y="215" on="0"/>
        <pt x="951" y="284" on="1"/>
        <pt x="1018" y="353" on="0"/>
        <pt x="1079" y="566" on="0"/>
        <pt x="1079" y="719" on="1"/>
        <pt x="1079" y="872" on="0"/>
        <pt x="1018" y="1085" on="0"/>
        <pt x="951" y="1154" on="1"/>
        <pt x="883" y="1223" on="0"/>
        <pt x="670" y="1284" on="0"/>
        <pt x="517" y="1284" on="1"/>
        <pt x="370" y="1284" on="1"/>
        <pt x="370" y="154" on="1"/>
      </contour>
    </TTGlyph>
    <TTGlyph name="Dcaron" xMin="182" yMin="0" xMax="1272" yMax="1902">
      <contour>
        <pt x="848" y="1902" on="1"/>
        <pt x="919" y="1815" on="1"/>
        <pt x="606" y="1561" on="1"/>
        <pt x="289" y="1815" on="1"/>
        <pt x="360" y="1902" on="1"/>
        <pt x="606" y="1761" on="1"/>
      </contour>
      <contour>
        <pt x="182" y="0" on="1"/>
        <pt x="182" y="1438" on="1"/>
        <pt x="486" y="1438" on="1"/>
        <pt x="609" y="1438" on="0"/>
        <pt x="820" y="1413" on="0"/>
        <pt x="908" y="1382" on="1"/>
        <pt x="996" y="1351" on="0"/>
        <pt x="1129" y="1248" on="0"/>
        <pt x="1177" y="1168" on="1"/>
        <pt x="1224" y="1088" on="0"/>
        <pt x="1272" y="868" on="0"/>
        <pt x="1272" y="719" on="1"/>
        <pt x="1272" y="570" on="0"/>
        <pt x="1224" y="350" on="0"/>
        <pt x="1177" y="270" on="1"/>
        <pt x="1129" y="190" on="0"/>
        <pt x="996" y="87" on="0"/>
        <pt x="908" y="56" on="1"/>
        <pt x="820" y="25" on="0"/>
        <pt x="609" y="0" on="0"/>
        <pt x="486" y="0" on="1"/>
      </contour>
      <contour>
        <pt x="517" y="154" on="1"/>
        <pt x="670" y="154" on="0"/>
        <pt x="883" y="215" on="0"/>
        <pt x="951" y="284" on="1"/>
        <pt x="1018" y="353" on="0"/>
        <pt x="1079" y="566" on="0"/>
        <pt x="1079" y="719" on="1"/>
        <pt x="1079" y="872" on="0"/>
        <pt x="1018" y="1085" on="0"/>
        <pt x="951" y="1154" on="1"/>
        <pt x="883" y="1223" on="0"/>
        <pt x="670" y="1284" on="0"/>
        <pt x="517" y="1284" on="1"/>
        <pt x="370" y="1284" on="1"/>
        <pt x="370" y="154" on="1"/>
      </contour>
    </TTGlyph>
    <TTGlyph name="Dcroat" xMin="182" yMin="0" xMax="1272" yMax="1719">
      <contour>
        <pt x="808" y="1719" on="1"/>
        <pt x="808" y="1598" on="1"/>
        <pt x="295" y="1598" on="1"/>
        <pt x="295" y="1719" on="1"/>
      </contour>
      <contour>
        <pt x="182" y="0" on="1"/>
        <pt x="182" y="1438" on="1"/>
        <pt x="486" y="1438" on="1"/>
        <pt x="609" y="1438" on="0"/>
        <pt x="820" y="1413" on="0"/>
        <pt x="908" y="1382" on="1"/>
        <pt x="996" y="1351" on="0"/>
        <pt x="1129" y="1248" on="0"/>
        <pt x="1177" y="1168" on="1"/>
        <pt x="1224" y="1088" on="0"/>
        <pt x="1272" y="868" on="0"/>
        <pt x="1272" y="719" on="1"/>
        <pt x="1272" y="570" on="0"/>
        <pt x="1224" y="350" on="0"/>
        <pt x="1177" y="270" on="1"/>
        <pt x="1129" y="190" on="0"/>
        <pt x="996" y="87" on="0"/>
        <pt x="908" y="56" on="1"/>
        <pt x="820" y="25" on="0"/>
        <pt x="609" y="0" on="0"/>
        <pt x="486" y="0" on="1"/>
      </contour>
      <contour>
        <pt x="517" y="154" on="1"/>
        <pt x="670" y="154" on="0"/>
        <pt x="883" y="215" on="0"/>
        <pt x="951" y="284" on="1"/>
        <pt x="1018" y="353" on="0"/>
        <pt x="1079" y="566" on="0"/>
        <pt x="1079" y="719" on="1"/>
        <pt x="1079" y="872" on="0"/>
        <pt x="1018" y="1085" on="0"/>
        <pt x="951" y="1154" on="1"/>
        <pt x="883" y="1223" on="0"/>
        <pt x="670" y="1284" on="0"/>
        <pt x="517" y="1284" on="1"/>
        <pt x="370" y="1284" on="1"/>
        <pt x="370" y="154" on="1"/>
      </contour>
    </TTGlyph>
    <TTGlyph name="E" xMin="182" yMin="0" xMax="1003" yMax="1438">
      <contour>
        <pt x="182" y="1438" on="1"/>
        <pt x="980" y="1438" on="1"/>
        <pt x="980" y="1284" on="1"/>
        <pt x="370" y="1284" on="1"/>
        <pt x="370" y="887" on="1"/>
        <pt x="802" y="887" on="1"/>
        <pt x="802" y="733" on="1"/>
        <pt x="370" y="733" on="1"/>
        <pt x="370" y="154" on="1"/>
        <pt x="1003" y="154" on="1"/>
        <pt x="1003" y="0" on="1"/>
        <pt x="182" y="0" on="1"/>
      </contour>
    </TTGlyph>
    <TTGlyph name="Eacute" xMin="182" yMin="0" xMax="1003" yMax="2057">
      <contour>
        <pt x="598" y="1833" on="1"/>
        <pt x="547" y="2010" on="1"/>
        <pt x="612" y="2057" on="0"/>
        <pt x="668" y="2057" on="1"/>
        <pt x="730" y="2057" on="0"/>
        <pt x="801" y="1991" on="0"/>
        <pt x="803" y="1894" on="0"/>
        <pt x="784" y="1840" on="1"/>
        <pt x="756" y="1773" on="0"/>
        <pt x="641" y="1571" on="1"/>
        <pt x="519" y="1571" on="1"/>
      </contour>
      <contour>
        <pt x="182" y="1438" on="1"/>
        <pt x="980" y="1438" on="1"/>
        <pt x="980" y="1284" on="1"/>
        <pt x="370" y="1284" on="1"/>
        <pt x="370" y="887" on="1"/>
        <pt x="802" y="887" on="1"/>
        <pt x="802" y="733" on="1"/>
        <pt x="370" y="733" on="1"/>
        <pt x="370" y="154" on="1"/>
        <pt x="1003" y="154" on="1"/>
        <pt x="1003" y="0" on="1"/>
        <pt x="182" y="0" on="1"/>
      </contour>
    </TTGlyph>
    <TTGlyph name="Ecaron" xMin="182" yMin="0" xMax="1003" yMax="1902">
      <contour>
        <pt x="586" y="1761" on="1"/>
        <pt x="828" y="1902" on="1"/>
        <pt x="899" y="1815" on="1"/>
        <pt x="586" y="1561" on="1"/>
        <pt x="269" y="1815" on="1"/>
        <pt x="340" y="1902" on="1"/>
      </contour>
      <contour>
        <pt x="182" y="1438" on="1"/>
        <pt x="980" y="1438" on="1"/>
        <pt x="980" y="1284" on="1"/>
        <pt x="370" y="1284" on="1"/>
        <pt x="370" y="887" on="1"/>
        <pt x="802" y="887" on="1"/>
        <pt x="802" y="733" on="1"/>
        <pt x="370" y="733" on="1"/>
        <pt x="370" y="154" on="1"/>
        <pt x="1003" y="154" on="1"/>
        <pt x="1003" y="0" on="1"/>
        <pt x="182" y="0" on="1"/>
      </contour>
    </TTGlyph>
    <TTGlyph name="Ecircumflex" xMin="182" yMin="0" xMax="1003" yMax="1902">
      <contour>
        <pt x="274" y="1648" on="1"/>
        <pt x="591" y="1902" on="1"/>
        <pt x="904" y="1648" on="1"/>
        <pt x="833" y="1561" on="1"/>
        <pt x="591" y="1702" on="1"/>
        <pt x="345" y="1561" on="1"/>
      </contour>
      <contour>
        <pt x="182" y="1438" on="1"/>
        <pt x="980" y="1438" on="1"/>
        <pt x="980" y="1284" on="1"/>
        <pt x="370" y="1284" on="1"/>
        <pt x="370" y="887" on="1"/>
        <pt x="802" y="887" on="1"/>
        <pt x="802" y="733" on="1"/>
        <pt x="370" y="733" on="1"/>
        <pt x="370" y="154" on="1"/>
        <pt x="1003" y="154" on="1"/>
        <pt x="1003" y="0" on="1"/>
        <pt x="182" y="0" on="1"/>
      </contour>
    </TTGlyph>
    <TTGlyph name="Edieresis" xMin="182" yMin="0" xMax="1003" yMax="1798">
      <contour>
        <pt x="361" y="1798" on="1"/>
        <pt x="385" y="1798" on="0"/>
        <pt x="429" y="1779" on="0"/>
        <pt x="445" y="1763" on="1"/>
        <pt x="461" y="1747" on="0"/>
        <pt x="480" y="1703" on="0"/>
        <pt x="480" y="1679" on="1"/>
        <pt x="480" y="1653" on="0"/>
        <pt x="461" y="1609" on="0"/>
        <pt x="445" y="1593" on="1"/>
        <pt x="429" y="1577" on="0"/>
        <pt x="385" y="1558" on="0"/>
        <pt x="361" y="1558" on="1"/>
        <pt x="335" y="1558" on="0"/>
        <pt x="291" y="1577" on="0"/>
        <pt x="274" y="1593" on="1"/>
        <pt x="238" y="1626" on="0"/>
        <pt x="238" y="1679" on="1"/>
        <pt x="238" y="1703" on="0"/>
        <pt x="257" y="1747" on="0"/>
        <pt x="274" y="1763" on="1"/>
        <pt x="291" y="1779" on="0"/>
        <pt x="335" y="1798" on="0"/>
      </contour>
      <contour>
        <pt x="803" y="1798" on="1"/>
        <pt x="828" y="1798" on="0"/>
        <pt x="872" y="1779" on="0"/>
        <pt x="889" y="1763" on="1"/>
        <pt x="906" y="1747" on="0"/>
        <pt x="924" y="1703" on="0"/>
        <pt x="924" y="1679" on="1"/>
        <pt x="924" y="1626" on="0"/>
        <pt x="889" y="1593" on="1"/>
        <pt x="872" y="1577" on="0"/>
        <pt x="828" y="1558" on="0"/>
        <pt x="803" y="1558" on="1"/>
        <pt x="779" y="1558" on="0"/>
        <pt x="736" y="1577" on="0"/>
        <pt x="719" y="1593" on="1"/>
        <pt x="702" y="1609" on="0"/>
        <pt x="682" y="1653" on="0"/>
        <pt x="682" y="1679" on="1"/>
        <pt x="682" y="1703" on="0"/>
        <pt x="702" y="1747" on="0"/>
        <pt x="719" y="1763" on="1"/>
        <pt x="736" y="1779" on="0"/>
        <pt x="779" y="1798" on="0"/>
      </contour>
      <contour>
        <pt x="980" y="1438" on="1"/>
        <pt x="980" y="1284" on="1"/>
        <pt x="370" y="1284" on="1"/>
        <pt x="370" y="887" on="1"/>
        <pt x="802" y="887" on="1"/>
        <pt x="802" y="733" on="1"/>
        <pt x="370" y="733" on="1"/>
        <pt x="370" y="154" on="1"/>
        <pt x="1003" y="154" on="1"/>
        <pt x="1003" y="0" on="1"/>
        <pt x="182" y="0" on="1"/>
        <pt x="182" y="1438" on="1"/>
      </contour>
    </TTGlyph>
    <TTGlyph name="Edotaccent" xMin="182" yMin="0" xMax="1003" yMax="1798">
      <contour>
        <pt x="594" y="1798" on="1"/>
        <pt x="643" y="1798" on="0"/>
        <pt x="680" y="1763" on="1"/>
        <pt x="715" y="1730" on="0"/>
        <pt x="715" y="1679" on="1"/>
        <pt x="715" y="1626" on="0"/>
        <pt x="680" y="1593" on="1"/>
        <pt x="643" y="1558" on="0"/>
        <pt x="594" y="1558" on="1"/>
        <pt x="547" y="1558" on="0"/>
        <pt x="473" y="1628" on="0"/>
        <pt x="473" y="1679" on="1"/>
        <pt x="473" y="1728" on="0"/>
        <pt x="547" y="1798" on="0"/>
      </contour>
      <contour>
        <pt x="182" y="1438" on="1"/>
        <pt x="980" y="1438" on="1"/>
        <pt x="980" y="1284" on="1"/>
        <pt x="370" y="1284" on="1"/>
        <pt x="370" y="887" on="1"/>
        <pt x="802" y="887" on="1"/>
        <pt x="802" y="733" on="1"/>
        <pt x="370" y="733" on="1"/>
        <pt x="370" y="154" on="1"/>
        <pt x="1003" y="154" on="1"/>
        <pt x="1003" y="0" on="1"/>
        <pt x="182" y="0" on="1"/>
      </contour>
    </TTGlyph>
    <TTGlyph name="Egrave" xMin="182" yMin="0" xMax="1003" yMax="2057">
      <contour>
        <pt x="667" y="1571" on="1"/>
        <pt x="545" y="1571" on="1"/>
        <pt x="430" y="1773" on="0"/>
        <pt x="402" y="1840" on="1"/>
        <pt x="383" y="1894" on="0"/>
        <pt x="385" y="1991" on="0"/>
        <pt x="456" y="2057" on="0"/>
        <pt x="518" y="2057" on="1"/>
        <pt x="574" y="2057" on="0"/>
        <pt x="639" y="2010" on="1"/>
        <pt x="588" y="1833" on="1"/>
      </contour>
      <contour>
        <pt x="182" y="1438" on="1"/>
        <pt x="980" y="1438" on="1"/>
        <pt x="980" y="1284" on="1"/>
        <pt x="370" y="1284" on="1"/>
        <pt x="370" y="887" on="1"/>
        <pt x="802" y="887" on="1"/>
        <pt x="802" y="733" on="1"/>
        <pt x="370" y="733" on="1"/>
        <pt x="370" y="154" on="1"/>
        <pt x="1003" y="154" on="1"/>
        <pt x="1003" y="0" on="1"/>
        <pt x="182" y="0" on="1"/>
      </contour>
    </TTGlyph>
    <TTGlyph name="Emacron" xMin="182" yMin="0" xMax="1003" yMax="1719">
      <contour>
        <pt x="325" y="1719" on="1"/>
        <pt x="838" y="1719" on="1"/>
        <pt x="838" y="1598" on="1"/>
        <pt x="325" y="1598" on="1"/>
      </contour>
      <contour>
        <pt x="182" y="1438" on="1"/>
        <pt x="980" y="1438" on="1"/>
        <pt x="980" y="1284" on="1"/>
        <pt x="370" y="1284" on="1"/>
        <pt x="370" y="887" on="1"/>
        <pt x="802" y="887" on="1"/>
        <pt x="802" y="733" on="1"/>
        <pt x="370" y="733" on="1"/>
        <pt x="370" y="154" on="1"/>
        <pt x="1003" y="154" on="1"/>
        <pt x="1003" y="0" on="1"/>
        <pt x="182" y="0" on="1"/>
      </contour>
    </TTGlyph>
    <TTGlyph name="Eng" xMin="180" yMin="-527" xMax="1351" yMax="1438">
      <contour>
        <pt x="1164" y="1438" on="1"/>
        <pt x="1351" y="1438" on="1"/>
        <pt x="1351" y="-11" on="1"/>
        <pt x="1351" y="-154" on="0"/>
        <pt x="1297" y="-272" on="1"/>
        <pt x="1224" y="-430" on="0"/>
        <pt x="1012" y="-527" on="1"/>
        <pt x="928" y="-419" on="1"/>
        <pt x="932" y="-415" on="0"/>
        <pt x="983" y="-372" on="0"/>
        <pt x="994" y="-363" on="0"/>
        <pt x="1033" y="-328" on="0"/>
        <pt x="1048" y="-312" on="0"/>
        <pt x="1075" y="-282" on="0"/>
        <pt x="1093" y="-257" on="0"/>
        <pt x="1101" y="-243" on="1"/>
        <pt x="1152" y="-158" on="0"/>
        <pt x="1160" y="-9" on="1"/>
        <pt x="367" y="1195" on="1"/>
        <pt x="367" y="0" on="1"/>
        <pt x="180" y="0" on="1"/>
        <pt x="180" y="1438" on="1"/>
        <pt x="399" y="1438" on="1"/>
        <pt x="1164" y="283" on="1"/>
      </contour>
    </TTGlyph>
    <TTGlyph name="Eogonek" xMin="182" yMin="-408" xMax="1003" yMax="1438">
      <contour>
        <pt x="1003" y="0" on="1"/>
        <pt x="839" y="0" on="1"/>
        <pt x="781" y="-70" on="0"/>
        <pt x="731" y="-157" on="0"/>
        <pt x="731" y="-204" on="1"/>
        <pt x="731" y="-296" on="0"/>
        <pt x="802" y="-296" on="1"/>
        <pt x="839" y="-296" on="0"/>
        <pt x="904" y="-271" on="1"/>
        <pt x="899" y="-361" on="1"/>
        <pt x="828" y="-408" on="0"/>
        <pt x="750" y="-408" on="1"/>
        <pt x="685" y="-408" on="0"/>
        <pt x="603" y="-319" on="0"/>
        <pt x="603" y="-242" on="1"/>
        <pt x="603" y="-206" on="0"/>
        <pt x="618" y="-147" on="0"/>
        <pt x="661" y="-82" on="0"/>
        <pt x="693" y="-43" on="0"/>
        <pt x="732" y="0" on="1"/>
        <pt x="182" y="0" on="1"/>
        <pt x="182" y="1438" on="1"/>
        <pt x="980" y="1438" on="1"/>
        <pt x="980" y="1284" on="1"/>
        <pt x="370" y="1284" on="1"/>
        <pt x="370" y="887" on="1"/>
        <pt x="802" y="887" on="1"/>
        <pt x="802" y="733" on="1"/>
        <pt x="370" y="733" on="1"/>
        <pt x="370" y="154" on="1"/>
        <pt x="1003" y="154" on="1"/>
      </contour>
    </TTGlyph>
    <TTGlyph name="Eth" xMin="-102" yMin="0" xMax="1272" yMax="1438">
      <contour>
        <pt x="486" y="1438" on="1"/>
        <pt x="609" y="1438" on="0"/>
        <pt x="820" y="1413" on="0"/>
        <pt x="908" y="1382" on="1"/>
        <pt x="996" y="1351" on="0"/>
        <pt x="1129" y="1248" on="0"/>
        <pt x="1177" y="1168" on="1"/>
        <pt x="1224" y="1088" on="0"/>
        <pt x="1272" y="868" on="0"/>
        <pt x="1272" y="719" on="1"/>
        <pt x="1272" y="570" on="0"/>
        <pt x="1224" y="350" on="0"/>
        <pt x="1177" y="270" on="1"/>
        <pt x="1129" y="190" on="0"/>
        <pt x="996" y="87" on="0"/>
        <pt x="908" y="56" on="1"/>
        <pt x="820" y="25" on="0"/>
        <pt x="609" y="0" on="0"/>
        <pt x="486" y="0" on="1"/>
        <pt x="182" y="0" on="1"/>
        <pt x="182" y="650" on="1"/>
        <pt x="-102" y="650" on="1"/>
        <pt x="-102" y="798" on="1"/>
        <pt x="182" y="798" on="1"/>
        <pt x="182" y="1438" on="1"/>
      </contour>
      <contour>
        <pt x="517" y="154" on="1"/>
        <pt x="670" y="154" on="0"/>
        <pt x="883" y="215" on="0"/>
        <pt x="951" y="284" on="1"/>
        <pt x="1018" y="353" on="0"/>
        <pt x="1079" y="566" on="0"/>
        <pt x="1079" y="719" on="1"/>
        <pt x="1079" y="872" on="0"/>
        <pt x="1018" y="1085" on="0"/>
        <pt x="951" y="1154" on="1"/>
        <pt x="883" y="1223" on="0"/>
        <pt x="670" y="1284" on="0"/>
        <pt x="517" y="1284" on="1"/>
        <pt x="370" y="1284" on="1"/>
        <pt x="370" y="798" on="1"/>
        <pt x="654" y="798" on="1"/>
        <pt x="654" y="650" on="1"/>
        <pt x="370" y="650" on="1"/>
        <pt x="370" y="154" on="1"/>
      </contour>
    </TTGlyph>
    <TTGlyph name="Euro" xMin="120" yMin="-24" xMax="953" yMax="1440">
      <contour>
        <pt x="922" y="158" on="1"/>
        <pt x="953" y="19" on="1"/>
        <pt x="775" y="-24" on="0"/>
        <pt x="646" y="-24" on="1"/>
        <pt x="454" y="-24" on="0"/>
        <pt x="377" y="77" on="1"/>
        <pt x="309" y="166" on="0"/>
        <pt x="309" y="372" on="1"/>
        <pt x="309" y="443" on="1"/>
        <pt x="120" y="443" on="1"/>
        <pt x="120" y="589" on="1"/>
        <pt x="308" y="589" on="1"/>
        <pt x="308" y="827" on="1"/>
        <pt x="120" y="827" on="1"/>
        <pt x="120" y="973" on="1"/>
        <pt x="308" y="973" on="1"/>
        <pt x="308" y="1044" on="1"/>
        <pt x="308" y="1250" on="0"/>
        <pt x="376" y="1339" on="1"/>
        <pt x="453" y="1440" on="0"/>
        <pt x="645" y="1440" on="1"/>
        <pt x="774" y="1440" on="0"/>
        <pt x="952" y="1397" on="1"/>
        <pt x="921" y="1258" on="1"/>
        <pt x="769" y="1291" on="0"/>
        <pt x="678" y="1291" on="1"/>
        <pt x="548" y="1291" on="0"/>
        <pt x="513" y="1238" on="1"/>
        <pt x="496" y="1213" on="0"/>
        <pt x="487" y="1138" on="0"/>
        <pt x="487" y="1068" on="1"/>
        <pt x="487" y="973" on="1"/>
        <pt x="750" y="973" on="1"/>
        <pt x="750" y="827" on="1"/>
        <pt x="488" y="827" on="1"/>
        <pt x="488" y="589" on="1"/>
        <pt x="750" y="589" on="1"/>
        <pt x="750" y="443" on="1"/>
        <pt x="488" y="443" on="1"/>
        <pt x="488" y="348" on="1"/>
        <pt x="488" y="278" on="0"/>
        <pt x="497" y="203" on="0"/>
        <pt x="514" y="178" on="1"/>
        <pt x="549" y="125" on="0"/>
        <pt x="679" y="125" on="1"/>
        <pt x="770" y="125" on="0"/>
      </contour>
    </TTGlyph>
    <TTGlyph name="F" xMin="182" yMin="0" xMax="980" yMax="1438">
      <contour>
        <pt x="182" y="1438" on="1"/>
        <pt x="980" y="1438" on="1"/>
        <pt x="980" y="1284" on="1"/>
        <pt x="370" y="1284" on="1"/>
        <pt x="370" y="887" on="1"/>
        <pt x="802" y="887" on="1"/>
        <pt x="802" y="733" on="1"/>
        <pt x="370" y="733" on="1"/>
        <pt x="370" y="0" on="1"/>
        <pt x="182" y="0" on="1"/>
      </contour>
    </TTGlyph>
    <TTGlyph name="G" xMin="117" yMin="-24" xMax="1257" yMax="1460">
      <contour>
        <pt x="1257" y="77" on="1"/>
        <pt x="1138" y="28" on="0"/>
        <pt x="883" y="-24" on="0"/>
        <pt x="763" y="-24" on="1"/>
        <pt x="607" y="-24" on="0"/>
        <pt x="366" y="64" on="0"/>
        <pt x="202" y="244" on="0"/>
        <pt x="117" y="517" on="0"/>
        <pt x="117" y="702" on="1"/>
        <pt x="117" y="903" on="0"/>
        <pt x="204" y="1191" on="0"/>
        <pt x="370" y="1374" on="0"/>
        <pt x="613" y="1460" on="0"/>
        <pt x="769" y="1460" on="1"/>
        <pt x="866" y="1460" on="0"/>
        <pt x="1080" y="1421" on="0"/>
        <pt x="1193" y="1385" on="1"/>
        <pt x="1140" y="1235" on="1"/>
        <pt x="1039" y="1269" on="0"/>
        <pt x="862" y="1303" on="0"/>
        <pt x="772" y="1303" on="1"/>
        <pt x="656" y="1303" on="0"/>
        <pt x="482" y="1235" on="0"/>
        <pt x="367" y="1093" on="0"/>
        <pt x="310" y="873" on="0"/>
        <pt x="310" y="721" on="1"/>
        <pt x="310" y="571" on="0"/>
        <pt x="363" y="349" on="0"/>
        <pt x="473" y="204" on="0"/>
        <pt x="643" y="133" on="0"/>
        <pt x="759" y="133" on="1"/>
        <pt x="841" y="133" on="0"/>
        <pt x="1007" y="167" on="0"/>
        <pt x="1076" y="190" on="1"/>
        <pt x="1076" y="588" on="1"/>
        <pt x="835" y="588" on="1"/>
        <pt x="835" y="739" on="1"/>
        <pt x="1257" y="739" on="1"/>
      </contour>
    </TTGlyph>
    <TTGlyph name="Gbreve" xMin="117" yMin="-24" xMax="1257" yMax="1904">
      <contour>
        <pt x="1052" y="1904" on="1"/>
        <pt x="1045" y="1838" on="0"/>
        <pt x="1001" y="1728" on="0"/>
        <pt x="929" y="1649" on="0"/>
        <pt x="831" y="1605" on="0"/>
        <pt x="771" y="1605" on="1"/>
        <pt x="710" y="1605" on="0"/>
        <pt x="612" y="1650" on="0"/>
        <pt x="541" y="1730" on="0"/>
        <pt x="497" y="1839" on="0"/>
        <pt x="490" y="1904" on="1"/>
        <pt x="566" y="1904" on="1"/>
        <pt x="598" y="1821" on="0"/>
        <pt x="697" y="1751" on="0"/>
        <pt x="771" y="1751" on="1"/>
        <pt x="845" y="1751" on="0"/>
        <pt x="944" y="1821" on="0"/>
        <pt x="976" y="1904" on="1"/>
      </contour>
      <contour>
        <pt x="1257" y="77" on="1"/>
        <pt x="1138" y="28" on="0"/>
        <pt x="883" y="-24" on="0"/>
        <pt x="763" y="-24" on="1"/>
        <pt x="607" y="-24" on="0"/>
        <pt x="366" y="64" on="0"/>
        <pt x="202" y="244" on="0"/>
        <pt x="117" y="517" on="0"/>
        <pt x="117" y="702" on="1"/>
        <pt x="117" y="903" on="0"/>
        <pt x="204" y="1191" on="0"/>
        <pt x="370" y="1374" on="0"/>
        <pt x="613" y="1460" on="0"/>
        <pt x="769" y="1460" on="1"/>
        <pt x="866" y="1460" on="0"/>
        <pt x="1080" y="1421" on="0"/>
        <pt x="1193" y="1385" on="1"/>
        <pt x="1140" y="1235" on="1"/>
        <pt x="1039" y="1269" on="0"/>
        <pt x="862" y="1303" on="0"/>
        <pt x="772" y="1303" on="1"/>
        <pt x="656" y="1303" on="0"/>
        <pt x="482" y="1235" on="0"/>
        <pt x="367" y="1093" on="0"/>
        <pt x="310" y="873" on="0"/>
        <pt x="310" y="721" on="1"/>
        <pt x="310" y="571" on="0"/>
        <pt x="363" y="349" on="0"/>
        <pt x="473" y="204" on="0"/>
        <pt x="643" y="133" on="0"/>
        <pt x="759" y="133" on="1"/>
        <pt x="841" y="133" on="0"/>
        <pt x="1007" y="167" on="0"/>
        <pt x="1076" y="190" on="1"/>
        <pt x="1076" y="588" on="1"/>
        <pt x="835" y="588" on="1"/>
        <pt x="835" y="739" on="1"/>
        <pt x="1257" y="739" on="1"/>
      </contour>
    </TTGlyph>
    <TTGlyph name="Gcommaaccent" xMin="117" yMin="-613" xMax="1257" yMax="1460">
      <contour>
        <pt x="1257" y="77" on="1"/>
        <pt x="1138" y="28" on="0"/>
        <pt x="883" y="-24" on="0"/>
        <pt x="763" y="-24" on="1"/>
        <pt x="607" y="-24" on="0"/>
        <pt x="366" y="64" on="0"/>
        <pt x="202" y="244" on="0"/>
        <pt x="117" y="517" on="0"/>
        <pt x="117" y="702" on="1"/>
        <pt x="117" y="903" on="0"/>
        <pt x="204" y="1191" on="0"/>
        <pt x="370" y="1374" on="0"/>
        <pt x="613" y="1460" on="0"/>
        <pt x="769" y="1460" on="1"/>
        <pt x="866" y="1460" on="0"/>
        <pt x="1080" y="1421" on="0"/>
        <pt x="1193" y="1385" on="1"/>
        <pt x="1140" y="1235" on="1"/>
        <pt x="1039" y="1269" on="0"/>
        <pt x="862" y="1303" on="0"/>
        <pt x="772" y="1303" on="1"/>
        <pt x="656" y="1303" on="0"/>
        <pt x="482" y="1235" on="0"/>
        <pt x="367" y="1093" on="0"/>
        <pt x="310" y="873" on="0"/>
        <pt x="310" y="721" on="1"/>
        <pt x="310" y="571" on="0"/>
        <pt x="363" y="349" on="0"/>
        <pt x="473" y="204" on="0"/>
        <pt x="643" y="133" on="0"/>
        <pt x="759" y="133" on="1"/>
        <pt x="841" y="133" on="0"/>
        <pt x="1007" y="167" on="0"/>
        <pt x="1076" y="190" on="1"/>
        <pt x="1076" y="588" on="1"/>
        <pt x="835" y="588" on="1"/>
        <pt x="835" y="739" on="1"/>
        <pt x="1257" y="739" on="1"/>
      </contour>
      <contour>
        <pt x="641" y="-174" on="1"/>
        <pt x="679" y="-147" on="0"/>
        <pt x="734" y="-127" on="0"/>
        <pt x="762" y="-127" on="1"/>
        <pt x="811" y="-127" on="0"/>
        <pt x="871" y="-166" on="0"/>
        <pt x="898" y="-227" on="0"/>
        <pt x="894" y="-305" on="0"/>
        <pt x="878" y="-344" on="1"/>
        <pt x="867" y="-370" on="0"/>
        <pt x="831" y="-440" on="0"/>
        <pt x="791" y="-515" on="0"/>
        <pt x="750" y="-587" on="0"/>
        <pt x="735" y="-613" on="1"/>
        <pt x="613" y="-613" on="1"/>
        <pt x="692" y="-351" on="1"/>
      </contour>
    </TTGlyph>
    <TTGlyph name="Gdotaccent" xMin="117" yMin="-24" xMax="1257" yMax="1815">
      <contour>
        <pt x="771" y="1815" on="1"/>
        <pt x="796" y="1815" on="0"/>
        <pt x="840" y="1796" on="0"/>
        <pt x="873" y="1764" on="0"/>
        <pt x="892" y="1721" on="0"/>
        <pt x="892" y="1696" on="1"/>
        <pt x="892" y="1669" on="0"/>
        <pt x="872" y="1624" on="0"/>
        <pt x="839" y="1593" on="0"/>
        <pt x="795" y="1575" on="0"/>
        <pt x="771" y="1575" on="1"/>
        <pt x="747" y="1575" on="0"/>
        <pt x="703" y="1594" on="0"/>
        <pt x="670" y="1627" on="0"/>
        <pt x="650" y="1671" on="0"/>
        <pt x="650" y="1696" on="1"/>
        <pt x="650" y="1721" on="0"/>
        <pt x="671" y="1764" on="0"/>
        <pt x="705" y="1796" on="0"/>
        <pt x="748" y="1815" on="0"/>
      </contour>
      <contour>
        <pt x="1257" y="77" on="1"/>
        <pt x="1138" y="28" on="0"/>
        <pt x="883" y="-24" on="0"/>
        <pt x="763" y="-24" on="1"/>
        <pt x="607" y="-24" on="0"/>
        <pt x="366" y="64" on="0"/>
        <pt x="202" y="244" on="0"/>
        <pt x="117" y="517" on="0"/>
        <pt x="117" y="702" on="1"/>
        <pt x="117" y="903" on="0"/>
        <pt x="204" y="1191" on="0"/>
        <pt x="370" y="1374" on="0"/>
        <pt x="613" y="1460" on="0"/>
        <pt x="769" y="1460" on="1"/>
        <pt x="866" y="1460" on="0"/>
        <pt x="1080" y="1421" on="0"/>
        <pt x="1193" y="1385" on="1"/>
        <pt x="1140" y="1235" on="1"/>
        <pt x="1039" y="1269" on="0"/>
        <pt x="862" y="1303" on="0"/>
        <pt x="772" y="1303" on="1"/>
        <pt x="656" y="1303" on="0"/>
        <pt x="482" y="1235" on="0"/>
        <pt x="367" y="1093" on="0"/>
        <pt x="310" y="873" on="0"/>
        <pt x="310" y="721" on="1"/>
        <pt x="310" y="571" on="0"/>
        <pt x="363" y="349" on="0"/>
        <pt x="473" y="204" on="0"/>
        <pt x="643" y="133" on="0"/>
        <pt x="759" y="133" on="1"/>
        <pt x="841" y="133" on="0"/>
        <pt x="1007" y="167" on="0"/>
        <pt x="1076" y="190" on="1"/>
        <pt x="1076" y="588" on="1"/>
        <pt x="835" y="588" on="1"/>
        <pt x="835" y="739" on="1"/>
        <pt x="1257" y="739" on="1"/>
      </contour>
    </TTGlyph>
    <TTGlyph name="H" xMin="182" yMin="0" xMax="1330" yMax="1438">
      <contour>
        <pt x="1142" y="1438" on="1"/>
        <pt x="1330" y="1438" on="1"/>
        <pt x="1330" y="0" on="1"/>
        <pt x="1142" y="0" on="1"/>
        <pt x="1142" y="713" on="1"/>
        <pt x="370" y="713" on="1"/>
        <pt x="370" y="0" on="1"/>
        <pt x="182" y="0" on="1"/>
        <pt x="182" y="1438" on="1"/>
        <pt x="370" y="1438" on="1"/>
        <pt x="370" y="867" on="1"/>
        <pt x="1142" y="867" on="1"/>
      </contour>
    </TTGlyph>
    <TTGlyph name="Hbar" xMin="100" yMin="0" xMax="1618" yMax="1438">
      <contour>
        <pt x="1254" y="1438" on="1"/>
        <pt x="1442" y="1438" on="1"/>
        <pt x="1442" y="1198" on="1"/>
        <pt x="1618" y="1198" on="1"/>
        <pt x="1618" y="1077" on="1"/>
        <pt x="1442" y="1077" on="1"/>
        <pt x="1442" y="0" on="1"/>
        <pt x="1254" y="0" on="1"/>
        <pt x="1254" y="711" on="1"/>
        <pt x="481" y="711" on="1"/>
        <pt x="481" y="0" on="1"/>
        <pt x="293" y="0" on="1"/>
        <pt x="293" y="1077" on="1"/>
        <pt x="100" y="1077" on="1"/>
        <pt x="100" y="1198" on="1"/>
        <pt x="293" y="1198" on="1"/>
        <pt x="293" y="1438" on="1"/>
        <pt x="481" y="1438" on="1"/>
        <pt x="481" y="1198" on="1"/>
        <pt x="1254" y="1198" on="1"/>
      </contour>
      <contour>
        <pt x="1254" y="867" on="1"/>
        <pt x="1254" y="1077" on="1"/>
        <pt x="481" y="1077" on="1"/>
        <pt x="481" y="867" on="1"/>
      </contour>
    </TTGlyph>
    <TTGlyph name="I" xMin="204" yMin="0" xMax="392" yMax="1438">
      <contour>
        <pt x="204" y="1438" on="1"/>
        <pt x="392" y="1438" on="1"/>
        <pt x="392" y="0" on="1"/>
        <pt x="204" y="0" on="1"/>
      </contour>
    </TTGlyph>
    <TTGlyph name="IJ" xMin="180" yMin="-222" xMax="953" yMax="1438">
      <contour>
        <pt x="180" y="1438" on="1"/>
        <pt x="368" y="1438" on="1"/>
        <pt x="368" y="0" on="1"/>
        <pt x="180" y="0" on="1"/>
      </contour>
      <contour>
        <pt x="953" y="354" on="1"/>
        <pt x="953" y="237" on="0"/>
        <pt x="927" y="73" on="0"/>
        <pt x="868" y="-55" on="0"/>
        <pt x="771" y="-162" on="0"/>
        <pt x="701" y="-222" on="1"/>
        <pt x="672" y="-197" on="0"/>
        <pt x="609" y="-141" on="0"/>
        <pt x="578" y="-109" on="1"/>
        <pt x="632" y="-55" on="0"/>
        <pt x="703" y="26" on="0"/>
        <pt x="746" y="118" on="0"/>
        <pt x="765" y="238" on="0"/>
        <pt x="765" y="330" on="1"/>
        <pt x="765" y="1438" on="1"/>
        <pt x="953" y="1438" on="1"/>
      </contour>
    </TTGlyph>
    <TTGlyph name="Iacute" xMin="204" yMin="0" xMax="544" yMax="2057">
      <contour>
        <pt x="340" y="1833" on="1"/>
        <pt x="289" y="2010" on="1"/>
        <pt x="354" y="2057" on="0"/>
        <pt x="410" y="2057" on="1"/>
        <pt x="472" y="2057" on="0"/>
        <pt x="543" y="1991" on="0"/>
        <pt x="545" y="1894" on="0"/>
        <pt x="526" y="1840" on="1"/>
        <pt x="498" y="1773" on="0"/>
        <pt x="383" y="1571" on="1"/>
        <pt x="261" y="1571" on="1"/>
      </contour>
      <contour>
        <pt x="204" y="1438" on="1"/>
        <pt x="392" y="1438" on="1"/>
        <pt x="392" y="0" on="1"/>
        <pt x="204" y="0" on="1"/>
      </contour>
    </TTGlyph>
    <TTGlyph name="Icircumflex" xMin="-16" yMin="0" xMax="614" yMax="1902">
      <contour>
        <pt x="-16" y="1648" on="1"/>
        <pt x="301" y="1902" on="1"/>
        <pt x="614" y="1648" on="1"/>
        <pt x="543" y="1561" on="1"/>
        <pt x="301" y="1702" on="1"/>
        <pt x="55" y="1561" on="1"/>
      </contour>
      <contour>
        <pt x="204" y="1438" on="1"/>
        <pt x="392" y="1438" on="1"/>
        <pt x="392" y="0" on="1"/>
        <pt x="204" y="0" on="1"/>
      </contour>
    </TTGlyph>
    <TTGlyph name="Idieresis" xMin="-47" yMin="0" xMax="639" yMax="1798">
      <contour>
        <pt x="76" y="1798" on="1"/>
        <pt x="100" y="1798" on="0"/>
        <pt x="144" y="1779" on="0"/>
        <pt x="160" y="1763" on="1"/>
        <pt x="176" y="1747" on="0"/>
        <pt x="195" y="1703" on="0"/>
        <pt x="195" y="1679" on="1"/>
        <pt x="195" y="1653" on="0"/>
        <pt x="176" y="1609" on="0"/>
        <pt x="160" y="1593" on="1"/>
        <pt x="144" y="1577" on="0"/>
        <pt x="100" y="1558" on="0"/>
        <pt x="76" y="1558" on="1"/>
        <pt x="50" y="1558" on="0"/>
        <pt x="6" y="1577" on="0"/>
        <pt x="-11" y="1593" on="1"/>
        <pt x="-47" y="1626" on="0"/>
        <pt x="-47" y="1679" on="1"/>
        <pt x="-47" y="1703" on="0"/>
        <pt x="-28" y="1747" on="0"/>
        <pt x="-11" y="1763" on="1"/>
        <pt x="6" y="1779" on="0"/>
        <pt x="50" y="1798" on="0"/>
      </contour>
      <contour>
        <pt x="518" y="1798" on="1"/>
        <pt x="543" y="1798" on="0"/>
        <pt x="587" y="1779" on="0"/>
        <pt x="604" y="1763" on="1"/>
        <pt x="621" y="1747" on="0"/>
        <pt x="639" y="1703" on="0"/>
        <pt x="639" y="1679" on="1"/>
        <pt x="639" y="1626" on="0"/>
        <pt x="604" y="1593" on="1"/>
        <pt x="587" y="1577" on="0"/>
        <pt x="543" y="1558" on="0"/>
        <pt x="518" y="1558" on="1"/>
        <pt x="494" y="1558" on="0"/>
        <pt x="451" y="1577" on="0"/>
        <pt x="434" y="1593" on="1"/>
        <pt x="417" y="1609" on="0"/>
        <pt x="397" y="1653" on="0"/>
        <pt x="397" y="1679" on="1"/>
        <pt x="397" y="1703" on="0"/>
        <pt x="417" y="1747" on="0"/>
        <pt x="434" y="1763" on="1"/>
        <pt x="451" y="1779" on="0"/>
        <pt x="494" y="1798" on="0"/>
      </contour>
      <contour>
        <pt x="392" y="1438" on="1"/>
        <pt x="392" y="0" on="1"/>
        <pt x="204" y="0" on="1"/>
        <pt x="204" y="1438" on="1"/>
      </contour>
    </TTGlyph>
    <TTGlyph name="Idotaccent" xMin="176" yMin="0" xMax="418" yMax="1808">
      <contour>
        <pt x="297" y="1808" on="1"/>
        <pt x="346" y="1808" on="0"/>
        <pt x="383" y="1773" on="1"/>
        <pt x="418" y="1740" on="0"/>
        <pt x="418" y="1689" on="1"/>
        <pt x="418" y="1636" on="0"/>
        <pt x="383" y="1603" on="1"/>
        <pt x="346" y="1568" on="0"/>
        <pt x="297" y="1568" on="1"/>
        <pt x="250" y="1568" on="0"/>
        <pt x="176" y="1638" on="0"/>
        <pt x="176" y="1689" on="1"/>
        <pt x="176" y="1738" on="0"/>
        <pt x="250" y="1808" on="0"/>
      </contour>
      <contour>
        <pt x="204" y="1438" on="1"/>
        <pt x="392" y="1438" on="1"/>
        <pt x="392" y="0" on="1"/>
        <pt x="204" y="0" on="1"/>
      </contour>
    </TTGlyph>
    <TTGlyph name="Igrave" xMin="84" yMin="0" xMax="393" yMax="2057">
      <contour>
        <pt x="367" y="1571" on="1"/>
        <pt x="245" y="1571" on="1"/>
        <pt x="130" y="1773" on="0"/>
        <pt x="102" y="1840" on="1"/>
        <pt x="83" y="1894" on="0"/>
        <pt x="85" y="1991" on="0"/>
        <pt x="156" y="2057" on="0"/>
        <pt x="218" y="2057" on="1"/>
        <pt x="274" y="2057" on="0"/>
        <pt x="339" y="2010" on="1"/>
        <pt x="288" y="1833" on="1"/>
      </contour>
      <contour>
        <pt x="205" y="1438" on="1"/>
        <pt x="393" y="1438" on="1"/>
        <pt x="393" y="0" on="1"/>
        <pt x="205" y="0" on="1"/>
      </contour>
    </TTGlyph>
    <TTGlyph name="Imacron" xMin="40" yMin="0" xMax="553" yMax="1719">
      <contour>
        <pt x="40" y="1719" on="1"/>
        <pt x="553" y="1719" on="1"/>
        <pt x="553" y="1598" on="1"/>
        <pt x="40" y="1598" on="1"/>
      </contour>
      <contour>
        <pt x="204" y="1438" on="1"/>
        <pt x="392" y="1438" on="1"/>
        <pt x="392" y="0" on="1"/>
        <pt x="204" y="0" on="1"/>
      </contour>
    </TTGlyph>
    <TTGlyph name="Iogonek" xMin="77" yMin="-408" xMax="392" yMax="1438">
      <contour>
        <pt x="392" y="0" on="1"/>
        <pt x="313" y="0" on="1"/>
        <pt x="255" y="-70" on="0"/>
        <pt x="205" y="-157" on="0"/>
        <pt x="205" y="-204" on="1"/>
        <pt x="205" y="-296" on="0"/>
        <pt x="276" y="-296" on="1"/>
        <pt x="313" y="-296" on="0"/>
        <pt x="378" y="-271" on="1"/>
        <pt x="373" y="-361" on="1"/>
        <pt x="302" y="-408" on="0"/>
        <pt x="224" y="-408" on="1"/>
        <pt x="159" y="-408" on="0"/>
        <pt x="77" y="-319" on="0"/>
        <pt x="77" y="-242" on="1"/>
        <pt x="77" y="-206" on="0"/>
        <pt x="92" y="-147" on="0"/>
        <pt x="135" y="-82" on="0"/>
        <pt x="167" y="-43" on="0"/>
        <pt x="206" y="0" on="1"/>
        <pt x="204" y="0" on="1"/>
        <pt x="204" y="1438" on="1"/>
        <pt x="392" y="1438" on="1"/>
      </contour>
    </TTGlyph>
    <TTGlyph name="J" xMin="124" yMin="-227" xMax="545" yMax="1438">
      <contour>
        <pt x="357" y="1438" on="1"/>
        <pt x="545" y="1438" on="1"/>
        <pt x="545" y="429" on="1"/>
        <pt x="545" y="288" on="0"/>
        <pt x="521" y="100" on="0"/>
        <pt x="488" y="28" on="1"/>
        <pt x="415" y="-130" on="0"/>
        <pt x="198" y="-227" on="1"/>
        <pt x="124" y="-119" on="1"/>
        <pt x="224" y="-35" on="0"/>
        <pt x="255" y="0" on="1"/>
        <pt x="280" y="28" on="0"/>
        <pt x="297" y="57" on="1"/>
        <pt x="357" y="158" on="0"/>
        <pt x="357" y="350" on="1"/>
      </contour>
    </TTGlyph>
    <TTGlyph name="K" xMin="184" yMin="0" xMax="1189" yMax="1460">
      <contour>
        <pt x="1014" y="1460" on="1"/>
        <pt x="1141" y="1358" on="1"/>
        <pt x="589" y="704" on="1"/>
        <pt x="1189" y="0" on="1"/>
        <pt x="963" y="0" on="1"/>
        <pt x="372" y="694" on="1"/>
        <pt x="372" y="0" on="1"/>
        <pt x="184" y="0" on="1"/>
        <pt x="184" y="1438" on="1"/>
        <pt x="372" y="1438" on="1"/>
        <pt x="372" y="698" on="1"/>
      </contour>
    </TTGlyph>
    <TTGlyph name="Kcommaaccent" xMin="184" yMin="-613" xMax="1189" yMax="1460">
      <contour>
        <pt x="1014" y="1460" on="1"/>
        <pt x="1141" y="1358" on="1"/>
        <pt x="589" y="704" on="1"/>
        <pt x="1189" y="0" on="1"/>
        <pt x="963" y="0" on="1"/>
        <pt x="372" y="694" on="1"/>
        <pt x="372" y="0" on="1"/>
        <pt x="184" y="0" on="1"/>
        <pt x="184" y="1438" on="1"/>
        <pt x="372" y="1438" on="1"/>
        <pt x="372" y="698" on="1"/>
      </contour>
      <contour>
        <pt x="543" y="-174" on="1"/>
        <pt x="581" y="-147" on="0"/>
        <pt x="636" y="-127" on="0"/>
        <pt x="664" y="-127" on="1"/>
        <pt x="713" y="-127" on="0"/>
        <pt x="773" y="-166" on="0"/>
        <pt x="800" y="-227" on="0"/>
        <pt x="796" y="-305" on="0"/>
        <pt x="780" y="-344" on="1"/>
        <pt x="769" y="-370" on="0"/>
        <pt x="733" y="-440" on="0"/>
        <pt x="693" y="-515" on="0"/>
        <pt x="652" y="-587" on="0"/>
        <pt x="637" y="-613" on="1"/>
        <pt x="515" y="-613" on="1"/>
        <pt x="594" y="-351" on="1"/>
      </contour>
    </TTGlyph>
    <TTGlyph name="L" xMin="195" yMin="0" xMax="972" yMax="1438">
      <contour>
        <pt x="195" y="1438" on="1"/>
        <pt x="383" y="1438" on="1"/>
        <pt x="383" y="154" on="1"/>
        <pt x="972" y="154" on="1"/>
        <pt x="972" y="0" on="1"/>
        <pt x="195" y="0" on="1"/>
      </contour>
    </TTGlyph>
    <TTGlyph name="Lacute" xMin="195" yMin="0" xMax="972" yMax="2057">
      <contour>
        <pt x="332" y="1833" on="1"/>
        <pt x="281" y="2010" on="1"/>
        <pt x="346" y="2057" on="0"/>
        <pt x="402" y="2057" on="1"/>
        <pt x="464" y="2057" on="0"/>
        <pt x="535" y="1991" on="0"/>
        <pt x="537" y="1894" on="0"/>
        <pt x="518" y="1840" on="1"/>
        <pt x="490" y="1773" on="0"/>
        <pt x="375" y="1571" on="1"/>
        <pt x="253" y="1571" on="1"/>
      </contour>
      <contour>
        <pt x="195" y="1438" on="1"/>
        <pt x="383" y="1438" on="1"/>
        <pt x="383" y="154" on="1"/>
        <pt x="972" y="154" on="1"/>
        <pt x="972" y="0" on="1"/>
        <pt x="195" y="0" on="1"/>
      </contour>
    </TTGlyph>
    <TTGlyph name="Lcaron" xMin="195" yMin="0" xMax="1009" yMax="1460">
      <contour>
        <pt x="805" y="1236" on="1"/>
        <pt x="754" y="1413" on="1"/>
        <pt x="819" y="1460" on="0"/>
        <pt x="875" y="1460" on="1"/>
        <pt x="937" y="1460" on="0"/>
        <pt x="1008" y="1394" on="0"/>
        <pt x="1010" y="1297" on="0"/>
        <pt x="991" y="1243" on="1"/>
        <pt x="963" y="1176" on="0"/>
        <pt x="848" y="974" on="1"/>
        <pt x="726" y="974" on="1"/>
      </contour>
      <contour>
        <pt x="195" y="1438" on="1"/>
        <pt x="383" y="1438" on="1"/>
        <pt x="383" y="154" on="1"/>
        <pt x="972" y="154" on="1"/>
        <pt x="972" y="0" on="1"/>
        <pt x="195" y="0" on="1"/>
      </contour>
    </TTGlyph>
    <TTGlyph name="Lcommaaccent" xMin="195" yMin="-622" xMax="972" yMax="1438">
      <contour>
        <pt x="195" y="1438" on="1"/>
        <pt x="383" y="1438" on="1"/>
        <pt x="383" y="154" on="1"/>
        <pt x="972" y="154" on="1"/>
        <pt x="972" y="0" on="1"/>
        <pt x="195" y="0" on="1"/>
      </contour>
      <contour>
        <pt x="499" y="-360" on="1"/>
        <pt x="448" y="-183" on="1"/>
        <pt x="513" y="-136" on="0"/>
        <pt x="569" y="-136" on="1"/>
        <pt x="631" y="-136" on="0"/>
        <pt x="702" y="-202" on="0"/>
        <pt x="704" y="-299" on="0"/>
        <pt x="685" y="-353" on="1"/>
        <pt x="657" y="-420" on="0"/>
        <pt x="542" y="-622" on="1"/>
        <pt x="420" y="-622" on="1"/>
      </contour>
    </TTGlyph>
    <TTGlyph name="Ldot" xMin="150" yMin="0" xMax="927" yMax="1438">
      <contour>
        <pt x="927" y="0" on="1"/>
        <pt x="150" y="0" on="1"/>
        <pt x="150" y="1438" on="1"/>
        <pt x="338" y="1438" on="1"/>
        <pt x="338" y="154" on="1"/>
        <pt x="927" y="154" on="1"/>
      </contour>
      <contour>
        <pt x="685" y="923" on="1"/>
        <pt x="710" y="923" on="0"/>
        <pt x="754" y="904" on="0"/>
        <pt x="787" y="872" on="0"/>
        <pt x="806" y="829" on="0"/>
        <pt x="806" y="804" on="1"/>
        <pt x="806" y="777" on="0"/>
        <pt x="786" y="732" on="0"/>
        <pt x="753" y="701" on="0"/>
        <pt x="709" y="683" on="0"/>
        <pt x="685" y="683" on="1"/>
        <pt x="661" y="683" on="0"/>
        <pt x="617" y="702" on="0"/>
        <pt x="584" y="735" on="0"/>
        <pt x="564" y="779" on="0"/>
        <pt x="564" y="804" on="1"/>
        <pt x="564" y="829" on="0"/>
        <pt x="585" y="872" on="0"/>
        <pt x="619" y="904" on="0"/>
        <pt x="662" y="923" on="0"/>
      </contour>
    </TTGlyph>
    <TTGlyph name="Lslash" xMin="0" yMin="0" xMax="983" yMax="1438">
      <contour>
        <pt x="394" y="156" on="1"/>
        <pt x="983" y="156" on="1"/>
        <pt x="983" y="0" on="1"/>
        <pt x="206" y="0" on="1"/>
        <pt x="206" y="639" on="1"/>
        <pt x="0" y="528" on="1"/>
        <pt x="0" y="679" on="1"/>
        <pt x="206" y="790" on="1"/>
        <pt x="206" y="1438" on="1"/>
        <pt x="394" y="1438" on="1"/>
        <pt x="394" y="890" on="1"/>
        <pt x="738" y="1074" on="1"/>
        <pt x="738" y="923" on="1"/>
        <pt x="394" y="739" on="1"/>
      </contour>
    </TTGlyph>
    <TTGlyph name="M" xMin="95" yMin="0" xMax="1799" yMax="1437">
      <contour>
        <pt x="1347" y="1437" on="1"/>
        <pt x="1626" y="1437" on="1"/>
        <pt x="1799" y="0" on="1"/>
        <pt x="1616" y="0" on="1"/>
        <pt x="1466" y="1210" on="1"/>
        <pt x="1456" y="1210" on="1"/>
        <pt x="1059" y="0" on="1"/>
        <pt x="835" y="0" on="1"/>
        <pt x="438" y="1210" on="1"/>
        <pt x="428" y="1210" on="1"/>
        <pt x="278" y="0" on="1"/>
        <pt x="95" y="0" on="1"/>
        <pt x="268" y="1437" on="1"/>
        <pt x="547" y="1437" on="1"/>
        <pt x="947" y="192" on="1"/>
      </contour>
    </TTGlyph>
    <TTGlyph name="N" xMin="178" yMin="-10" xMax="1351" yMax="1438">
      <contour>
        <pt x="1351" y="-10" on="1"/>
        <pt x="1131" y="-10" on="1"/>
        <pt x="366" y="1192" on="1"/>
        <pt x="366" y="0" on="1"/>
        <pt x="178" y="0" on="1"/>
        <pt x="178" y="1438" on="1"/>
        <pt x="398" y="1438" on="1"/>
        <pt x="1163" y="236" on="1"/>
        <pt x="1163" y="1438" on="1"/>
        <pt x="1351" y="1438" on="1"/>
      </contour>
    </TTGlyph>
    <TTGlyph name="Nacute" xMin="178" yMin="-10" xMax="1351" yMax="2057">
      <contour>
        <pt x="792" y="1833" on="1"/>
        <pt x="741" y="2010" on="1"/>
        <pt x="806" y="2057" on="0"/>
        <pt x="862" y="2057" on="1"/>
        <pt x="924" y="2057" on="0"/>
        <pt x="995" y="1991" on="0"/>
        <pt x="997" y="1894" on="0"/>
        <pt x="978" y="1840" on="1"/>
        <pt x="950" y="1773" on="0"/>
        <pt x="835" y="1571" on="1"/>
        <pt x="713" y="1571" on="1"/>
      </contour>
      <contour>
        <pt x="1351" y="-10" on="1"/>
        <pt x="1131" y="-10" on="1"/>
        <pt x="366" y="1192" on="1"/>
        <pt x="366" y="0" on="1"/>
        <pt x="178" y="0" on="1"/>
        <pt x="178" y="1438" on="1"/>
        <pt x="398" y="1438" on="1"/>
        <pt x="1163" y="236" on="1"/>
        <pt x="1163" y="1438" on="1"/>
        <pt x="1351" y="1438" on="1"/>
      </contour>
    </TTGlyph>
    <TTGlyph name="Ncaron" xMin="178" yMin="-10" xMax="1351" yMax="1902">
      <contour>
        <pt x="768" y="1761" on="1"/>
        <pt x="1010" y="1902" on="1"/>
        <pt x="1081" y="1815" on="1"/>
        <pt x="768" y="1561" on="1"/>
        <pt x="451" y="1815" on="1"/>
        <pt x="522" y="1902" on="1"/>
      </contour>
      <contour>
        <pt x="1351" y="-10" on="1"/>
        <pt x="1131" y="-10" on="1"/>
        <pt x="366" y="1192" on="1"/>
        <pt x="366" y="0" on="1"/>
        <pt x="178" y="0" on="1"/>
        <pt x="178" y="1438" on="1"/>
        <pt x="398" y="1438" on="1"/>
        <pt x="1163" y="236" on="1"/>
        <pt x="1163" y="1438" on="1"/>
        <pt x="1351" y="1438" on="1"/>
      </contour>
    </TTGlyph>
    <TTGlyph name="Ncommaaccent" xMin="178" yMin="-622" xMax="1351" yMax="1438">
      <contour>
        <pt x="1351" y="-10" on="1"/>
        <pt x="1131" y="-10" on="1"/>
        <pt x="366" y="1192" on="1"/>
        <pt x="366" y="0" on="1"/>
        <pt x="178" y="0" on="1"/>
        <pt x="178" y="1438" on="1"/>
        <pt x="398" y="1438" on="1"/>
        <pt x="1163" y="236" on="1"/>
        <pt x="1163" y="1438" on="1"/>
        <pt x="1351" y="1438" on="1"/>
      </contour>
      <contour>
        <pt x="668" y="-360" on="1"/>
        <pt x="617" y="-183" on="1"/>
        <pt x="682" y="-136" on="0"/>
        <pt x="738" y="-136" on="1"/>
        <pt x="800" y="-136" on="0"/>
        <pt x="871" y="-202" on="0"/>
        <pt x="873" y="-299" on="0"/>
        <pt x="854" y="-353" on="1"/>
        <pt x="826" y="-420" on="0"/>
        <pt x="711" y="-622" on="1"/>
        <pt x="589" y="-622" on="1"/>
      </contour>
    </TTGlyph>
    <TTGlyph name="Ntilde" xMin="178" yMin="-10" xMax="1351" yMax="1778">
      <contour>
        <pt x="1019" y="1778" on="1"/>
        <pt x="1119" y="1778" on="1"/>
        <pt x="1104" y="1683" on="0"/>
        <pt x="1061" y="1632" on="1"/>
        <pt x="1008" y="1571" on="0"/>
        <pt x="920" y="1571" on="1"/>
        <pt x="880" y="1571" on="0"/>
        <pt x="700" y="1639" on="0"/>
        <pt x="662" y="1639" on="1"/>
        <pt x="631" y="1639" on="0"/>
        <pt x="587" y="1589" on="0"/>
        <pt x="587" y="1563" on="1"/>
        <pt x="484" y="1563" on="1"/>
        <pt x="496" y="1643" on="0"/>
        <pt x="542" y="1700" on="1"/>
        <pt x="595" y="1768" on="0"/>
        <pt x="671" y="1768" on="1"/>
        <pt x="719" y="1768" on="0"/>
        <pt x="891" y="1698" on="0"/>
        <pt x="929" y="1698" on="1"/>
        <pt x="997" y="1698" on="0"/>
      </contour>
      <contour>
        <pt x="1351" y="-10" on="1"/>
        <pt x="1131" y="-10" on="1"/>
        <pt x="366" y="1192" on="1"/>
        <pt x="366" y="0" on="1"/>
        <pt x="178" y="0" on="1"/>
        <pt x="178" y="1438" on="1"/>
        <pt x="398" y="1438" on="1"/>
        <pt x="1163" y="236" on="1"/>
        <pt x="1163" y="1438" on="1"/>
        <pt x="1351" y="1438" on="1"/>
      </contour>
    </TTGlyph>
    <TTGlyph name="O" xMin="110" yMin="-24" xMax="1372" yMax="1460">
      <contour>
        <pt x="1372" y="719" on="1"/>
        <pt x="1372" y="358" on="0"/>
        <pt x="1046" y="-24" on="0"/>
        <pt x="741" y="-24" on="1"/>
        <pt x="439" y="-24" on="0"/>
        <pt x="110" y="357" on="0"/>
        <pt x="110" y="719" on="1"/>
        <pt x="110" y="1080" on="0"/>
        <pt x="440" y="1460" on="0"/>
        <pt x="741" y="1460" on="1"/>
        <pt x="1046" y="1460" on="0"/>
        <pt x="1372" y="1077" on="0"/>
      </contour>
      <contour>
        <pt x="1179" y="719" on="1"/>
        <pt x="1179" y="997" on="0"/>
        <pt x="960" y="1303" on="0"/>
        <pt x="740" y="1303" on="1"/>
        <pt x="519" y="1303" on="0"/>
        <pt x="303" y="994" on="0"/>
        <pt x="303" y="719" on="1"/>
        <pt x="303" y="584" on="0"/>
        <pt x="354" y="371" on="0"/>
        <pt x="459" y="216" on="0"/>
        <pt x="628" y="133" on="0"/>
        <pt x="740" y="133" on="1"/>
        <pt x="960" y="133" on="0"/>
        <pt x="1179" y="440" on="0"/>
      </contour>
    </TTGlyph>
    <TTGlyph name="OE" xMin="120" yMin="-23" xMax="1854" yMax="1461">
      <contour>
        <pt x="1034" y="1385" on="1"/>
        <pt x="1034" y="1438" on="1"/>
        <pt x="1832" y="1438" on="1"/>
        <pt x="1832" y="1284" on="1"/>
        <pt x="1222" y="1284" on="1"/>
        <pt x="1222" y="887" on="1"/>
        <pt x="1654" y="887" on="1"/>
        <pt x="1654" y="731" on="1"/>
        <pt x="1222" y="731" on="1"/>
        <pt x="1222" y="154" on="1"/>
        <pt x="1854" y="154" on="1"/>
        <pt x="1854" y="0" on="1"/>
        <pt x="1034" y="0" on="1"/>
        <pt x="1034" y="53" on="1"/>
        <pt x="920" y="-23" on="0"/>
        <pt x="751" y="-23" on="1"/>
        <pt x="594" y="-23" on="0"/>
        <pt x="469" y="33" on="1"/>
        <pt x="311" y="104" on="0"/>
        <pt x="225" y="254" on="1"/>
        <pt x="120" y="436" on="0"/>
        <pt x="120" y="724" on="1"/>
        <pt x="120" y="1010" on="0"/>
        <pt x="225" y="1189" on="1"/>
        <pt x="313" y="1339" on="0"/>
        <pt x="469" y="1408" on="1"/>
        <pt x="594" y="1461" on="0"/>
        <pt x="751" y="1461" on="1"/>
        <pt x="920" y="1461" on="0"/>
      </contour>
      <contour>
        <pt x="1034" y="235" on="1"/>
        <pt x="1034" y="1205" on="1"/>
        <pt x="925" y="1304" on="0"/>
        <pt x="751" y="1304" on="1"/>
        <pt x="556" y="1304" on="0"/>
        <pt x="444" y="1180" on="1"/>
        <pt x="312" y="1033" on="0"/>
        <pt x="312" y="724" on="1"/>
        <pt x="312" y="411" on="0"/>
        <pt x="444" y="261" on="1"/>
        <pt x="557" y="133" on="0"/>
        <pt x="751" y="133" on="1"/>
        <pt x="926" y="133" on="0"/>
      </contour>
    </TTGlyph>
    <TTGlyph name="Oacute" xMin="110" yMin="-24" xMax="1372" yMax="2057">
      <contour>
        <pt x="757" y="1833" on="1"/>
        <pt x="706" y="2010" on="1"/>
        <pt x="771" y="2057" on="0"/>
        <pt x="827" y="2057" on="1"/>
        <pt x="889" y="2057" on="0"/>
        <pt x="960" y="1991" on="0"/>
        <pt x="962" y="1894" on="0"/>
        <pt x="943" y="1840" on="1"/>
        <pt x="915" y="1773" on="0"/>
        <pt x="800" y="1571" on="1"/>
        <pt x="678" y="1571" on="1"/>
      </contour>
      <contour>
        <pt x="1372" y="719" on="1"/>
        <pt x="1372" y="358" on="0"/>
        <pt x="1046" y="-24" on="0"/>
        <pt x="741" y="-24" on="1"/>
        <pt x="439" y="-24" on="0"/>
        <pt x="110" y="357" on="0"/>
        <pt x="110" y="719" on="1"/>
        <pt x="110" y="1080" on="0"/>
        <pt x="440" y="1460" on="0"/>
        <pt x="741" y="1460" on="1"/>
        <pt x="1046" y="1460" on="0"/>
        <pt x="1372" y="1077" on="0"/>
      </contour>
      <contour>
        <pt x="1179" y="719" on="1"/>
        <pt x="1179" y="997" on="0"/>
        <pt x="960" y="1303" on="0"/>
        <pt x="740" y="1303" on="1"/>
        <pt x="519" y="1303" on="0"/>
        <pt x="303" y="994" on="0"/>
        <pt x="303" y="719" on="1"/>
        <pt x="303" y="584" on="0"/>
        <pt x="354" y="371" on="0"/>
        <pt x="459" y="216" on="0"/>
        <pt x="628" y="133" on="0"/>
        <pt x="740" y="133" on="1"/>
        <pt x="960" y="133" on="0"/>
        <pt x="1179" y="440" on="0"/>
      </contour>
    </TTGlyph>
    <TTGlyph name="Ocircumflex" xMin="110" yMin="-24" xMax="1372" yMax="1902">
      <contour>
        <pt x="430" y="1648" on="1"/>
        <pt x="747" y="1902" on="1"/>
        <pt x="1060" y="1648" on="1"/>
        <pt x="989" y="1561" on="1"/>
        <pt x="747" y="1702" on="1"/>
        <pt x="501" y="1561" on="1"/>
      </contour>
      <contour>
        <pt x="1372" y="719" on="1"/>
        <pt x="1372" y="358" on="0"/>
        <pt x="1046" y="-24" on="0"/>
        <pt x="741" y="-24" on="1"/>
        <pt x="439" y="-24" on="0"/>
        <pt x="110" y="357" on="0"/>
        <pt x="110" y="719" on="1"/>
        <pt x="110" y="1080" on="0"/>
        <pt x="440" y="1460" on="0"/>
        <pt x="741" y="1460" on="1"/>
        <pt x="1046" y="1460" on="0"/>
        <pt x="1372" y="1077" on="0"/>
      </contour>
      <contour>
        <pt x="1179" y="719" on="1"/>
        <pt x="1179" y="997" on="0"/>
        <pt x="960" y="1303" on="0"/>
        <pt x="740" y="1303" on="1"/>
        <pt x="519" y="1303" on="0"/>
        <pt x="303" y="994" on="0"/>
        <pt x="303" y="719" on="1"/>
        <pt x="303" y="584" on="0"/>
        <pt x="354" y="371" on="0"/>
        <pt x="459" y="216" on="0"/>
        <pt x="628" y="133" on="0"/>
        <pt x="740" y="133" on="1"/>
        <pt x="960" y="133" on="0"/>
        <pt x="1179" y="440" on="0"/>
      </contour>
    </TTGlyph>
    <TTGlyph name="Odieresis" xMin="110" yMin="-24" xMax="1372" yMax="1798">
      <contour>
        <pt x="520" y="1798" on="1"/>
        <pt x="544" y="1798" on="0"/>
        <pt x="588" y="1779" on="0"/>
        <pt x="604" y="1763" on="1"/>
        <pt x="620" y="1747" on="0"/>
        <pt x="639" y="1703" on="0"/>
        <pt x="639" y="1679" on="1"/>
        <pt x="639" y="1653" on="0"/>
        <pt x="620" y="1609" on="0"/>
        <pt x="604" y="1593" on="1"/>
        <pt x="588" y="1577" on="0"/>
        <pt x="544" y="1558" on="0"/>
        <pt x="520" y="1558" on="1"/>
        <pt x="494" y="1558" on="0"/>
        <pt x="450" y="1577" on="0"/>
        <pt x="433" y="1593" on="1"/>
        <pt x="397" y="1626" on="0"/>
        <pt x="397" y="1679" on="1"/>
        <pt x="397" y="1703" on="0"/>
        <pt x="416" y="1747" on="0"/>
        <pt x="433" y="1763" on="1"/>
        <pt x="450" y="1779" on="0"/>
        <pt x="494" y="1798" on="0"/>
      </contour>
      <contour>
        <pt x="962" y="1798" on="1"/>
        <pt x="987" y="1798" on="0"/>
        <pt x="1031" y="1779" on="0"/>
        <pt x="1048" y="1763" on="1"/>
        <pt x="1065" y="1747" on="0"/>
        <pt x="1083" y="1703" on="0"/>
        <pt x="1083" y="1679" on="1"/>
        <pt x="1083" y="1626" on="0"/>
        <pt x="1048" y="1593" on="1"/>
        <pt x="1031" y="1577" on="0"/>
        <pt x="987" y="1558" on="0"/>
        <pt x="962" y="1558" on="1"/>
        <pt x="938" y="1558" on="0"/>
        <pt x="895" y="1577" on="0"/>
        <pt x="878" y="1593" on="1"/>
        <pt x="861" y="1609" on="0"/>
        <pt x="841" y="1653" on="0"/>
        <pt x="841" y="1679" on="1"/>
        <pt x="841" y="1703" on="0"/>
        <pt x="861" y="1747" on="0"/>
        <pt x="878" y="1763" on="1"/>
        <pt x="895" y="1779" on="0"/>
        <pt x="938" y="1798" on="0"/>
      </contour>
      <contour>
        <pt x="1372" y="719" on="1"/>
        <pt x="1372" y="538" on="0"/>
        <pt x="1289" y="260" on="0"/>
        <pt x="1128" y="72" on="0"/>
        <pt x="893" y="-24" on="0"/>
        <pt x="741" y="-24" on="1"/>
        <pt x="592" y="-24" on="0"/>
        <pt x="357" y="71" on="0"/>
        <pt x="195" y="258" on="0"/>
        <pt x="110" y="536" on="0"/>
        <pt x="110" y="719" on="1"/>
        <pt x="110" y="901" on="0"/>
        <pt x="195" y="1178" on="0"/>
        <pt x="357" y="1365" on="0"/>
        <pt x="592" y="1460" on="0"/>
        <pt x="741" y="1460" on="1"/>
        <pt x="894" y="1460" on="0"/>
        <pt x="1129" y="1363" on="0"/>
        <pt x="1289" y="1174" on="0"/>
        <pt x="1372" y="898" on="0"/>
      </contour>
      <contour>
        <pt x="1179" y="719" on="1"/>
        <pt x="1179" y="854" on="0"/>
        <pt x="1126" y="1071" on="0"/>
        <pt x="1018" y="1222" on="0"/>
        <pt x="852" y="1303" on="0"/>
        <pt x="740" y="1303" on="1"/>
        <pt x="626" y="1303" on="0"/>
        <pt x="460" y="1220" on="0"/>
        <pt x="354" y="1067" on="0"/>
        <pt x="303" y="851" on="0"/>
        <pt x="303" y="719" on="1"/>
        <pt x="303" y="586" on="0"/>
        <pt x="354" y="369" on="0"/>
        <pt x="460" y="216" on="0"/>
        <pt x="626" y="133" on="0"/>
        <pt x="740" y="133" on="1"/>
        <pt x="852" y="133" on="0"/>
        <pt x="1018" y="214" on="0"/>
        <pt x="1126" y="366" on="0"/>
        <pt x="1179" y="583" on="0"/>
      </contour>
    </TTGlyph>
    <TTGlyph name="Ograve" xMin="110" yMin="-24" xMax="1372" yMax="2057">
      <contour>
        <pt x="827" y="1571" on="1"/>
        <pt x="705" y="1571" on="1"/>
        <pt x="590" y="1773" on="0"/>
        <pt x="562" y="1840" on="1"/>
        <pt x="543" y="1894" on="0"/>
        <pt x="545" y="1991" on="0"/>
        <pt x="616" y="2057" on="0"/>
        <pt x="678" y="2057" on="1"/>
        <pt x="734" y="2057" on="0"/>
        <pt x="799" y="2010" on="1"/>
        <pt x="748" y="1833" on="1"/>
      </contour>
      <contour>
        <pt x="1372" y="719" on="1"/>
        <pt x="1372" y="358" on="0"/>
        <pt x="1046" y="-24" on="0"/>
        <pt x="741" y="-24" on="1"/>
        <pt x="439" y="-24" on="0"/>
        <pt x="110" y="357" on="0"/>
        <pt x="110" y="719" on="1"/>
        <pt x="110" y="1080" on="0"/>
        <pt x="440" y="1460" on="0"/>
        <pt x="741" y="1460" on="1"/>
        <pt x="1046" y="1460" on="0"/>
        <pt x="1372" y="1077" on="0"/>
      </contour>
      <contour>
        <pt x="1179" y="719" on="1"/>
        <pt x="1179" y="997" on="0"/>
        <pt x="960" y="1303" on="0"/>
        <pt x="740" y="1303" on="1"/>
        <pt x="519" y="1303" on="0"/>
        <pt x="303" y="994" on="0"/>
        <pt x="303" y="719" on="1"/>
        <pt x="303" y="584" on="0"/>
        <pt x="354" y="371" on="0"/>
        <pt x="459" y="216" on="0"/>
        <pt x="628" y="133" on="0"/>
        <pt x="740" y="133" on="1"/>
        <pt x="960" y="133" on="0"/>
        <pt x="1179" y="440" on="0"/>
      </contour>
    </TTGlyph>
    <TTGlyph name="Ohungarumlaut" xMin="110" yMin="-24" xMax="1372" yMax="2057">
      <contour>
        <pt x="574" y="1833" on="1"/>
        <pt x="523" y="2010" on="1"/>
        <pt x="588" y="2057" on="0"/>
        <pt x="644" y="2057" on="1"/>
        <pt x="706" y="2057" on="0"/>
        <pt x="777" y="1991" on="0"/>
        <pt x="779" y="1894" on="0"/>
        <pt x="760" y="1840" on="1"/>
        <pt x="732" y="1773" on="0"/>
        <pt x="617" y="1571" on="1"/>
        <pt x="495" y="1571" on="1"/>
      </contour>
      <contour>
        <pt x="938" y="1833" on="1"/>
        <pt x="887" y="2010" on="1"/>
        <pt x="952" y="2057" on="0"/>
        <pt x="1008" y="2057" on="1"/>
        <pt x="1070" y="2057" on="0"/>
        <pt x="1141" y="1991" on="0"/>
        <pt x="1143" y="1894" on="0"/>
        <pt x="1124" y="1840" on="1"/>
        <pt x="1096" y="1773" on="0"/>
        <pt x="981" y="1571" on="1"/>
        <pt x="859" y="1571" on="1"/>
      </contour>
      <contour>
        <pt x="1372" y="719" on="1"/>
        <pt x="1372" y="358" on="0"/>
        <pt x="1046" y="-24" on="0"/>
        <pt x="741" y="-24" on="1"/>
        <pt x="439" y="-24" on="0"/>
        <pt x="110" y="357" on="0"/>
        <pt x="110" y="719" on="1"/>
        <pt x="110" y="1080" on="0"/>
        <pt x="440" y="1460" on="0"/>
        <pt x="741" y="1460" on="1"/>
        <pt x="1046" y="1460" on="0"/>
        <pt x="1372" y="1077" on="0"/>
      </contour>
      <contour>
        <pt x="1179" y="719" on="1"/>
        <pt x="1179" y="997" on="0"/>
        <pt x="960" y="1303" on="0"/>
        <pt x="740" y="1303" on="1"/>
        <pt x="519" y="1303" on="0"/>
        <pt x="303" y="994" on="0"/>
        <pt x="303" y="719" on="1"/>
        <pt x="303" y="584" on="0"/>
        <pt x="354" y="371" on="0"/>
        <pt x="459" y="216" on="0"/>
        <pt x="628" y="133" on="0"/>
        <pt x="740" y="133" on="1"/>
        <pt x="960" y="133" on="0"/>
        <pt x="1179" y="440" on="0"/>
      </contour>
    </TTGlyph>
    <TTGlyph name="Omacron" xMin="110" yMin="-24" xMax="1372" yMax="1719">
      <contour>
        <pt x="484" y="1719" on="1"/>
        <pt x="997" y="1719" on="1"/>
        <pt x="997" y="1598" on="1"/>
        <pt x="484" y="1598" on="1"/>
      </contour>
      <contour>
        <pt x="1372" y="719" on="1"/>
        <pt x="1372" y="358" on="0"/>
        <pt x="1046" y="-24" on="0"/>
        <pt x="741" y="-24" on="1"/>
        <pt x="439" y="-24" on="0"/>
        <pt x="110" y="357" on="0"/>
        <pt x="110" y="719" on="1"/>
        <pt x="110" y="1080" on="0"/>
        <pt x="440" y="1460" on="0"/>
        <pt x="741" y="1460" on="1"/>
        <pt x="1046" y="1460" on="0"/>
        <pt x="1372" y="1077" on="0"/>
      </contour>
      <contour>
        <pt x="1179" y="719" on="1"/>
        <pt x="1179" y="997" on="0"/>
        <pt x="960" y="1303" on="0"/>
        <pt x="740" y="1303" on="1"/>
        <pt x="519" y="1303" on="0"/>
        <pt x="303" y="994" on="0"/>
        <pt x="303" y="719" on="1"/>
        <pt x="303" y="584" on="0"/>
        <pt x="354" y="371" on="0"/>
        <pt x="459" y="216" on="0"/>
        <pt x="628" y="133" on="0"/>
        <pt x="740" y="133" on="1"/>
        <pt x="960" y="133" on="0"/>
        <pt x="1179" y="440" on="0"/>
      </contour>
    </TTGlyph>
    <TTGlyph name="Oslash" xMin="110" yMin="-24" xMax="1372" yMax="1460">
      <contour>
        <pt x="1192" y="1438" on="1"/>
        <pt x="1141" y="1335" on="1"/>
        <pt x="1372" y="1148" on="0"/>
        <pt x="1372" y="719" on="1"/>
        <pt x="1372" y="358" on="0"/>
        <pt x="1046" y="-24" on="0"/>
        <pt x="741" y="-24" on="1"/>
        <pt x="602" y="-24" on="0"/>
        <pt x="491" y="17" on="1"/>
        <pt x="482" y="0" on="1"/>
        <pt x="323" y="0" on="1"/>
        <pt x="364" y="84" on="1"/>
        <pt x="110" y="267" on="0"/>
        <pt x="110" y="719" on="1"/>
        <pt x="110" y="1080" on="0"/>
        <pt x="440" y="1460" on="0"/>
        <pt x="741" y="1460" on="1"/>
        <pt x="897" y="1460" on="0"/>
        <pt x="1018" y="1408" on="1"/>
        <pt x="1033" y="1438" on="1"/>
      </contour>
      <contour>
        <pt x="445" y="247" on="1"/>
        <pt x="944" y="1258" on="1"/>
        <pt x="856" y="1303" on="0"/>
        <pt x="740" y="1303" on="1"/>
        <pt x="519" y="1303" on="0"/>
        <pt x="303" y="994" on="0"/>
        <pt x="303" y="719" on="1"/>
        <pt x="303" y="395" on="0"/>
      </contour>
      <contour>
        <pt x="1057" y="1165" on="1"/>
        <pt x="564" y="165" on="1"/>
        <pt x="640" y="133" on="0"/>
        <pt x="740" y="133" on="1"/>
        <pt x="960" y="133" on="0"/>
        <pt x="1179" y="440" on="0"/>
        <pt x="1179" y="719" on="1"/>
        <pt x="1179" y="1017" on="0"/>
      </contour>
    </TTGlyph>
    <TTGlyph name="Otilde" xMin="110" yMin="-24" xMax="1372" yMax="1778">
      <contour>
        <pt x="943" y="1778" on="1"/>
        <pt x="1043" y="1778" on="1"/>
        <pt x="1028" y="1683" on="0"/>
        <pt x="985" y="1632" on="1"/>
        <pt x="932" y="1571" on="0"/>
        <pt x="844" y="1571" on="1"/>
        <pt x="804" y="1571" on="0"/>
        <pt x="624" y="1639" on="0"/>
        <pt x="586" y="1639" on="1"/>
        <pt x="555" y="1639" on="0"/>
        <pt x="511" y="1589" on="0"/>
        <pt x="511" y="1563" on="1"/>
        <pt x="408" y="1563" on="1"/>
        <pt x="420" y="1643" on="0"/>
        <pt x="466" y="1700" on="1"/>
        <pt x="519" y="1768" on="0"/>
        <pt x="595" y="1768" on="1"/>
        <pt x="643" y="1768" on="0"/>
        <pt x="815" y="1698" on="0"/>
        <pt x="853" y="1698" on="1"/>
        <pt x="921" y="1698" on="0"/>
      </contour>
      <contour>
        <pt x="1372" y="719" on="1"/>
        <pt x="1372" y="358" on="0"/>
        <pt x="1046" y="-24" on="0"/>
        <pt x="741" y="-24" on="1"/>
        <pt x="439" y="-24" on="0"/>
        <pt x="110" y="357" on="0"/>
        <pt x="110" y="719" on="1"/>
        <pt x="110" y="1080" on="0"/>
        <pt x="440" y="1460" on="0"/>
        <pt x="741" y="1460" on="1"/>
        <pt x="1046" y="1460" on="0"/>
        <pt x="1372" y="1077" on="0"/>
      </contour>
      <contour>
        <pt x="1179" y="719" on="1"/>
        <pt x="1179" y="997" on="0"/>
        <pt x="960" y="1303" on="0"/>
        <pt x="740" y="1303" on="1"/>
        <pt x="519" y="1303" on="0"/>
        <pt x="303" y="994" on="0"/>
        <pt x="303" y="719" on="1"/>
        <pt x="303" y="584" on="0"/>
        <pt x="354" y="371" on="0"/>
        <pt x="459" y="216" on="0"/>
        <pt x="628" y="133" on="0"/>
        <pt x="740" y="133" on="1"/>
        <pt x="960" y="133" on="0"/>
        <pt x="1179" y="440" on="0"/>
      </contour>
    </TTGlyph>
    <TTGlyph name="P" xMin="185" yMin="0" xMax="1106" yMax="1438">
      <contour>
        <pt x="635" y="1438" on="1"/>
        <pt x="734" y="1438" on="0"/>
        <pt x="906" y="1395" on="0"/>
        <pt x="1033" y="1298" on="0"/>
        <pt x="1106" y="1142" on="0"/>
        <pt x="1106" y="1030" on="1"/>
        <pt x="1106" y="905" on="0"/>
        <pt x="1022" y="747" on="0"/>
        <pt x="879" y="655" on="0"/>
        <pt x="690" y="621" on="0"/>
        <pt x="585" y="621" on="1"/>
        <pt x="528" y="621" on="0"/>
        <pt x="419" y="629" on="0"/>
        <pt x="371" y="634" on="1"/>
        <pt x="371" y="0" on="1"/>
        <pt x="185" y="0" on="1"/>
        <pt x="185" y="1438" on="1"/>
      </contour>
      <contour>
        <pt x="371" y="784" on="1"/>
        <pt x="419" y="778" on="0"/>
        <pt x="524" y="771" on="0"/>
        <pt x="577" y="771" on="1"/>
        <pt x="653" y="771" on="0"/>
        <pt x="780" y="790" on="0"/>
        <pt x="870" y="846" on="0"/>
        <pt x="920" y="948" on="0"/>
        <pt x="920" y="1030" on="1"/>
        <pt x="920" y="1105" on="0"/>
        <pt x="878" y="1204" on="0"/>
        <pt x="803" y="1264" on="0"/>
        <pt x="698" y="1288" on="0"/>
        <pt x="635" y="1288" on="1"/>
        <pt x="371" y="1288" on="1"/>
      </contour>
    </TTGlyph>
    <TTGlyph name="Q" xMin="117" yMin="-329" xMax="1379" yMax="1460">
      <contour>
        <pt x="748" y="1460" on="1"/>
        <pt x="901" y="1460" on="0"/>
        <pt x="1136" y="1363" on="0"/>
        <pt x="1296" y="1174" on="0"/>
        <pt x="1379" y="898" on="0"/>
        <pt x="1379" y="719" on="1"/>
        <pt x="1379" y="429" on="0"/>
        <pt x="1171" y="71" on="0"/>
        <pt x="973" y="8" on="1"/>
        <pt x="1022" y="-28" on="0"/>
        <pt x="1093" y="-82" on="0"/>
        <pt x="1162" y="-123" on="0"/>
        <pt x="1241" y="-156" on="0"/>
        <pt x="1299" y="-172" on="1"/>
        <pt x="1287" y="-214" on="0"/>
        <pt x="1256" y="-290" on="0"/>
        <pt x="1238" y="-329" on="1"/>
        <pt x="1200" y="-319" on="0"/>
        <pt x="1134" y="-295" on="0"/>
        <pt x="1068" y="-264" on="0"/>
        <pt x="999" y="-220" on="0"/>
        <pt x="915" y="-159" on="0"/>
        <pt x="813" y="-78" on="0"/>
        <pt x="748" y="-24" on="1"/>
        <pt x="599" y="-24" on="0"/>
        <pt x="364" y="71" on="0"/>
        <pt x="202" y="258" on="0"/>
        <pt x="117" y="536" on="0"/>
        <pt x="117" y="719" on="1"/>
        <pt x="117" y="901" on="0"/>
        <pt x="202" y="1178" on="0"/>
        <pt x="364" y="1365" on="0"/>
        <pt x="599" y="1460" on="0"/>
      </contour>
      <contour>
        <pt x="747" y="1303" on="1"/>
        <pt x="633" y="1303" on="0"/>
        <pt x="467" y="1220" on="0"/>
        <pt x="361" y="1067" on="0"/>
        <pt x="310" y="851" on="0"/>
        <pt x="310" y="719" on="1"/>
        <pt x="310" y="586" on="0"/>
        <pt x="361" y="369" on="0"/>
        <pt x="467" y="216" on="0"/>
        <pt x="633" y="133" on="0"/>
        <pt x="747" y="133" on="1"/>
        <pt x="859" y="133" on="0"/>
        <pt x="1025" y="214" on="0"/>
        <pt x="1133" y="366" on="0"/>
        <pt x="1186" y="583" on="0"/>
        <pt x="1186" y="719" on="1"/>
        <pt x="1186" y="854" on="0"/>
        <pt x="1133" y="1071" on="0"/>
        <pt x="1025" y="1222" on="0"/>
        <pt x="859" y="1303" on="0"/>
      </contour>
    </TTGlyph>
    <TTGlyph name="R" xMin="185" yMin="0" xMax="1220" yMax="1438">
      <contour>
        <pt x="635" y="1438" on="1"/>
        <pt x="730" y="1438" on="0"/>
        <pt x="899" y="1394" on="0"/>
        <pt x="964" y="1346" on="1"/>
        <pt x="1030" y="1297" on="0"/>
        <pt x="1105" y="1147" on="0"/>
        <pt x="1105" y="1045" on="1"/>
        <pt x="1105" y="943" on="0"/>
        <pt x="1030" y="793" on="0"/>
        <pt x="964" y="744" on="1"/>
        <pt x="913" y="706" on="0"/>
        <pt x="788" y="664" on="0"/>
        <pt x="717" y="656" on="1"/>
        <pt x="716" y="654" on="1"/>
        <pt x="745" y="635" on="0"/>
        <pt x="815" y="566" on="0"/>
        <pt x="853" y="519" on="1"/>
        <pt x="891" y="472" on="0"/>
        <pt x="971" y="363" on="0"/>
        <pt x="1012" y="303" on="1"/>
        <pt x="1220" y="0" on="1"/>
        <pt x="1000" y="0" on="1"/>
        <pt x="774" y="350" on="1"/>
        <pt x="713" y="446" on="0"/>
        <pt x="624" y="564" on="0"/>
        <pt x="584" y="598" on="1"/>
        <pt x="545" y="632" on="0"/>
        <pt x="463" y="656" on="0"/>
        <pt x="409" y="656" on="1"/>
        <pt x="371" y="656" on="1"/>
        <pt x="371" y="0" on="1"/>
        <pt x="185" y="0" on="1"/>
        <pt x="185" y="1438" on="1"/>
      </contour>
      <contour>
        <pt x="635" y="802" on="1"/>
        <pt x="698" y="802" on="0"/>
        <pt x="802" y="830" on="0"/>
        <pt x="877" y="889" on="0"/>
        <pt x="919" y="981" on="0"/>
        <pt x="919" y="1045" on="1"/>
        <pt x="919" y="1109" on="0"/>
        <pt x="877" y="1201" on="0"/>
        <pt x="802" y="1260" on="0"/>
        <pt x="698" y="1288" on="0"/>
        <pt x="635" y="1288" on="1"/>
        <pt x="371" y="1288" on="1"/>
        <pt x="371" y="802" on="1"/>
      </contour>
    </TTGlyph>
    <TTGlyph name="Racute" xMin="185" yMin="0" xMax="1220" yMax="2057">
      <contour>
        <pt x="524" y="2010" on="1"/>
        <pt x="562" y="2037" on="0"/>
        <pt x="617" y="2057" on="0"/>
        <pt x="645" y="2057" on="1"/>
        <pt x="694" y="2057" on="0"/>
        <pt x="754" y="2018" on="0"/>
        <pt x="781" y="1957" on="0"/>
        <pt x="777" y="1879" on="0"/>
        <pt x="761" y="1840" on="1"/>
        <pt x="750" y="1814" on="0"/>
        <pt x="714" y="1744" on="0"/>
        <pt x="674" y="1669" on="0"/>
        <pt x="633" y="1597" on="0"/>
        <pt x="618" y="1571" on="1"/>
        <pt x="496" y="1571" on="1"/>
        <pt x="575" y="1833" on="1"/>
      </contour>
      <contour>
        <pt x="635" y="1438" on="1"/>
        <pt x="730" y="1438" on="0"/>
        <pt x="899" y="1394" on="0"/>
        <pt x="964" y="1346" on="1"/>
        <pt x="1030" y="1297" on="0"/>
        <pt x="1105" y="1147" on="0"/>
        <pt x="1105" y="1045" on="1"/>
        <pt x="1105" y="943" on="0"/>
        <pt x="1030" y="793" on="0"/>
        <pt x="964" y="744" on="1"/>
        <pt x="913" y="706" on="0"/>
        <pt x="788" y="664" on="0"/>
        <pt x="717" y="656" on="1"/>
        <pt x="716" y="654" on="1"/>
        <pt x="745" y="635" on="0"/>
        <pt x="815" y="566" on="0"/>
        <pt x="853" y="519" on="1"/>
        <pt x="891" y="472" on="0"/>
        <pt x="971" y="363" on="0"/>
        <pt x="1012" y="303" on="1"/>
        <pt x="1220" y="0" on="1"/>
        <pt x="1000" y="0" on="1"/>
        <pt x="774" y="350" on="1"/>
        <pt x="713" y="446" on="0"/>
        <pt x="624" y="564" on="0"/>
        <pt x="584" y="598" on="1"/>
        <pt x="545" y="632" on="0"/>
        <pt x="463" y="656" on="0"/>
        <pt x="409" y="656" on="1"/>
        <pt x="371" y="656" on="1"/>
        <pt x="371" y="0" on="1"/>
        <pt x="185" y="0" on="1"/>
        <pt x="185" y="1438" on="1"/>
      </contour>
      <contour>
        <pt x="635" y="802" on="1"/>
        <pt x="698" y="802" on="0"/>
        <pt x="802" y="830" on="0"/>
        <pt x="877" y="889" on="0"/>
        <pt x="919" y="981" on="0"/>
        <pt x="919" y="1045" on="1"/>
        <pt x="919" y="1109" on="0"/>
        <pt x="877" y="1201" on="0"/>
        <pt x="802" y="1260" on="0"/>
        <pt x="698" y="1288" on="0"/>
        <pt x="635" y="1288" on="1"/>
        <pt x="371" y="1288" on="1"/>
        <pt x="371" y="802" on="1"/>
      </contour>
    </TTGlyph>
    <TTGlyph name="Rcaron" xMin="185" yMin="0" xMax="1220" yMax="1902">
      <contour>
        <pt x="810" y="1902" on="1"/>
        <pt x="881" y="1815" on="1"/>
        <pt x="568" y="1561" on="1"/>
        <pt x="251" y="1815" on="1"/>
        <pt x="322" y="1902" on="1"/>
        <pt x="568" y="1761" on="1"/>
      </contour>
      <contour>
        <pt x="635" y="1438" on="1"/>
        <pt x="730" y="1438" on="0"/>
        <pt x="899" y="1394" on="0"/>
        <pt x="964" y="1346" on="1"/>
        <pt x="1030" y="1297" on="0"/>
        <pt x="1105" y="1147" on="0"/>
        <pt x="1105" y="1045" on="1"/>
        <pt x="1105" y="943" on="0"/>
        <pt x="1030" y="793" on="0"/>
        <pt x="964" y="744" on="1"/>
        <pt x="913" y="706" on="0"/>
        <pt x="788" y="664" on="0"/>
        <pt x="717" y="656" on="1"/>
        <pt x="716" y="654" on="1"/>
        <pt x="745" y="635" on="0"/>
        <pt x="815" y="566" on="0"/>
        <pt x="853" y="519" on="1"/>
        <pt x="891" y="472" on="0"/>
        <pt x="971" y="363" on="0"/>
        <pt x="1012" y="303" on="1"/>
        <pt x="1220" y="0" on="1"/>
        <pt x="1000" y="0" on="1"/>
        <pt x="774" y="350" on="1"/>
        <pt x="713" y="446" on="0"/>
        <pt x="624" y="564" on="0"/>
        <pt x="584" y="598" on="1"/>
        <pt x="545" y="632" on="0"/>
        <pt x="463" y="656" on="0"/>
        <pt x="409" y="656" on="1"/>
        <pt x="371" y="656" on="1"/>
        <pt x="371" y="0" on="1"/>
        <pt x="185" y="0" on="1"/>
        <pt x="185" y="1438" on="1"/>
      </contour>
      <contour>
        <pt x="635" y="802" on="1"/>
        <pt x="698" y="802" on="0"/>
        <pt x="802" y="830" on="0"/>
        <pt x="877" y="889" on="0"/>
        <pt x="919" y="981" on="0"/>
        <pt x="919" y="1045" on="1"/>
        <pt x="919" y="1109" on="0"/>
        <pt x="877" y="1201" on="0"/>
        <pt x="802" y="1260" on="0"/>
        <pt x="698" y="1288" on="0"/>
        <pt x="635" y="1288" on="1"/>
        <pt x="371" y="1288" on="1"/>
        <pt x="371" y="802" on="1"/>
      </contour>
    </TTGlyph>
    <TTGlyph name="Rcommaaccent" xMin="185" yMin="-622" xMax="1220" yMax="1438">
      <contour>
        <pt x="635" y="1438" on="1"/>
        <pt x="730" y="1438" on="0"/>
        <pt x="899" y="1394" on="0"/>
        <pt x="964" y="1346" on="1"/>
        <pt x="1030" y="1297" on="0"/>
        <pt x="1105" y="1147" on="0"/>
        <pt x="1105" y="1045" on="1"/>
        <pt x="1105" y="943" on="0"/>
        <pt x="1030" y="793" on="0"/>
        <pt x="964" y="744" on="1"/>
        <pt x="913" y="706" on="0"/>
        <pt x="788" y="664" on="0"/>
        <pt x="717" y="656" on="1"/>
        <pt x="716" y="654" on="1"/>
        <pt x="745" y="635" on="0"/>
        <pt x="815" y="566" on="0"/>
        <pt x="853" y="519" on="1"/>
        <pt x="891" y="472" on="0"/>
        <pt x="971" y="363" on="0"/>
        <pt x="1012" y="303" on="1"/>
        <pt x="1220" y="0" on="1"/>
        <pt x="1000" y="0" on="1"/>
        <pt x="774" y="350" on="1"/>
        <pt x="713" y="446" on="0"/>
        <pt x="624" y="564" on="0"/>
        <pt x="584" y="598" on="1"/>
        <pt x="545" y="632" on="0"/>
        <pt x="463" y="656" on="0"/>
        <pt x="409" y="656" on="1"/>
        <pt x="371" y="656" on="1"/>
        <pt x="371" y="0" on="1"/>
        <pt x="185" y="0" on="1"/>
        <pt x="185" y="1438" on="1"/>
      </contour>
      <contour>
        <pt x="635" y="802" on="1"/>
        <pt x="698" y="802" on="0"/>
        <pt x="802" y="830" on="0"/>
        <pt x="877" y="889" on="0"/>
        <pt x="919" y="981" on="0"/>
        <pt x="919" y="1045" on="1"/>
        <pt x="919" y="1109" on="0"/>
        <pt x="877" y="1201" on="0"/>
        <pt x="802" y="1260" on="0"/>
        <pt x="698" y="1288" on="0"/>
        <pt x="635" y="1288" on="1"/>
        <pt x="371" y="1288" on="1"/>
        <pt x="371" y="802" on="1"/>
      </contour>
      <contour>
        <pt x="525" y="-183" on="1"/>
        <pt x="563" y="-156" on="0"/>
        <pt x="618" y="-136" on="0"/>
        <pt x="646" y="-136" on="1"/>
        <pt x="695" y="-136" on="0"/>
        <pt x="755" y="-175" on="0"/>
        <pt x="782" y="-236" on="0"/>
        <pt x="778" y="-314" on="0"/>
        <pt x="762" y="-353" on="1"/>
        <pt x="751" y="-379" on="0"/>
        <pt x="715" y="-449" on="0"/>
        <pt x="675" y="-524" on="0"/>
        <pt x="634" y="-596" on="0"/>
        <pt x="619" y="-622" on="1"/>
        <pt x="497" y="-622" on="1"/>
        <pt x="576" y="-360" on="1"/>
      </contour>
    </TTGlyph>
    <TTGlyph name="S" xMin="115" yMin="-24" xMax="1086" yMax="1460">
      <contour>
        <pt x="175" y="209" on="1"/>
        <pt x="216" y="193" on="0"/>
        <pt x="307" y="165" on="0"/>
        <pt x="402" y="145" on="0"/>
        <pt x="498" y="133" on="0"/>
        <pt x="544" y="133" on="1"/>
        <pt x="623" y="133" on="0"/>
        <pt x="751" y="169" on="0"/>
        <pt x="843" y="238" on="0"/>
        <pt x="893" y="339" on="0"/>
        <pt x="893" y="404" on="1"/>
        <pt x="893" y="469" on="0"/>
        <pt x="846" y="552" on="0"/>
        <pt x="757" y="608" on="0"/>
        <pt x="627" y="647" on="0"/>
        <pt x="544" y="668" on="1"/>
        <pt x="452" y="692" on="0"/>
        <pt x="297" y="751" on="0"/>
        <pt x="184" y="845" on="0"/>
        <pt x="120" y="984" on="0"/>
        <pt x="120" y="1088" on="1"/>
        <pt x="120" y="1173" on="0"/>
        <pt x="188" y="1311" on="0"/>
        <pt x="312" y="1408" on="0"/>
        <pt x="486" y="1460" on="0"/>
        <pt x="591" y="1460" on="1"/>
        <pt x="642" y="1460" on="0"/>
        <pt x="748" y="1447" on="0"/>
        <pt x="852" y="1425" on="0"/>
        <pt x="952" y="1393" on="0"/>
        <pt x="996" y="1374" on="1"/>
        <pt x="936" y="1226" on="1"/>
        <pt x="900" y="1240" on="0"/>
        <pt x="825" y="1268" on="0"/>
        <pt x="741" y="1290" on="0"/>
        <pt x="646" y="1303" on="0"/>
        <pt x="591" y="1303" on="1"/>
        <pt x="536" y="1303" on="0"/>
        <pt x="436" y="1279" on="0"/>
        <pt x="359" y="1228" on="0"/>
        <pt x="313" y="1146" on="0"/>
        <pt x="313" y="1088" on="1"/>
        <pt x="313" y="1023" on="0"/>
        <pt x="360" y="940" on="0"/>
        <pt x="449" y="884" on="0"/>
        <pt x="579" y="845" on="0"/>
        <pt x="662" y="824" on="1"/>
        <pt x="754" y="800" on="0"/>
        <pt x="909" y="741" on="0"/>
        <pt x="1022" y="647" on="0"/>
        <pt x="1086" y="507" on="0"/>
        <pt x="1086" y="404" on="1"/>
        <pt x="1086" y="295" on="0"/>
        <pt x="1005" y="134" on="0"/>
        <pt x="860" y="28" on="0"/>
        <pt x="661" y="-24" on="0"/>
        <pt x="544" y="-24" on="1"/>
        <pt x="323" y="-24" on="0"/>
        <pt x="115" y="61" on="1"/>
      </contour>
    </TTGlyph>
    <TTGlyph name="Sacute" xMin="115" yMin="-24" xMax="1086" yMax="2064">
      <contour>
        <pt x="555" y="2017" on="1"/>
        <pt x="593" y="2044" on="0"/>
        <pt x="648" y="2064" on="0"/>
        <pt x="676" y="2064" on="1"/>
        <pt x="725" y="2064" on="0"/>
        <pt x="785" y="2025" on="0"/>
        <pt x="812" y="1964" on="0"/>
        <pt x="808" y="1886" on="0"/>
        <pt x="792" y="1847" on="1"/>
        <pt x="781" y="1821" on="0"/>
        <pt x="745" y="1751" on="0"/>
        <pt x="705" y="1676" on="0"/>
        <pt x="664" y="1604" on="0"/>
        <pt x="649" y="1578" on="1"/>
        <pt x="527" y="1578" on="1"/>
        <pt x="606" y="1840" on="1"/>
      </contour>
      <contour>
        <pt x="175" y="209" on="1"/>
        <pt x="216" y="193" on="0"/>
        <pt x="307" y="165" on="0"/>
        <pt x="402" y="145" on="0"/>
        <pt x="498" y="133" on="0"/>
        <pt x="544" y="133" on="1"/>
        <pt x="623" y="133" on="0"/>
        <pt x="751" y="169" on="0"/>
        <pt x="843" y="238" on="0"/>
        <pt x="893" y="339" on="0"/>
        <pt x="893" y="404" on="1"/>
        <pt x="893" y="469" on="0"/>
        <pt x="846" y="552" on="0"/>
        <pt x="757" y="608" on="0"/>
        <pt x="627" y="647" on="0"/>
        <pt x="544" y="668" on="1"/>
        <pt x="452" y="692" on="0"/>
        <pt x="297" y="751" on="0"/>
        <pt x="184" y="845" on="0"/>
        <pt x="120" y="984" on="0"/>
        <pt x="120" y="1088" on="1"/>
        <pt x="120" y="1173" on="0"/>
        <pt x="188" y="1311" on="0"/>
        <pt x="312" y="1408" on="0"/>
        <pt x="486" y="1460" on="0"/>
        <pt x="591" y="1460" on="1"/>
        <pt x="642" y="1460" on="0"/>
        <pt x="748" y="1447" on="0"/>
        <pt x="852" y="1425" on="0"/>
        <pt x="952" y="1393" on="0"/>
        <pt x="996" y="1374" on="1"/>
        <pt x="936" y="1226" on="1"/>
        <pt x="900" y="1240" on="0"/>
        <pt x="825" y="1268" on="0"/>
        <pt x="741" y="1290" on="0"/>
        <pt x="646" y="1303" on="0"/>
        <pt x="591" y="1303" on="1"/>
        <pt x="536" y="1303" on="0"/>
        <pt x="436" y="1279" on="0"/>
        <pt x="359" y="1228" on="0"/>
        <pt x="313" y="1146" on="0"/>
        <pt x="313" y="1088" on="1"/>
        <pt x="313" y="1023" on="0"/>
        <pt x="360" y="940" on="0"/>
        <pt x="449" y="884" on="0"/>
        <pt x="579" y="845" on="0"/>
        <pt x="662" y="824" on="1"/>
        <pt x="754" y="800" on="0"/>
        <pt x="909" y="741" on="0"/>
        <pt x="1022" y="647" on="0"/>
        <pt x="1086" y="507" on="0"/>
        <pt x="1086" y="404" on="1"/>
        <pt x="1086" y="295" on="0"/>
        <pt x="1005" y="134" on="0"/>
        <pt x="860" y="28" on="0"/>
        <pt x="661" y="-24" on="0"/>
        <pt x="544" y="-24" on="1"/>
        <pt x="323" y="-24" on="0"/>
        <pt x="115" y="61" on="1"/>
      </contour>
    </TTGlyph>
    <TTGlyph name="Scaron" xMin="115" yMin="-24" xMax="1086" yMax="1919">
      <contour>
        <pt x="832" y="1919" on="1"/>
        <pt x="903" y="1832" on="1"/>
        <pt x="590" y="1578" on="1"/>
        <pt x="273" y="1832" on="1"/>
        <pt x="344" y="1919" on="1"/>
        <pt x="590" y="1778" on="1"/>
      </contour>
      <contour>
        <pt x="175" y="209" on="1"/>
        <pt x="216" y="193" on="0"/>
        <pt x="307" y="165" on="0"/>
        <pt x="402" y="145" on="0"/>
        <pt x="498" y="133" on="0"/>
        <pt x="544" y="133" on="1"/>
        <pt x="623" y="133" on="0"/>
        <pt x="751" y="169" on="0"/>
        <pt x="843" y="238" on="0"/>
        <pt x="893" y="339" on="0"/>
        <pt x="893" y="404" on="1"/>
        <pt x="893" y="469" on="0"/>
        <pt x="846" y="552" on="0"/>
        <pt x="757" y="608" on="0"/>
        <pt x="627" y="647" on="0"/>
        <pt x="544" y="668" on="1"/>
        <pt x="452" y="692" on="0"/>
        <pt x="297" y="751" on="0"/>
        <pt x="184" y="845" on="0"/>
        <pt x="120" y="984" on="0"/>
        <pt x="120" y="1088" on="1"/>
        <pt x="120" y="1173" on="0"/>
        <pt x="188" y="1311" on="0"/>
        <pt x="312" y="1408" on="0"/>
        <pt x="486" y="1460" on="0"/>
        <pt x="591" y="1460" on="1"/>
        <pt x="642" y="1460" on="0"/>
        <pt x="748" y="1447" on="0"/>
        <pt x="852" y="1425" on="0"/>
        <pt x="952" y="1393" on="0"/>
        <pt x="996" y="1374" on="1"/>
        <pt x="936" y="1226" on="1"/>
        <pt x="900" y="1240" on="0"/>
        <pt x="825" y="1268" on="0"/>
        <pt x="741" y="1290" on="0"/>
        <pt x="646" y="1303" on="0"/>
        <pt x="591" y="1303" on="1"/>
        <pt x="536" y="1303" on="0"/>
        <pt x="436" y="1279" on="0"/>
        <pt x="359" y="1228" on="0"/>
        <pt x="313" y="1146" on="0"/>
        <pt x="313" y="1088" on="1"/>
        <pt x="313" y="1023" on="0"/>
        <pt x="360" y="940" on="0"/>
        <pt x="449" y="884" on="0"/>
        <pt x="579" y="845" on="0"/>
        <pt x="662" y="824" on="1"/>
        <pt x="754" y="800" on="0"/>
        <pt x="909" y="741" on="0"/>
        <pt x="1022" y="647" on="0"/>
        <pt x="1086" y="507" on="0"/>
        <pt x="1086" y="404" on="1"/>
        <pt x="1086" y="295" on="0"/>
        <pt x="1005" y="134" on="0"/>
        <pt x="860" y="28" on="0"/>
        <pt x="661" y="-24" on="0"/>
        <pt x="544" y="-24" on="1"/>
        <pt x="323" y="-24" on="0"/>
        <pt x="115" y="61" on="1"/>
      </contour>
    </TTGlyph>
    <TTGlyph name="Scedilla" xMin="115" yMin="-427" xMax="1086" yMax="1460">
      <contour>
        <pt x="936" y="1226" on="1"/>
        <pt x="900" y="1240" on="0"/>
        <pt x="825" y="1268" on="0"/>
        <pt x="741" y="1290" on="0"/>
        <pt x="646" y="1303" on="0"/>
        <pt x="591" y="1303" on="1"/>
        <pt x="536" y="1303" on="0"/>
        <pt x="436" y="1279" on="0"/>
        <pt x="359" y="1228" on="0"/>
        <pt x="313" y="1146" on="0"/>
        <pt x="313" y="1088" on="1"/>
        <pt x="313" y="1023" on="0"/>
        <pt x="360" y="940" on="0"/>
        <pt x="449" y="884" on="0"/>
        <pt x="579" y="845" on="0"/>
        <pt x="662" y="824" on="1"/>
        <pt x="754" y="800" on="0"/>
        <pt x="909" y="741" on="0"/>
        <pt x="1022" y="647" on="0"/>
        <pt x="1086" y="507" on="0"/>
        <pt x="1086" y="404" on="1"/>
        <pt x="1086" y="309" on="0"/>
        <pt x="1024" y="163" on="0"/>
        <pt x="912" y="58" on="0"/>
        <pt x="756" y="-5" on="0"/>
        <pt x="662" y="-17" on="1"/>
        <pt x="586" y="-112" on="1"/>
        <pt x="664" y="-136" on="0"/>
        <pt x="730" y="-206" on="0"/>
        <pt x="730" y="-262" on="1"/>
        <pt x="730" y="-305" on="0"/>
        <pt x="698" y="-367" on="0"/>
        <pt x="641" y="-408" on="0"/>
        <pt x="563" y="-427" on="0"/>
        <pt x="517" y="-427" on="1"/>
        <pt x="475" y="-427" on="0"/>
        <pt x="387" y="-410" on="0"/>
        <pt x="341" y="-396" on="1"/>
        <pt x="391" y="-304" on="1"/>
        <pt x="431" y="-324" on="0"/>
        <pt x="494" y="-347" on="0"/>
        <pt x="523" y="-347" on="1"/>
        <pt x="565" y="-347" on="0"/>
        <pt x="605" y="-301" on="0"/>
        <pt x="605" y="-272" on="1"/>
        <pt x="605" y="-236" on="0"/>
        <pt x="530" y="-187" on="0"/>
        <pt x="455" y="-163" on="1"/>
        <pt x="539" y="-24" on="1"/>
        <pt x="321" y="-22" on="0"/>
        <pt x="115" y="61" on="1"/>
        <pt x="175" y="209" on="1"/>
        <pt x="216" y="193" on="0"/>
        <pt x="307" y="165" on="0"/>
        <pt x="402" y="145" on="0"/>
        <pt x="498" y="133" on="0"/>
        <pt x="544" y="133" on="1"/>
        <pt x="623" y="133" on="0"/>
        <pt x="751" y="169" on="0"/>
        <pt x="843" y="238" on="0"/>
        <pt x="893" y="339" on="0"/>
        <pt x="893" y="404" on="1"/>
        <pt x="893" y="469" on="0"/>
        <pt x="846" y="552" on="0"/>
        <pt x="757" y="608" on="0"/>
        <pt x="627" y="647" on="0"/>
        <pt x="544" y="668" on="1"/>
        <pt x="452" y="692" on="0"/>
        <pt x="297" y="751" on="0"/>
        <pt x="184" y="845" on="0"/>
        <pt x="120" y="984" on="0"/>
        <pt x="120" y="1088" on="1"/>
        <pt x="120" y="1173" on="0"/>
        <pt x="188" y="1311" on="0"/>
        <pt x="312" y="1408" on="0"/>
        <pt x="486" y="1460" on="0"/>
        <pt x="591" y="1460" on="1"/>
        <pt x="642" y="1460" on="0"/>
        <pt x="748" y="1447" on="0"/>
        <pt x="852" y="1425" on="0"/>
        <pt x="952" y="1393" on="0"/>
        <pt x="996" y="1374" on="1"/>
      </contour>
    </TTGlyph>
    <TTGlyph name="Scommaaccent" xMin="115" yMin="-613" xMax="1086" yMax="1460">
      <contour>
        <pt x="175" y="209" on="1"/>
        <pt x="216" y="193" on="0"/>
        <pt x="307" y="165" on="0"/>
        <pt x="402" y="145" on="0"/>
        <pt x="498" y="133" on="0"/>
        <pt x="544" y="133" on="1"/>
        <pt x="623" y="133" on="0"/>
        <pt x="751" y="169" on="0"/>
        <pt x="843" y="238" on="0"/>
        <pt x="893" y="339" on="0"/>
        <pt x="893" y="404" on="1"/>
        <pt x="893" y="469" on="0"/>
        <pt x="846" y="552" on="0"/>
        <pt x="757" y="608" on="0"/>
        <pt x="627" y="647" on="0"/>
        <pt x="544" y="668" on="1"/>
        <pt x="452" y="692" on="0"/>
        <pt x="297" y="751" on="0"/>
        <pt x="184" y="845" on="0"/>
        <pt x="120" y="984" on="0"/>
        <pt x="120" y="1088" on="1"/>
        <pt x="120" y="1173" on="0"/>
        <pt x="188" y="1311" on="0"/>
        <pt x="312" y="1408" on="0"/>
        <pt x="486" y="1460" on="0"/>
        <pt x="591" y="1460" on="1"/>
        <pt x="642" y="1460" on="0"/>
        <pt x="748" y="1447" on="0"/>
        <pt x="852" y="1425" on="0"/>
        <pt x="952" y="1393" on="0"/>
        <pt x="996" y="1374" on="1"/>
        <pt x="936" y="1226" on="1"/>
        <pt x="900" y="1240" on="0"/>
        <pt x="825" y="1268" on="0"/>
        <pt x="741" y="1290" on="0"/>
        <pt x="646" y="1303" on="0"/>
        <pt x="591" y="1303" on="1"/>
        <pt x="536" y="1303" on="0"/>
        <pt x="436" y="1279" on="0"/>
        <pt x="359" y="1228" on="0"/>
        <pt x="313" y="1146" on="0"/>
        <pt x="313" y="1088" on="1"/>
        <pt x="313" y="1023" on="0"/>
        <pt x="360" y="940" on="0"/>
        <pt x="449" y="884" on="0"/>
        <pt x="579" y="845" on="0"/>
        <pt x="662" y="824" on="1"/>
        <pt x="754" y="800" on="0"/>
        <pt x="909" y="741" on="0"/>
        <pt x="1022" y="647" on="0"/>
        <pt x="1086" y="507" on="0"/>
        <pt x="1086" y="404" on="1"/>
        <pt x="1086" y="295" on="0"/>
        <pt x="1005" y="134" on="0"/>
        <pt x="860" y="28" on="0"/>
        <pt x="661" y="-24" on="0"/>
        <pt x="544" y="-24" on="1"/>
        <pt x="323" y="-24" on="0"/>
        <pt x="115" y="61" on="1"/>
      </contour>
      <contour>
        <pt x="484" y="-174" on="1"/>
        <pt x="522" y="-147" on="0"/>
        <pt x="577" y="-127" on="0"/>
        <pt x="605" y="-127" on="1"/>
        <pt x="654" y="-127" on="0"/>
        <pt x="714" y="-166" on="0"/>
        <pt x="741" y="-227" on="0"/>
        <pt x="737" y="-305" on="0"/>
        <pt x="721" y="-344" on="1"/>
        <pt x="710" y="-370" on="0"/>
        <pt x="674" y="-440" on="0"/>
        <pt x="634" y="-515" on="0"/>
        <pt x="593" y="-587" on="0"/>
        <pt x="578" y="-613" on="1"/>
        <pt x="456" y="-613" on="1"/>
        <pt x="535" y="-351" on="1"/>
      </contour>
    </TTGlyph>
    <TTGlyph name="T" xMin="80" yMin="0" xMax="1157" yMax="1438">
      <contour>
        <pt x="80" y="1438" on="1"/>
        <pt x="1157" y="1438" on="1"/>
        <pt x="1157" y="1284" on="1"/>
        <pt x="715" y="1284" on="1"/>
        <pt x="715" y="0" on="1"/>
        <pt x="527" y="0" on="1"/>
        <pt x="527" y="1284" on="1"/>
        <pt x="80" y="1284" on="1"/>
      </contour>
    </TTGlyph>
    <TTGlyph name="Tbar" xMin="80" yMin="0" xMax="1157" yMax="1438">
      <contour>
        <pt x="1157" y="1284" on="1"/>
        <pt x="715" y="1284" on="1"/>
        <pt x="715" y="847" on="1"/>
        <pt x="893" y="847" on="1"/>
        <pt x="893" y="726" on="1"/>
        <pt x="715" y="726" on="1"/>
        <pt x="715" y="0" on="1"/>
        <pt x="527" y="0" on="1"/>
        <pt x="527" y="726" on="1"/>
        <pt x="380" y="726" on="1"/>
        <pt x="380" y="847" on="1"/>
        <pt x="527" y="847" on="1"/>
        <pt x="527" y="1284" on="1"/>
        <pt x="80" y="1284" on="1"/>
        <pt x="80" y="1438" on="1"/>
        <pt x="1157" y="1438" on="1"/>
      </contour>
    </TTGlyph>
    <TTGlyph name="Tcaron" xMin="80" yMin="0" xMax="1157" yMax="1902">
      <contour>
        <pt x="622" y="1761" on="1"/>
        <pt x="864" y="1902" on="1"/>
        <pt x="935" y="1815" on="1"/>
        <pt x="622" y="1561" on="1"/>
        <pt x="305" y="1815" on="1"/>
        <pt x="376" y="1902" on="1"/>
      </contour>
      <contour>
        <pt x="80" y="1438" on="1"/>
        <pt x="1157" y="1438" on="1"/>
        <pt x="1157" y="1284" on="1"/>
        <pt x="715" y="1284" on="1"/>
        <pt x="715" y="0" on="1"/>
        <pt x="527" y="0" on="1"/>
        <pt x="527" y="1284" on="1"/>
        <pt x="80" y="1284" on="1"/>
      </contour>
    </TTGlyph>
    <TTGlyph name="Tcommaaccent" xMin="80" yMin="-427" xMax="1157" yMax="1438">
      <contour>
        <pt x="1157" y="1284" on="1"/>
        <pt x="715" y="1284" on="1"/>
        <pt x="715" y="0" on="1"/>
        <pt x="725" y="0" on="1"/>
        <pt x="636" y="-112" on="1"/>
        <pt x="713" y="-136" on="0"/>
        <pt x="780" y="-206" on="0"/>
        <pt x="780" y="-262" on="1"/>
        <pt x="780" y="-345" on="0"/>
        <pt x="664" y="-427" on="0"/>
        <pt x="567" y="-427" on="1"/>
        <pt x="491" y="-427" on="0"/>
        <pt x="391" y="-396" on="1"/>
        <pt x="441" y="-304" on="1"/>
        <pt x="511" y="-347" on="0"/>
        <pt x="573" y="-347" on="1"/>
        <pt x="613" y="-347" on="0"/>
        <pt x="655" y="-303" on="0"/>
        <pt x="655" y="-272" on="1"/>
        <pt x="655" y="-238" on="0"/>
        <pt x="583" y="-188" on="0"/>
        <pt x="505" y="-163" on="1"/>
        <pt x="604" y="0" on="1"/>
        <pt x="527" y="0" on="1"/>
        <pt x="527" y="1284" on="1"/>
        <pt x="80" y="1284" on="1"/>
        <pt x="80" y="1438" on="1"/>
        <pt x="1157" y="1438" on="1"/>
      </contour>
    </TTGlyph>
    <TTGlyph name="Thorn" xMin="185" yMin="0" xMax="1132" yMax="1438">
      <contour>
        <pt x="375" y="1191" on="1"/>
        <pt x="665" y="1191" on="1"/>
        <pt x="886" y="1191" on="0"/>
        <pt x="1132" y="966" on="0"/>
        <pt x="1132" y="757" on="1"/>
        <pt x="1132" y="541" on="0"/>
        <pt x="834" y="318" on="0"/>
        <pt x="575" y="318" on="1"/>
        <pt x="483" y="318" on="0"/>
        <pt x="373" y="334" on="1"/>
        <pt x="373" y="0" on="1"/>
        <pt x="185" y="0" on="1"/>
        <pt x="185" y="1438" on="1"/>
        <pt x="375" y="1438" on="1"/>
      </contour>
      <contour>
        <pt x="373" y="1037" on="1"/>
        <pt x="373" y="488" on="1"/>
        <pt x="483" y="470" on="0"/>
        <pt x="568" y="470" on="1"/>
        <pt x="649" y="470" on="0"/>
        <pt x="781" y="501" on="0"/>
        <pt x="886" y="566" on="0"/>
        <pt x="944" y="679" on="0"/>
        <pt x="944" y="755" on="1"/>
        <pt x="944" y="898" on="0"/>
        <pt x="788" y="1037" on="0"/>
        <pt x="643" y="1037" on="1"/>
      </contour>
    </TTGlyph>
    <TTGlyph name="U" xMin="170" yMin="-24" xMax="1316" yMax="1438">
      <contour>
        <pt x="1128" y="1438" on="1"/>
        <pt x="1316" y="1438" on="1"/>
        <pt x="1316" y="607" on="1"/>
        <pt x="1316" y="293" on="0"/>
        <pt x="1034" y="-24" on="0"/>
        <pt x="742" y="-24" on="1"/>
        <pt x="170" y="-24" on="0"/>
        <pt x="170" y="607" on="1"/>
        <pt x="170" y="1438" on="1"/>
        <pt x="358" y="1438" on="1"/>
        <pt x="358" y="606" on="1"/>
        <pt x="358" y="496" on="0"/>
        <pt x="396" y="329" on="0"/>
        <pt x="482" y="200" on="0"/>
        <pt x="634" y="133" on="0"/>
        <pt x="742" y="133" on="1"/>
        <pt x="830" y="133" on="0"/>
        <pt x="965" y="178" on="0"/>
        <pt x="1051" y="258" on="0"/>
        <pt x="1106" y="379" on="0"/>
        <pt x="1128" y="518" on="0"/>
        <pt x="1128" y="606" on="1"/>
      </contour>
    </TTGlyph>
    <TTGlyph name="Uacute" xMin="170" yMin="-24" xMax="1316" yMax="2057">
      <contour>
        <pt x="743" y="1833" on="1"/>
        <pt x="692" y="2010" on="1"/>
        <pt x="757" y="2057" on="0"/>
        <pt x="813" y="2057" on="1"/>
        <pt x="875" y="2057" on="0"/>
        <pt x="946" y="1991" on="0"/>
        <pt x="948" y="1894" on="0"/>
        <pt x="929" y="1840" on="1"/>
        <pt x="901" y="1773" on="0"/>
        <pt x="786" y="1571" on="1"/>
        <pt x="664" y="1571" on="1"/>
      </contour>
      <contour>
        <pt x="1128" y="1438" on="1"/>
        <pt x="1316" y="1438" on="1"/>
        <pt x="1316" y="607" on="1"/>
        <pt x="1316" y="293" on="0"/>
        <pt x="1034" y="-24" on="0"/>
        <pt x="742" y="-24" on="1"/>
        <pt x="170" y="-24" on="0"/>
        <pt x="170" y="607" on="1"/>
        <pt x="170" y="1438" on="1"/>
        <pt x="358" y="1438" on="1"/>
        <pt x="358" y="606" on="1"/>
        <pt x="358" y="496" on="0"/>
        <pt x="396" y="329" on="0"/>
        <pt x="482" y="200" on="0"/>
        <pt x="634" y="133" on="0"/>
        <pt x="742" y="133" on="1"/>
        <pt x="830" y="133" on="0"/>
        <pt x="965" y="178" on="0"/>
        <pt x="1051" y="258" on="0"/>
        <pt x="1106" y="379" on="0"/>
        <pt x="1128" y="518" on="0"/>
        <pt x="1128" y="606" on="1"/>
      </contour>
    </TTGlyph>
    <TTGlyph name="Ucircumflex" xMin="170" yMin="-24" xMax="1316" yMax="1902">
      <contour>
        <pt x="426" y="1648" on="1"/>
        <pt x="743" y="1902" on="1"/>
        <pt x="1056" y="1648" on="1"/>
        <pt x="985" y="1561" on="1"/>
        <pt x="743" y="1702" on="1"/>
        <pt x="497" y="1561" on="1"/>
      </contour>
      <contour>
        <pt x="1128" y="1438" on="1"/>
        <pt x="1316" y="1438" on="1"/>
        <pt x="1316" y="607" on="1"/>
        <pt x="1316" y="293" on="0"/>
        <pt x="1034" y="-24" on="0"/>
        <pt x="742" y="-24" on="1"/>
        <pt x="170" y="-24" on="0"/>
        <pt x="170" y="607" on="1"/>
        <pt x="170" y="1438" on="1"/>
        <pt x="358" y="1438" on="1"/>
        <pt x="358" y="606" on="1"/>
        <pt x="358" y="496" on="0"/>
        <pt x="396" y="329" on="0"/>
        <pt x="482" y="200" on="0"/>
        <pt x="634" y="133" on="0"/>
        <pt x="742" y="133" on="1"/>
        <pt x="830" y="133" on="0"/>
        <pt x="965" y="178" on="0"/>
        <pt x="1051" y="258" on="0"/>
        <pt x="1106" y="379" on="0"/>
        <pt x="1128" y="518" on="0"/>
        <pt x="1128" y="606" on="1"/>
      </contour>
    </TTGlyph>
    <TTGlyph name="Udieresis" xMin="170" yMin="-24" xMax="1316" yMax="1798">
      <contour>
        <pt x="522" y="1798" on="1"/>
        <pt x="546" y="1798" on="0"/>
        <pt x="590" y="1779" on="0"/>
        <pt x="606" y="1763" on="1"/>
        <pt x="622" y="1747" on="0"/>
        <pt x="641" y="1703" on="0"/>
        <pt x="641" y="1679" on="1"/>
        <pt x="641" y="1653" on="0"/>
        <pt x="622" y="1609" on="0"/>
        <pt x="606" y="1593" on="1"/>
        <pt x="590" y="1577" on="0"/>
        <pt x="546" y="1558" on="0"/>
        <pt x="522" y="1558" on="1"/>
        <pt x="496" y="1558" on="0"/>
        <pt x="452" y="1577" on="0"/>
        <pt x="435" y="1593" on="1"/>
        <pt x="399" y="1626" on="0"/>
        <pt x="399" y="1679" on="1"/>
        <pt x="399" y="1703" on="0"/>
        <pt x="418" y="1747" on="0"/>
        <pt x="435" y="1763" on="1"/>
        <pt x="452" y="1779" on="0"/>
        <pt x="496" y="1798" on="0"/>
      </contour>
      <contour>
        <pt x="964" y="1798" on="1"/>
        <pt x="989" y="1798" on="0"/>
        <pt x="1033" y="1779" on="0"/>
        <pt x="1050" y="1763" on="1"/>
        <pt x="1067" y="1747" on="0"/>
        <pt x="1085" y="1703" on="0"/>
        <pt x="1085" y="1679" on="1"/>
        <pt x="1085" y="1626" on="0"/>
        <pt x="1050" y="1593" on="1"/>
        <pt x="1033" y="1577" on="0"/>
        <pt x="989" y="1558" on="0"/>
        <pt x="964" y="1558" on="1"/>
        <pt x="940" y="1558" on="0"/>
        <pt x="897" y="1577" on="0"/>
        <pt x="880" y="1593" on="1"/>
        <pt x="863" y="1609" on="0"/>
        <pt x="843" y="1653" on="0"/>
        <pt x="843" y="1679" on="1"/>
        <pt x="843" y="1703" on="0"/>
        <pt x="863" y="1747" on="0"/>
        <pt x="880" y="1763" on="1"/>
        <pt x="897" y="1779" on="0"/>
        <pt x="940" y="1798" on="0"/>
      </contour>
      <contour>
        <pt x="1316" y="1438" on="1"/>
        <pt x="1316" y="607" on="1"/>
        <pt x="1316" y="296" on="0"/>
        <pt x="1037" y="-24" on="0"/>
        <pt x="742" y="-24" on="1"/>
        <pt x="594" y="-24" on="0"/>
        <pt x="379" y="58" on="0"/>
        <pt x="238" y="218" on="0"/>
        <pt x="170" y="453" on="0"/>
        <pt x="170" y="607" on="1"/>
        <pt x="170" y="1438" on="1"/>
        <pt x="358" y="1438" on="1"/>
        <pt x="358" y="606" on="1"/>
        <pt x="358" y="500" on="0"/>
        <pt x="395" y="326" on="0"/>
        <pt x="484" y="201" on="0"/>
        <pt x="632" y="133" on="0"/>
        <pt x="742" y="133" on="1"/>
        <pt x="855" y="133" on="0"/>
        <pt x="1004" y="202" on="0"/>
        <pt x="1092" y="327" on="0"/>
        <pt x="1128" y="501" on="0"/>
        <pt x="1128" y="606" on="1"/>
        <pt x="1128" y="1438" on="1"/>
      </contour>
    </TTGlyph>
    <TTGlyph name="Ugrave" xMin="170" yMin="-24" xMax="1316" yMax="2057">
      <contour>
        <pt x="807" y="1571" on="1"/>
        <pt x="685" y="1571" on="1"/>
        <pt x="570" y="1773" on="0"/>
        <pt x="542" y="1840" on="1"/>
        <pt x="523" y="1894" on="0"/>
        <pt x="525" y="1991" on="0"/>
        <pt x="596" y="2057" on="0"/>
        <pt x="658" y="2057" on="1"/>
        <pt x="714" y="2057" on="0"/>
        <pt x="779" y="2010" on="1"/>
        <pt x="728" y="1833" on="1"/>
      </contour>
      <contour>
        <pt x="1128" y="1438" on="1"/>
        <pt x="1316" y="1438" on="1"/>
        <pt x="1316" y="607" on="1"/>
        <pt x="1316" y="293" on="0"/>
        <pt x="1034" y="-24" on="0"/>
        <pt x="742" y="-24" on="1"/>
        <pt x="170" y="-24" on="0"/>
        <pt x="170" y="607" on="1"/>
        <pt x="170" y="1438" on="1"/>
        <pt x="358" y="1438" on="1"/>
        <pt x="358" y="606" on="1"/>
        <pt x="358" y="496" on="0"/>
        <pt x="396" y="329" on="0"/>
        <pt x="482" y="200" on="0"/>
        <pt x="634" y="133" on="0"/>
        <pt x="742" y="133" on="1"/>
        <pt x="830" y="133" on="0"/>
        <pt x="965" y="178" on="0"/>
        <pt x="1051" y="258" on="0"/>
        <pt x="1106" y="379" on="0"/>
        <pt x="1128" y="518" on="0"/>
        <pt x="1128" y="606" on="1"/>
      </contour>
    </TTGlyph>
    <TTGlyph name="Uhungarumlaut" xMin="170" yMin="-24" xMax="1316" yMax="2057">
      <contour>
        <pt x="568" y="1833" on="1"/>
        <pt x="517" y="2010" on="1"/>
        <pt x="582" y="2057" on="0"/>
        <pt x="638" y="2057" on="1"/>
        <pt x="700" y="2057" on="0"/>
        <pt x="771" y="1991" on="0"/>
        <pt x="773" y="1894" on="0"/>
        <pt x="754" y="1840" on="1"/>
        <pt x="726" y="1773" on="0"/>
        <pt x="611" y="1571" on="1"/>
        <pt x="489" y="1571" on="1"/>
      </contour>
      <contour>
        <pt x="932" y="1833" on="1"/>
        <pt x="881" y="2010" on="1"/>
        <pt x="946" y="2057" on="0"/>
        <pt x="1002" y="2057" on="1"/>
        <pt x="1064" y="2057" on="0"/>
        <pt x="1135" y="1991" on="0"/>
        <pt x="1137" y="1894" on="0"/>
        <pt x="1118" y="1840" on="1"/>
        <pt x="1090" y="1773" on="0"/>
        <pt x="975" y="1571" on="1"/>
        <pt x="853" y="1571" on="1"/>
      </contour>
      <contour>
        <pt x="1128" y="1438" on="1"/>
        <pt x="1316" y="1438" on="1"/>
        <pt x="1316" y="607" on="1"/>
        <pt x="1316" y="293" on="0"/>
        <pt x="1034" y="-24" on="0"/>
        <pt x="742" y="-24" on="1"/>
        <pt x="170" y="-24" on="0"/>
        <pt x="170" y="607" on="1"/>
        <pt x="170" y="1438" on="1"/>
        <pt x="358" y="1438" on="1"/>
        <pt x="358" y="606" on="1"/>
        <pt x="358" y="496" on="0"/>
        <pt x="396" y="329" on="0"/>
        <pt x="482" y="200" on="0"/>
        <pt x="634" y="133" on="0"/>
        <pt x="742" y="133" on="1"/>
        <pt x="830" y="133" on="0"/>
        <pt x="965" y="178" on="0"/>
        <pt x="1051" y="258" on="0"/>
        <pt x="1106" y="379" on="0"/>
        <pt x="1128" y="518" on="0"/>
        <pt x="1128" y="606" on="1"/>
      </contour>
    </TTGlyph>
    <TTGlyph name="Umacron" xMin="170" yMin="-24" xMax="1316" yMax="1719">
      <contour>
        <pt x="485" y="1719" on="1"/>
        <pt x="998" y="1719" on="1"/>
        <pt x="998" y="1598" on="1"/>
        <pt x="485" y="1598" on="1"/>
      </contour>
      <contour>
        <pt x="1128" y="1438" on="1"/>
        <pt x="1316" y="1438" on="1"/>
        <pt x="1316" y="607" on="1"/>
        <pt x="1316" y="293" on="0"/>
        <pt x="1034" y="-24" on="0"/>
        <pt x="742" y="-24" on="1"/>
        <pt x="170" y="-24" on="0"/>
        <pt x="170" y="607" on="1"/>
        <pt x="170" y="1438" on="1"/>
        <pt x="358" y="1438" on="1"/>
        <pt x="358" y="606" on="1"/>
        <pt x="358" y="496" on="0"/>
        <pt x="396" y="329" on="0"/>
        <pt x="482" y="200" on="0"/>
        <pt x="634" y="133" on="0"/>
        <pt x="742" y="133" on="1"/>
        <pt x="830" y="133" on="0"/>
        <pt x="965" y="178" on="0"/>
        <pt x="1051" y="258" on="0"/>
        <pt x="1106" y="379" on="0"/>
        <pt x="1128" y="518" on="0"/>
        <pt x="1128" y="606" on="1"/>
      </contour>
    </TTGlyph>
    <TTGlyph name="Uogonek" xMin="170" yMin="-408" xMax="1316" yMax="1438">
      <contour>
        <pt x="1128" y="1438" on="1"/>
        <pt x="1316" y="1438" on="1"/>
        <pt x="1316" y="607" on="1"/>
        <pt x="1316" y="309" on="0"/>
        <pt x="1063" y="-6" on="0"/>
        <pt x="801" y="-22" on="1"/>
        <pt x="754" y="-80" on="0"/>
        <pt x="711" y="-161" on="0"/>
        <pt x="711" y="-204" on="1"/>
        <pt x="711" y="-296" on="0"/>
        <pt x="782" y="-296" on="1"/>
        <pt x="819" y="-296" on="0"/>
        <pt x="884" y="-271" on="1"/>
        <pt x="879" y="-361" on="1"/>
        <pt x="808" y="-408" on="0"/>
        <pt x="730" y="-408" on="1"/>
        <pt x="665" y="-408" on="0"/>
        <pt x="583" y="-319" on="0"/>
        <pt x="583" y="-242" on="1"/>
        <pt x="583" y="-179" on="0"/>
        <pt x="633" y="-89" on="0"/>
        <pt x="692" y="-23" on="1"/>
        <pt x="170" y="5" on="0"/>
        <pt x="170" y="607" on="1"/>
        <pt x="170" y="1438" on="1"/>
        <pt x="358" y="1438" on="1"/>
        <pt x="358" y="606" on="1"/>
        <pt x="358" y="496" on="0"/>
        <pt x="396" y="329" on="0"/>
        <pt x="482" y="200" on="0"/>
        <pt x="634" y="133" on="0"/>
        <pt x="742" y="133" on="1"/>
        <pt x="830" y="133" on="0"/>
        <pt x="965" y="178" on="0"/>
        <pt x="1051" y="258" on="0"/>
        <pt x="1106" y="379" on="0"/>
        <pt x="1128" y="518" on="0"/>
        <pt x="1128" y="606" on="1"/>
      </contour>
    </TTGlyph>
    <TTGlyph name="Uring" xMin="170" yMin="-24" xMax="1316" yMax="1922">
      <contour>
        <pt x="737" y="1922" on="1"/>
        <pt x="774" y="1922" on="0"/>
        <pt x="839" y="1895" on="0"/>
        <pt x="887" y="1847" on="0"/>
        <pt x="914" y="1782" on="0"/>
        <pt x="914" y="1745" on="1"/>
        <pt x="914" y="1708" on="0"/>
        <pt x="887" y="1643" on="0"/>
        <pt x="839" y="1595" on="0"/>
        <pt x="774" y="1568" on="0"/>
        <pt x="737" y="1568" on="1"/>
        <pt x="700" y="1568" on="0"/>
        <pt x="635" y="1595" on="0"/>
        <pt x="587" y="1643" on="0"/>
        <pt x="560" y="1708" on="0"/>
        <pt x="560" y="1745" on="1"/>
        <pt x="560" y="1782" on="0"/>
        <pt x="587" y="1847" on="0"/>
        <pt x="635" y="1895" on="0"/>
        <pt x="700" y="1922" on="0"/>
      </contour>
      <contour>
        <pt x="737" y="1828" on="1"/>
        <pt x="702" y="1828" on="0"/>
        <pt x="654" y="1780" on="0"/>
        <pt x="654" y="1745" on="1"/>
        <pt x="654" y="1710" on="0"/>
        <pt x="702" y="1662" on="0"/>
        <pt x="737" y="1662" on="1"/>
        <pt x="772" y="1662" on="0"/>
        <pt x="820" y="1710" on="0"/>
        <pt x="820" y="1745" on="1"/>
        <pt x="820" y="1780" on="0"/>
        <pt x="772" y="1828" on="0"/>
      </contour>
      <contour>
        <pt x="1316" y="1438" on="1"/>
        <pt x="1316" y="607" on="1"/>
        <pt x="1316" y="296" on="0"/>
        <pt x="1037" y="-24" on="0"/>
        <pt x="742" y="-24" on="1"/>
        <pt x="594" y="-24" on="0"/>
        <pt x="379" y="58" on="0"/>
        <pt x="238" y="218" on="0"/>
        <pt x="170" y="453" on="0"/>
        <pt x="170" y="607" on="1"/>
        <pt x="170" y="1438" on="1"/>
        <pt x="358" y="1438" on="1"/>
        <pt x="358" y="606" on="1"/>
        <pt x="358" y="500" on="0"/>
        <pt x="395" y="326" on="0"/>
        <pt x="484" y="201" on="0"/>
        <pt x="632" y="133" on="0"/>
        <pt x="742" y="133" on="1"/>
        <pt x="855" y="133" on="0"/>
        <pt x="1004" y="202" on="0"/>
        <pt x="1092" y="327" on="0"/>
        <pt x="1128" y="501" on="0"/>
        <pt x="1128" y="606" on="1"/>
        <pt x="1128" y="1438" on="1"/>
      </contour>
    </TTGlyph>
    <TTGlyph name="V" xMin="113" yMin="-2" xMax="1355" yMax="1438">
      <contour>
        <pt x="1158" y="1438" on="1"/>
        <pt x="1355" y="1438" on="1"/>
        <pt x="818" y="-2" on="1"/>
        <pt x="651" y="-2" on="1"/>
        <pt x="113" y="1438" on="1"/>
        <pt x="310" y="1438" on="1"/>
        <pt x="735" y="229" on="1"/>
      </contour>
    </TTGlyph>
    <TTGlyph name="W" xMin="73" yMin="0" xMax="1777" yMax="1437">
      <contour>
        <pt x="1777" y="1437" on="1"/>
        <pt x="1604" y="0" on="1"/>
        <pt x="1325" y="0" on="1"/>
        <pt x="925" y="1245" on="1"/>
        <pt x="525" y="0" on="1"/>
        <pt x="246" y="0" on="1"/>
        <pt x="73" y="1437" on="1"/>
        <pt x="256" y="1437" on="1"/>
        <pt x="406" y="227" on="1"/>
        <pt x="416" y="227" on="1"/>
        <pt x="813" y="1437" on="1"/>
        <pt x="1037" y="1437" on="1"/>
        <pt x="1434" y="227" on="1"/>
        <pt x="1444" y="227" on="1"/>
        <pt x="1594" y="1437" on="1"/>
      </contour>
    </TTGlyph>
    <TTGlyph name="Wacute" xMin="73" yMin="0" xMax="1777" yMax="2057">
      <contour>
        <pt x="933" y="1833" on="1"/>
        <pt x="882" y="2010" on="1"/>
        <pt x="947" y="2057" on="0"/>
        <pt x="1003" y="2057" on="1"/>
        <pt x="1065" y="2057" on="0"/>
        <pt x="1136" y="1991" on="0"/>
        <pt x="1138" y="1894" on="0"/>
        <pt x="1119" y="1840" on="1"/>
        <pt x="1091" y="1773" on="0"/>
        <pt x="976" y="1571" on="1"/>
        <pt x="854" y="1571" on="1"/>
      </contour>
      <contour>
        <pt x="1777" y="1437" on="1"/>
        <pt x="1604" y="0" on="1"/>
        <pt x="1325" y="0" on="1"/>
        <pt x="925" y="1245" on="1"/>
        <pt x="525" y="0" on="1"/>
        <pt x="246" y="0" on="1"/>
        <pt x="73" y="1437" on="1"/>
        <pt x="256" y="1437" on="1"/>
        <pt x="406" y="227" on="1"/>
        <pt x="416" y="227" on="1"/>
        <pt x="813" y="1437" on="1"/>
        <pt x="1037" y="1437" on="1"/>
        <pt x="1434" y="227" on="1"/>
        <pt x="1444" y="227" on="1"/>
        <pt x="1594" y="1437" on="1"/>
      </contour>
    </TTGlyph>
    <TTGlyph name="Wcircumflex" xMin="73" yMin="0" xMax="1777" yMax="1902">
      <contour>
        <pt x="607" y="1648" on="1"/>
        <pt x="924" y="1902" on="1"/>
        <pt x="1237" y="1648" on="1"/>
        <pt x="1166" y="1561" on="1"/>
        <pt x="924" y="1702" on="1"/>
        <pt x="678" y="1561" on="1"/>
      </contour>
      <contour>
        <pt x="1777" y="1437" on="1"/>
        <pt x="1604" y="0" on="1"/>
        <pt x="1325" y="0" on="1"/>
        <pt x="925" y="1245" on="1"/>
        <pt x="525" y="0" on="1"/>
        <pt x="246" y="0" on="1"/>
        <pt x="73" y="1437" on="1"/>
        <pt x="256" y="1437" on="1"/>
        <pt x="406" y="227" on="1"/>
        <pt x="416" y="227" on="1"/>
        <pt x="813" y="1437" on="1"/>
        <pt x="1037" y="1437" on="1"/>
        <pt x="1434" y="227" on="1"/>
        <pt x="1444" y="227" on="1"/>
        <pt x="1594" y="1437" on="1"/>
      </contour>
    </TTGlyph>
    <TTGlyph name="Wdieresis" xMin="73" yMin="0" xMax="1777" yMax="1798">
      <contour>
        <pt x="705" y="1798" on="1"/>
        <pt x="729" y="1798" on="0"/>
        <pt x="773" y="1779" on="0"/>
        <pt x="789" y="1763" on="1"/>
        <pt x="805" y="1747" on="0"/>
        <pt x="824" y="1703" on="0"/>
        <pt x="824" y="1679" on="1"/>
        <pt x="824" y="1653" on="0"/>
        <pt x="805" y="1609" on="0"/>
        <pt x="789" y="1593" on="1"/>
        <pt x="773" y="1577" on="0"/>
        <pt x="729" y="1558" on="0"/>
        <pt x="705" y="1558" on="1"/>
        <pt x="679" y="1558" on="0"/>
        <pt x="635" y="1577" on="0"/>
        <pt x="618" y="1593" on="1"/>
        <pt x="582" y="1626" on="0"/>
        <pt x="582" y="1679" on="1"/>
        <pt x="582" y="1703" on="0"/>
        <pt x="601" y="1747" on="0"/>
        <pt x="618" y="1763" on="1"/>
        <pt x="635" y="1779" on="0"/>
        <pt x="679" y="1798" on="0"/>
      </contour>
      <contour>
        <pt x="1147" y="1798" on="1"/>
        <pt x="1172" y="1798" on="0"/>
        <pt x="1216" y="1779" on="0"/>
        <pt x="1233" y="1763" on="1"/>
        <pt x="1250" y="1747" on="0"/>
        <pt x="1268" y="1703" on="0"/>
        <pt x="1268" y="1679" on="1"/>
        <pt x="1268" y="1626" on="0"/>
        <pt x="1233" y="1593" on="1"/>
        <pt x="1216" y="1577" on="0"/>
        <pt x="1172" y="1558" on="0"/>
        <pt x="1147" y="1558" on="1"/>
        <pt x="1123" y="1558" on="0"/>
        <pt x="1080" y="1577" on="0"/>
        <pt x="1063" y="1593" on="1"/>
        <pt x="1046" y="1609" on="0"/>
        <pt x="1026" y="1653" on="0"/>
        <pt x="1026" y="1679" on="1"/>
        <pt x="1026" y="1703" on="0"/>
        <pt x="1046" y="1747" on="0"/>
        <pt x="1063" y="1763" on="1"/>
        <pt x="1080" y="1779" on="0"/>
        <pt x="1123" y="1798" on="0"/>
      </contour>
      <contour>
        <pt x="1604" y="0" on="1"/>
        <pt x="1325" y="0" on="1"/>
        <pt x="925" y="1245" on="1"/>
        <pt x="525" y="0" on="1"/>
        <pt x="246" y="0" on="1"/>
        <pt x="73" y="1437" on="1"/>
        <pt x="256" y="1437" on="1"/>
        <pt x="406" y="227" on="1"/>
        <pt x="416" y="227" on="1"/>
        <pt x="813" y="1437" on="1"/>
        <pt x="1037" y="1437" on="1"/>
        <pt x="1434" y="227" on="1"/>
        <pt x="1444" y="227" on="1"/>
        <pt x="1594" y="1437" on="1"/>
        <pt x="1777" y="1437" on="1"/>
      </contour>
    </TTGlyph>
    <TTGlyph name="Wgrave" xMin="73" yMin="0" xMax="1777" yMax="2057">
      <contour>
        <pt x="1002" y="1571" on="1"/>
        <pt x="880" y="1571" on="1"/>
        <pt x="765" y="1773" on="0"/>
        <pt x="737" y="1840" on="1"/>
        <pt x="718" y="1894" on="0"/>
        <pt x="720" y="1991" on="0"/>
        <pt x="791" y="2057" on="0"/>
        <pt x="853" y="2057" on="1"/>
        <pt x="909" y="2057" on="0"/>
        <pt x="974" y="2010" on="1"/>
        <pt x="923" y="1833" on="1"/>
      </contour>
      <contour>
        <pt x="1777" y="1437" on="1"/>
        <pt x="1604" y="0" on="1"/>
        <pt x="1325" y="0" on="1"/>
        <pt x="925" y="1245" on="1"/>
        <pt x="525" y="0" on="1"/>
        <pt x="246" y="0" on="1"/>
        <pt x="73" y="1437" on="1"/>
        <pt x="256" y="1437" on="1"/>
        <pt x="406" y="227" on="1"/>
        <pt x="416" y="227" on="1"/>
        <pt x="813" y="1437" on="1"/>
        <pt x="1037" y="1437" on="1"/>
        <pt x="1434" y="227" on="1"/>
        <pt x="1444" y="227" on="1"/>
        <pt x="1594" y="1437" on="1"/>
      </contour>
    </TTGlyph>
    <TTGlyph name="X" xMin="110" yMin="-23" xMax="1305" yMax="1463">
      <contour>
        <pt x="118" y="1358" on="1"/>
        <pt x="264" y="1463" on="1"/>
        <pt x="699" y="855" on="1"/>
        <pt x="1086" y="1438" on="1"/>
        <pt x="1305" y="1438" on="1"/>
        <pt x="810" y="712" on="1"/>
        <pt x="1266" y="85" on="1"/>
        <pt x="1115" y="-23" on="1"/>
        <pt x="700" y="561" on="1"/>
        <pt x="327" y="0" on="1"/>
        <pt x="110" y="0" on="1"/>
        <pt x="589" y="704" on="1"/>
      </contour>
    </TTGlyph>
    <TTGlyph name="Y" xMin="65" yMin="0" xMax="1292" yMax="1438">
      <contour>
        <pt x="1078" y="1438" on="1"/>
        <pt x="1292" y="1438" on="1"/>
        <pt x="772" y="648" on="1"/>
        <pt x="772" y="0" on="1"/>
        <pt x="585" y="0" on="1"/>
        <pt x="585" y="648" on="1"/>
        <pt x="65" y="1438" on="1"/>
        <pt x="279" y="1438" on="1"/>
        <pt x="678" y="802" on="1"/>
      </contour>
    </TTGlyph>
    <TTGlyph name="Yacute" xMin="65" yMin="0" xMax="1292" yMax="2057">
      <contour>
        <pt x="688" y="1833" on="1"/>
        <pt x="637" y="2010" on="1"/>
        <pt x="702" y="2057" on="0"/>
        <pt x="758" y="2057" on="1"/>
        <pt x="820" y="2057" on="0"/>
        <pt x="891" y="1991" on="0"/>
        <pt x="893" y="1894" on="0"/>
        <pt x="874" y="1840" on="1"/>
        <pt x="846" y="1773" on="0"/>
        <pt x="731" y="1571" on="1"/>
        <pt x="609" y="1571" on="1"/>
      </contour>
      <contour>
        <pt x="1078" y="1438" on="1"/>
        <pt x="1292" y="1438" on="1"/>
        <pt x="772" y="648" on="1"/>
        <pt x="772" y="0" on="1"/>
        <pt x="585" y="0" on="1"/>
        <pt x="585" y="648" on="1"/>
        <pt x="65" y="1438" on="1"/>
        <pt x="279" y="1438" on="1"/>
        <pt x="678" y="802" on="1"/>
      </contour>
    </TTGlyph>
    <TTGlyph name="Ycircumflex" xMin="65" yMin="0" xMax="1292" yMax="1902">
      <contour>
        <pt x="365" y="1648" on="1"/>
        <pt x="682" y="1902" on="1"/>
        <pt x="995" y="1648" on="1"/>
        <pt x="924" y="1561" on="1"/>
        <pt x="682" y="1702" on="1"/>
        <pt x="436" y="1561" on="1"/>
      </contour>
      <contour>
        <pt x="1078" y="1438" on="1"/>
        <pt x="1292" y="1438" on="1"/>
        <pt x="772" y="648" on="1"/>
        <pt x="772" y="0" on="1"/>
        <pt x="585" y="0" on="1"/>
        <pt x="585" y="648" on="1"/>
        <pt x="65" y="1438" on="1"/>
        <pt x="279" y="1438" on="1"/>
        <pt x="678" y="802" on="1"/>
      </contour>
    </TTGlyph>
    <TTGlyph name="Ydieresis" xMin="65" yMin="0" xMax="1292" yMax="1798">
      <contour>
        <pt x="457" y="1798" on="1"/>
        <pt x="481" y="1798" on="0"/>
        <pt x="525" y="1779" on="0"/>
        <pt x="541" y="1763" on="1"/>
        <pt x="557" y="1747" on="0"/>
        <pt x="576" y="1703" on="0"/>
        <pt x="576" y="1679" on="1"/>
        <pt x="576" y="1653" on="0"/>
        <pt x="557" y="1609" on="0"/>
        <pt x="541" y="1593" on="1"/>
        <pt x="525" y="1577" on="0"/>
        <pt x="481" y="1558" on="0"/>
        <pt x="457" y="1558" on="1"/>
        <pt x="431" y="1558" on="0"/>
        <pt x="387" y="1577" on="0"/>
        <pt x="370" y="1593" on="1"/>
        <pt x="334" y="1626" on="0"/>
        <pt x="334" y="1679" on="1"/>
        <pt x="334" y="1703" on="0"/>
        <pt x="353" y="1747" on="0"/>
        <pt x="370" y="1763" on="1"/>
        <pt x="387" y="1779" on="0"/>
        <pt x="431" y="1798" on="0"/>
      </contour>
      <contour>
        <pt x="899" y="1798" on="1"/>
        <pt x="924" y="1798" on="0"/>
        <pt x="968" y="1779" on="0"/>
        <pt x="985" y="1763" on="1"/>
        <pt x="1002" y="1747" on="0"/>
        <pt x="1020" y="1703" on="0"/>
        <pt x="1020" y="1679" on="1"/>
        <pt x="1020" y="1626" on="0"/>
        <pt x="985" y="1593" on="1"/>
        <pt x="968" y="1577" on="0"/>
        <pt x="924" y="1558" on="0"/>
        <pt x="899" y="1558" on="1"/>
        <pt x="875" y="1558" on="0"/>
        <pt x="832" y="1577" on="0"/>
        <pt x="815" y="1593" on="1"/>
        <pt x="798" y="1609" on="0"/>
        <pt x="778" y="1653" on="0"/>
        <pt x="778" y="1679" on="1"/>
        <pt x="778" y="1703" on="0"/>
        <pt x="798" y="1747" on="0"/>
        <pt x="815" y="1763" on="1"/>
        <pt x="832" y="1779" on="0"/>
        <pt x="875" y="1798" on="0"/>
      </contour>
      <contour>
        <pt x="1292" y="1438" on="1"/>
        <pt x="772" y="648" on="1"/>
        <pt x="772" y="0" on="1"/>
        <pt x="585" y="0" on="1"/>
        <pt x="585" y="648" on="1"/>
        <pt x="65" y="1438" on="1"/>
        <pt x="279" y="1438" on="1"/>
        <pt x="678" y="802" on="1"/>
        <pt x="1078" y="1438" on="1"/>
      </contour>
    </TTGlyph>
    <TTGlyph name="Ygrave" xMin="65" yMin="0" xMax="1292" yMax="2057">
      <contour>
        <pt x="725" y="1571" on="1"/>
        <pt x="603" y="1571" on="1"/>
        <pt x="488" y="1773" on="0"/>
        <pt x="460" y="1840" on="1"/>
        <pt x="441" y="1894" on="0"/>
        <pt x="443" y="1991" on="0"/>
        <pt x="514" y="2057" on="0"/>
        <pt x="576" y="2057" on="1"/>
        <pt x="632" y="2057" on="0"/>
        <pt x="697" y="2010" on="1"/>
        <pt x="646" y="1833" on="1"/>
      </contour>
      <contour>
        <pt x="1078" y="1438" on="1"/>
        <pt x="1292" y="1438" on="1"/>
        <pt x="772" y="648" on="1"/>
        <pt x="772" y="0" on="1"/>
        <pt x="585" y="0" on="1"/>
        <pt x="585" y="648" on="1"/>
        <pt x="65" y="1438" on="1"/>
        <pt x="279" y="1438" on="1"/>
        <pt x="678" y="802" on="1"/>
      </contour>
    </TTGlyph>
    <TTGlyph name="Z" xMin="147" yMin="0" xMax="1087" yMax="1438">
      <contour>
        <pt x="171" y="1438" on="1"/>
        <pt x="1081" y="1438" on="1"/>
        <pt x="1081" y="1304" on="1"/>
        <pt x="380" y="154" on="1"/>
        <pt x="1087" y="154" on="1"/>
        <pt x="1087" y="0" on="1"/>
        <pt x="147" y="0" on="1"/>
        <pt x="147" y="132" on="1"/>
        <pt x="850" y="1284" on="1"/>
        <pt x="171" y="1284" on="1"/>
      </contour>
    </TTGlyph>
    <TTGlyph name="Zacute" xMin="147" yMin="0" xMax="1087" yMax="2057">
      <contour>
        <pt x="618" y="1833" on="1"/>
        <pt x="567" y="2010" on="1"/>
        <pt x="632" y="2057" on="0"/>
        <pt x="688" y="2057" on="1"/>
        <pt x="750" y="2057" on="0"/>
        <pt x="821" y="1991" on="0"/>
        <pt x="823" y="1894" on="0"/>
        <pt x="804" y="1840" on="1"/>
        <pt x="776" y="1773" on="0"/>
        <pt x="661" y="1571" on="1"/>
        <pt x="539" y="1571" on="1"/>
      </contour>
      <contour>
        <pt x="171" y="1438" on="1"/>
        <pt x="1081" y="1438" on="1"/>
        <pt x="1081" y="1304" on="1"/>
        <pt x="380" y="154" on="1"/>
        <pt x="1087" y="154" on="1"/>
        <pt x="1087" y="0" on="1"/>
        <pt x="147" y="0" on="1"/>
        <pt x="147" y="132" on="1"/>
        <pt x="850" y="1284" on="1"/>
        <pt x="171" y="1284" on="1"/>
      </contour>
    </TTGlyph>
    <TTGlyph name="Zcaron" xMin="147" yMin="0" xMax="1087" yMax="1902">
      <contour>
        <pt x="616" y="1761" on="1"/>
        <pt x="858" y="1902" on="1"/>
        <pt x="929" y="1815" on="1"/>
        <pt x="616" y="1561" on="1"/>
        <pt x="299" y="1815" on="1"/>
        <pt x="370" y="1902" on="1"/>
      </contour>
      <contour>
        <pt x="171" y="1438" on="1"/>
        <pt x="1081" y="1438" on="1"/>
        <pt x="1081" y="1304" on="1"/>
        <pt x="380" y="154" on="1"/>
        <pt x="1087" y="154" on="1"/>
        <pt x="1087" y="0" on="1"/>
        <pt x="147" y="0" on="1"/>
        <pt x="147" y="132" on="1"/>
        <pt x="850" y="1284" on="1"/>
        <pt x="171" y="1284" on="1"/>
      </contour>
    </TTGlyph>
    <TTGlyph name="Zdotaccent" xMin="147" yMin="0" xMax="1087" yMax="1798">
      <contour>
        <pt x="617" y="1798" on="1"/>
        <pt x="666" y="1798" on="0"/>
        <pt x="703" y="1763" on="1"/>
        <pt x="738" y="1730" on="0"/>
        <pt x="738" y="1679" on="1"/>
        <pt x="738" y="1626" on="0"/>
        <pt x="703" y="1593" on="1"/>
        <pt x="666" y="1558" on="0"/>
        <pt x="617" y="1558" on="1"/>
        <pt x="570" y="1558" on="0"/>
        <pt x="496" y="1628" on="0"/>
        <pt x="496" y="1679" on="1"/>
        <pt x="496" y="1728" on="0"/>
        <pt x="570" y="1798" on="0"/>
      </contour>
      <contour>
        <pt x="171" y="1438" on="1"/>
        <pt x="1081" y="1438" on="1"/>
        <pt x="1081" y="1304" on="1"/>
        <pt x="380" y="154" on="1"/>
        <pt x="1087" y="154" on="1"/>
        <pt x="1087" y="0" on="1"/>
        <pt x="147" y="0" on="1"/>
        <pt x="147" y="132" on="1"/>
        <pt x="850" y="1284" on="1"/>
        <pt x="171" y="1284" on="1"/>
      </contour>
    </TTGlyph>
    <TTGlyph name="a" xMin="74" yMin="-24" xMax="913" yMax="1063">
      <contour>
        <pt x="229" y="856" on="1"/>
        <pt x="185" y="996" on="1"/>
        <pt x="353" y="1063" on="0"/>
        <pt x="537" y="1063" on="1"/>
        <pt x="698" y="1063" on="0"/>
        <pt x="783" y="1009" on="1"/>
        <pt x="880" y="947" on="0"/>
        <pt x="880" y="798" on="1"/>
        <pt x="880" y="389" on="1"/>
        <pt x="880" y="307" on="0"/>
        <pt x="882" y="221" on="1"/>
        <pt x="883" y="170" on="0"/>
        <pt x="892" y="115" on="1"/>
        <pt x="900" y="63" on="0"/>
        <pt x="913" y="16" on="1"/>
        <pt x="749" y="-20" on="1"/>
        <pt x="726" y="47" on="0"/>
        <pt x="720" y="130" on="1"/>
        <pt x="700" y="132" on="1"/>
        <pt x="576" y="-24" on="0"/>
        <pt x="384" y="-24" on="1"/>
        <pt x="244" y="-24" on="0"/>
        <pt x="74" y="131" on="0"/>
        <pt x="74" y="272" on="1"/>
        <pt x="74" y="377" on="0"/>
        <pt x="167" y="511" on="0"/>
        <pt x="252" y="557" on="1"/>
        <pt x="386" y="630" on="0"/>
        <pt x="627" y="630" on="1"/>
        <pt x="659" y="630" on="0"/>
        <pt x="713" y="628" on="1"/>
        <pt x="713" y="780" on="1"/>
        <pt x="713" y="852" on="0"/>
        <pt x="625" y="916" on="0"/>
        <pt x="531" y="916" on="1"/>
        <pt x="394" y="916" on="0"/>
      </contour>
      <contour>
        <pt x="713" y="292" on="1"/>
        <pt x="713" y="502" on="1"/>
        <pt x="686" y="504" on="0"/>
        <pt x="634" y="504" on="1"/>
        <pt x="546" y="504" on="0"/>
        <pt x="472" y="489" on="1"/>
        <pt x="362" y="467" on="0"/>
        <pt x="241" y="372" on="0"/>
        <pt x="241" y="283" on="1"/>
        <pt x="241" y="123" on="0"/>
        <pt x="415" y="123" on="1"/>
        <pt x="505" y="123" on="0"/>
        <pt x="583" y="171" on="1"/>
        <pt x="647" y="211" on="0"/>
      </contour>
    </TTGlyph>
    <TTGlyph name="aacute" xMin="74" yMin="-24" xMax="913" yMax="1697">
      <contour>
        <pt x="550" y="1473" on="1"/>
        <pt x="499" y="1650" on="1"/>
        <pt x="564" y="1697" on="0"/>
        <pt x="620" y="1697" on="1"/>
        <pt x="682" y="1697" on="0"/>
        <pt x="753" y="1631" on="0"/>
        <pt x="755" y="1534" on="0"/>
        <pt x="736" y="1480" on="1"/>
        <pt x="708" y="1413" on="0"/>
        <pt x="593" y="1211" on="1"/>
        <pt x="471" y="1211" on="1"/>
      </contour>
      <contour>
        <pt x="229" y="856" on="1"/>
        <pt x="185" y="996" on="1"/>
        <pt x="353" y="1063" on="0"/>
        <pt x="537" y="1063" on="1"/>
        <pt x="698" y="1063" on="0"/>
        <pt x="783" y="1009" on="1"/>
        <pt x="880" y="947" on="0"/>
        <pt x="880" y="798" on="1"/>
        <pt x="880" y="389" on="1"/>
        <pt x="880" y="307" on="0"/>
        <pt x="882" y="221" on="1"/>
        <pt x="883" y="170" on="0"/>
        <pt x="892" y="115" on="1"/>
        <pt x="900" y="63" on="0"/>
        <pt x="913" y="16" on="1"/>
        <pt x="749" y="-20" on="1"/>
        <pt x="726" y="47" on="0"/>
        <pt x="720" y="130" on="1"/>
        <pt x="700" y="132" on="1"/>
        <pt x="576" y="-24" on="0"/>
        <pt x="384" y="-24" on="1"/>
        <pt x="244" y="-24" on="0"/>
        <pt x="74" y="131" on="0"/>
        <pt x="74" y="272" on="1"/>
        <pt x="74" y="377" on="0"/>
        <pt x="167" y="511" on="0"/>
        <pt x="252" y="557" on="1"/>
        <pt x="386" y="630" on="0"/>
        <pt x="627" y="630" on="1"/>
        <pt x="659" y="630" on="0"/>
        <pt x="713" y="628" on="1"/>
        <pt x="713" y="780" on="1"/>
        <pt x="713" y="852" on="0"/>
        <pt x="625" y="916" on="0"/>
        <pt x="531" y="916" on="1"/>
        <pt x="394" y="916" on="0"/>
      </contour>
      <contour>
        <pt x="713" y="292" on="1"/>
        <pt x="713" y="502" on="1"/>
        <pt x="686" y="504" on="0"/>
        <pt x="634" y="504" on="1"/>
        <pt x="546" y="504" on="0"/>
        <pt x="472" y="489" on="1"/>
        <pt x="362" y="467" on="0"/>
        <pt x="241" y="372" on="0"/>
        <pt x="241" y="283" on="1"/>
        <pt x="241" y="123" on="0"/>
        <pt x="415" y="123" on="1"/>
        <pt x="505" y="123" on="0"/>
        <pt x="583" y="171" on="1"/>
        <pt x="647" y="211" on="0"/>
      </contour>
    </TTGlyph>
    <TTGlyph name="abreve" xMin="74" yMin="-24" xMax="913" yMax="1517">
      <contour>
        <pt x="711" y="1517" on="1"/>
        <pt x="787" y="1517" on="1"/>
        <pt x="771" y="1435" on="0"/>
        <pt x="736" y="1353" on="0"/>
        <pt x="701" y="1312" on="1"/>
        <pt x="663" y="1267" on="0"/>
        <pt x="559" y="1218" on="0"/>
        <pt x="504" y="1218" on="1"/>
        <pt x="395" y="1218" on="0"/>
        <pt x="248" y="1370" on="0"/>
        <pt x="217" y="1517" on="1"/>
        <pt x="293" y="1517" on="1"/>
        <pt x="324" y="1436" on="0"/>
        <pt x="427" y="1364" on="0"/>
        <pt x="506" y="1364" on="1"/>
        <pt x="581" y="1364" on="0"/>
        <pt x="680" y="1436" on="0"/>
      </contour>
      <contour>
        <pt x="229" y="856" on="1"/>
        <pt x="185" y="996" on="1"/>
        <pt x="353" y="1063" on="0"/>
        <pt x="537" y="1063" on="1"/>
        <pt x="698" y="1063" on="0"/>
        <pt x="783" y="1009" on="1"/>
        <pt x="880" y="947" on="0"/>
        <pt x="880" y="798" on="1"/>
        <pt x="880" y="389" on="1"/>
        <pt x="880" y="307" on="0"/>
        <pt x="882" y="221" on="1"/>
        <pt x="883" y="170" on="0"/>
        <pt x="892" y="115" on="1"/>
        <pt x="900" y="63" on="0"/>
        <pt x="913" y="16" on="1"/>
        <pt x="749" y="-20" on="1"/>
        <pt x="726" y="47" on="0"/>
        <pt x="720" y="130" on="1"/>
        <pt x="700" y="132" on="1"/>
        <pt x="576" y="-24" on="0"/>
        <pt x="384" y="-24" on="1"/>
        <pt x="244" y="-24" on="0"/>
        <pt x="74" y="131" on="0"/>
        <pt x="74" y="272" on="1"/>
        <pt x="74" y="377" on="0"/>
        <pt x="167" y="511" on="0"/>
        <pt x="252" y="557" on="1"/>
        <pt x="386" y="630" on="0"/>
        <pt x="627" y="630" on="1"/>
        <pt x="659" y="630" on="0"/>
        <pt x="713" y="628" on="1"/>
        <pt x="713" y="780" on="1"/>
        <pt x="713" y="852" on="0"/>
        <pt x="625" y="916" on="0"/>
        <pt x="531" y="916" on="1"/>
        <pt x="394" y="916" on="0"/>
      </contour>
      <contour>
        <pt x="713" y="292" on="1"/>
        <pt x="713" y="502" on="1"/>
        <pt x="686" y="504" on="0"/>
        <pt x="634" y="504" on="1"/>
        <pt x="546" y="504" on="0"/>
        <pt x="472" y="489" on="1"/>
        <pt x="362" y="467" on="0"/>
        <pt x="241" y="372" on="0"/>
        <pt x="241" y="283" on="1"/>
        <pt x="241" y="123" on="0"/>
        <pt x="415" y="123" on="1"/>
        <pt x="505" y="123" on="0"/>
        <pt x="583" y="171" on="1"/>
        <pt x="647" y="211" on="0"/>
      </contour>
    </TTGlyph>
    <TTGlyph name="acircumflex" xMin="74" yMin="-24" xMax="913" yMax="1532">
      <contour>
        <pt x="204" y="1278" on="1"/>
        <pt x="521" y="1532" on="1"/>
        <pt x="834" y="1278" on="1"/>
        <pt x="763" y="1191" on="1"/>
        <pt x="521" y="1332" on="1"/>
        <pt x="275" y="1191" on="1"/>
      </contour>
      <contour>
        <pt x="229" y="856" on="1"/>
        <pt x="185" y="996" on="1"/>
        <pt x="353" y="1063" on="0"/>
        <pt x="537" y="1063" on="1"/>
        <pt x="698" y="1063" on="0"/>
        <pt x="783" y="1009" on="1"/>
        <pt x="880" y="947" on="0"/>
        <pt x="880" y="798" on="1"/>
        <pt x="880" y="389" on="1"/>
        <pt x="880" y="307" on="0"/>
        <pt x="882" y="221" on="1"/>
        <pt x="883" y="170" on="0"/>
        <pt x="892" y="115" on="1"/>
        <pt x="900" y="63" on="0"/>
        <pt x="913" y="16" on="1"/>
        <pt x="749" y="-20" on="1"/>
        <pt x="726" y="47" on="0"/>
        <pt x="720" y="130" on="1"/>
        <pt x="700" y="132" on="1"/>
        <pt x="576" y="-24" on="0"/>
        <pt x="384" y="-24" on="1"/>
        <pt x="244" y="-24" on="0"/>
        <pt x="74" y="131" on="0"/>
        <pt x="74" y="272" on="1"/>
        <pt x="74" y="377" on="0"/>
        <pt x="167" y="511" on="0"/>
        <pt x="252" y="557" on="1"/>
        <pt x="386" y="630" on="0"/>
        <pt x="627" y="630" on="1"/>
        <pt x="659" y="630" on="0"/>
        <pt x="713" y="628" on="1"/>
        <pt x="713" y="780" on="1"/>
        <pt x="713" y="852" on="0"/>
        <pt x="625" y="916" on="0"/>
        <pt x="531" y="916" on="1"/>
        <pt x="394" y="916" on="0"/>
      </contour>
      <contour>
        <pt x="713" y="292" on="1"/>
        <pt x="713" y="502" on="1"/>
        <pt x="686" y="504" on="0"/>
        <pt x="634" y="504" on="1"/>
        <pt x="546" y="504" on="0"/>
        <pt x="472" y="489" on="1"/>
        <pt x="362" y="467" on="0"/>
        <pt x="241" y="372" on="0"/>
        <pt x="241" y="283" on="1"/>
        <pt x="241" y="123" on="0"/>
        <pt x="415" y="123" on="1"/>
        <pt x="505" y="123" on="0"/>
        <pt x="583" y="171" on="1"/>
        <pt x="647" y="211" on="0"/>
      </contour>
    </TTGlyph>
    <TTGlyph name="acute" xMin="150" yMin="1181" xMax="433" yMax="1667">
      <contour>
        <pt x="229" y="1443" on="1"/>
        <pt x="178" y="1620" on="1"/>
        <pt x="243" y="1667" on="0"/>
        <pt x="299" y="1667" on="1"/>
        <pt x="361" y="1667" on="0"/>
        <pt x="432" y="1601" on="0"/>
        <pt x="434" y="1504" on="0"/>
        <pt x="415" y="1450" on="1"/>
        <pt x="387" y="1383" on="0"/>
        <pt x="272" y="1181" on="1"/>
        <pt x="150" y="1181" on="1"/>
      </contour>
    </TTGlyph>
    <TTGlyph name="adieresis" xMin="74" yMin="-24" xMax="913" yMax="1428">
      <contour>
        <pt x="283" y="1428" on="1"/>
        <pt x="307" y="1428" on="0"/>
        <pt x="351" y="1409" on="0"/>
        <pt x="367" y="1393" on="1"/>
        <pt x="383" y="1377" on="0"/>
        <pt x="402" y="1333" on="0"/>
        <pt x="402" y="1309" on="1"/>
        <pt x="402" y="1283" on="0"/>
        <pt x="383" y="1239" on="0"/>
        <pt x="367" y="1223" on="1"/>
        <pt x="351" y="1207" on="0"/>
        <pt x="307" y="1188" on="0"/>
        <pt x="283" y="1188" on="1"/>
        <pt x="257" y="1188" on="0"/>
        <pt x="213" y="1207" on="0"/>
        <pt x="196" y="1223" on="1"/>
        <pt x="160" y="1256" on="0"/>
        <pt x="160" y="1309" on="1"/>
        <pt x="160" y="1333" on="0"/>
        <pt x="179" y="1377" on="0"/>
        <pt x="196" y="1393" on="1"/>
        <pt x="213" y="1409" on="0"/>
        <pt x="257" y="1428" on="0"/>
      </contour>
      <contour>
        <pt x="725" y="1428" on="1"/>
        <pt x="750" y="1428" on="0"/>
        <pt x="794" y="1409" on="0"/>
        <pt x="811" y="1393" on="1"/>
        <pt x="828" y="1377" on="0"/>
        <pt x="846" y="1333" on="0"/>
        <pt x="846" y="1309" on="1"/>
        <pt x="846" y="1256" on="0"/>
        <pt x="811" y="1223" on="1"/>
        <pt x="794" y="1207" on="0"/>
        <pt x="750" y="1188" on="0"/>
        <pt x="725" y="1188" on="1"/>
        <pt x="701" y="1188" on="0"/>
        <pt x="658" y="1207" on="0"/>
        <pt x="641" y="1223" on="1"/>
        <pt x="624" y="1239" on="0"/>
        <pt x="604" y="1283" on="0"/>
        <pt x="604" y="1309" on="1"/>
        <pt x="604" y="1333" on="0"/>
        <pt x="624" y="1377" on="0"/>
        <pt x="641" y="1393" on="1"/>
        <pt x="658" y="1409" on="0"/>
        <pt x="701" y="1428" on="0"/>
      </contour>
      <contour>
        <pt x="185" y="996" on="1"/>
        <pt x="266" y="1028" on="0"/>
        <pt x="444" y="1063" on="0"/>
        <pt x="537" y="1063" on="1"/>
        <pt x="612" y="1063" on="0"/>
        <pt x="735" y="1039" on="0"/>
        <pt x="783" y="1009" on="1"/>
        <pt x="831" y="979" on="0"/>
        <pt x="880" y="876" on="0"/>
        <pt x="880" y="798" on="1"/>
        <pt x="880" y="389" on="1"/>
        <pt x="880" y="335" on="0"/>
        <pt x="881" y="253" on="0"/>
        <pt x="882" y="221" on="1"/>
        <pt x="883" y="188" on="0"/>
        <pt x="888" y="138" on="0"/>
        <pt x="892" y="115" on="1"/>
        <pt x="896" y="91" on="0"/>
        <pt x="905" y="46" on="0"/>
        <pt x="913" y="16" on="1"/>
        <pt x="749" y="-20" on="1"/>
        <pt x="737" y="15" on="0"/>
        <pt x="723" y="89" on="0"/>
        <pt x="720" y="130" on="1"/>
        <pt x="700" y="132" on="1"/>
        <pt x="665" y="88" on="0"/>
        <pt x="588" y="29" on="0"/>
        <pt x="507" y="-8" on="0"/>
        <pt x="424" y="-24" on="0"/>
        <pt x="384" y="-24" on="1"/>
        <pt x="316" y="-24" on="0"/>
        <pt x="202" y="14" on="0"/>
        <pt x="120" y="89" on="0"/>
        <pt x="74" y="200" on="0"/>
        <pt x="74" y="272" on="1"/>
        <pt x="74" y="328" on="0"/>
        <pt x="100" y="415" on="0"/>
        <pt x="148" y="484" on="0"/>
        <pt x="213" y="536" on="0"/>
        <pt x="252" y="557" on="1"/>
        <pt x="330" y="599" on="0"/>
        <pt x="524" y="630" on="0"/>
        <pt x="627" y="630" on="1"/>
        <pt x="647" y="630" on="0"/>
        <pt x="693" y="629" on="0"/>
        <pt x="713" y="628" on="1"/>
        <pt x="713" y="780" on="1"/>
        <pt x="713" y="852" on="0"/>
        <pt x="625" y="916" on="0"/>
        <pt x="531" y="916" on="1"/>
        <pt x="446" y="916" on="0"/>
        <pt x="295" y="880" on="0"/>
        <pt x="229" y="856" on="1"/>
      </contour>
      <contour>
        <pt x="713" y="502" on="1"/>
        <pt x="693" y="504" on="0"/>
        <pt x="654" y="504" on="0"/>
        <pt x="634" y="504" on="1"/>
        <pt x="601" y="504" on="0"/>
        <pt x="517" y="498" on="0"/>
        <pt x="472" y="489" on="1"/>
        <pt x="422" y="479" on="0"/>
        <pt x="337" y="448" on="0"/>
        <pt x="276" y="399" on="0"/>
        <pt x="241" y="331" on="0"/>
        <pt x="241" y="283" on="1"/>
        <pt x="241" y="197" on="0"/>
        <pt x="335" y="123" on="0"/>
        <pt x="415" y="123" on="1"/>
        <pt x="463" y="123" on="0"/>
        <pt x="546" y="148" on="0"/>
        <pt x="583" y="171" on="1"/>
        <pt x="619" y="194" on="0"/>
        <pt x="683" y="255" on="0"/>
        <pt x="713" y="292" on="1"/>
      </contour>
    </TTGlyph>
    <TTGlyph name="ae" xMin="74" yMin="-24" xMax="1612" yMax="1063">
      <contour>
        <pt x="1612" y="524" on="1"/>
        <pt x="1612" y="469" on="1"/>
        <pt x="876" y="469" on="1"/>
        <pt x="881" y="121" on="0"/>
        <pt x="1185" y="121" on="1"/>
        <pt x="1266" y="121" on="0"/>
        <pt x="1394" y="155" on="1"/>
        <pt x="1442" y="168" on="0"/>
        <pt x="1506" y="193" on="1"/>
        <pt x="1556" y="58" on="1"/>
        <pt x="1388" y="-9" on="0"/>
        <pt x="1246" y="-20" on="1"/>
        <pt x="1213" y="-24" on="0"/>
        <pt x="1173" y="-24" on="1"/>
        <pt x="943" y="-24" on="0"/>
        <pt x="820" y="119" on="1"/>
        <pt x="798" y="145" on="0"/>
        <pt x="777" y="179" on="1"/>
        <pt x="724" y="111" on="0"/>
        <pt x="618" y="24" on="0"/>
        <pt x="512" y="-13" on="0"/>
        <pt x="436" y="-24" on="0"/>
        <pt x="384" y="-24" on="1"/>
        <pt x="244" y="-24" on="0"/>
        <pt x="74" y="131" on="0"/>
        <pt x="74" y="272" on="1"/>
        <pt x="74" y="377" on="0"/>
        <pt x="167" y="511" on="0"/>
        <pt x="252" y="557" on="1"/>
        <pt x="386" y="630" on="0"/>
        <pt x="627" y="630" on="1"/>
        <pt x="713" y="629" on="1"/>
        <pt x="713" y="780" on="1"/>
        <pt x="713" y="852" on="0"/>
        <pt x="625" y="916" on="0"/>
        <pt x="531" y="916" on="1"/>
        <pt x="394" y="916" on="0"/>
        <pt x="229" y="856" on="1"/>
        <pt x="185" y="996" on="1"/>
        <pt x="353" y="1063" on="0"/>
        <pt x="537" y="1063" on="1"/>
        <pt x="668" y="1063" on="0"/>
        <pt x="798" y="1005" on="0"/>
        <pt x="840" y="923" on="1"/>
        <pt x="893" y="990" on="0"/>
        <pt x="1044" y="1063" on="0"/>
        <pt x="1163" y="1063" on="1"/>
        <pt x="1362" y="1063" on="0"/>
        <pt x="1476" y="949" on="1"/>
        <pt x="1612" y="811" on="0"/>
      </contour>
      <contour>
        <pt x="885" y="607" on="1"/>
        <pt x="1439" y="607" on="1"/>
        <pt x="1431" y="766" on="0"/>
        <pt x="1293" y="918" on="0"/>
        <pt x="1163" y="918" on="1"/>
        <pt x="1034" y="918" on="0"/>
        <pt x="899" y="768" on="0"/>
      </contour>
      <contour>
        <pt x="583" y="171" on="1"/>
        <pt x="659" y="219" on="0"/>
        <pt x="726" y="304" on="1"/>
        <pt x="703" y="390" on="0"/>
        <pt x="703" y="490" on="1"/>
        <pt x="703" y="503" on="1"/>
        <pt x="680" y="504" on="0"/>
        <pt x="634" y="504" on="1"/>
        <pt x="546" y="504" on="0"/>
        <pt x="472" y="489" on="1"/>
        <pt x="362" y="467" on="0"/>
        <pt x="241" y="372" on="0"/>
        <pt x="241" y="283" on="1"/>
        <pt x="241" y="123" on="0"/>
        <pt x="415" y="123" on="1"/>
        <pt x="505" y="123" on="0"/>
      </contour>
    </TTGlyph>
    <TTGlyph name="afii57636" xMin="85" yMin="-8" xMax="1571" yMax="1067">
      <contour>
        <pt x="164" y="559" on="1"/>
        <pt x="164" y="608" on="0"/>
        <pt x="167" y="690" on="0"/>
        <pt x="179" y="767" on="0"/>
        <pt x="200" y="846" on="0"/>
        <pt x="218" y="891" on="1"/>
        <pt x="192" y="894" on="0"/>
        <pt x="131" y="907" on="0"/>
        <pt x="85" y="919" on="1"/>
        <pt x="94" y="956" on="0"/>
        <pt x="113" y="1029" on="0"/>
        <pt x="127" y="1067" on="1"/>
        <pt x="172" y="1058" on="0"/>
        <pt x="231" y="1047" on="0"/>
        <pt x="279" y="1041" on="0"/>
        <pt x="324" y="1039" on="0"/>
        <pt x="354" y="1039" on="1"/>
        <pt x="757" y="1039" on="1"/>
        <pt x="820" y="1039" on="0"/>
        <pt x="943" y="1011" on="0"/>
        <pt x="992" y="972" on="1"/>
        <pt x="1041" y="934" on="0"/>
        <pt x="1101" y="800" on="0"/>
        <pt x="1101" y="692" on="1"/>
        <pt x="1101" y="648" on="0"/>
        <pt x="1097" y="579" on="0"/>
        <pt x="1090" y="516" on="0"/>
        <pt x="1078" y="453" on="0"/>
        <pt x="1069" y="416" on="1"/>
        <pt x="1026" y="418" on="0"/>
        <pt x="944" y="430" on="0"/>
        <pt x="906" y="441" on="1"/>
        <pt x="911" y="473" on="0"/>
        <pt x="919" y="529" on="0"/>
        <pt x="925" y="583" on="0"/>
        <pt x="928" y="637" on="0"/>
        <pt x="928" y="667" on="1"/>
        <pt x="928" y="731" on="0"/>
        <pt x="910" y="815" on="0"/>
        <pt x="864" y="866" on="0"/>
        <pt x="786" y="887" on="0"/>
        <pt x="727" y="887" on="1"/>
        <pt x="388" y="887" on="1"/>
        <pt x="368" y="845" on="0"/>
        <pt x="347" y="762" on="0"/>
        <pt x="338" y="682" on="0"/>
        <pt x="337" y="605" on="0"/>
        <pt x="337" y="568" on="1"/>
        <pt x="337" y="0" on="1"/>
        <pt x="164" y="0" on="1"/>
      </contour>
      <contour>
        <pt x="709" y="152" on="1"/>
        <pt x="727" y="150" on="0"/>
        <pt x="771" y="149" on="0"/>
        <pt x="788" y="149" on="1"/>
        <pt x="933" y="149" on="0"/>
        <pt x="1160" y="241" on="0"/>
        <pt x="1317" y="414" on="0"/>
        <pt x="1400" y="663" on="0"/>
        <pt x="1400" y="821" on="1"/>
        <pt x="1400" y="868" on="0"/>
        <pt x="1393" y="967" on="0"/>
        <pt x="1387" y="1018" on="1"/>
        <pt x="1429" y="1032" on="0"/>
        <pt x="1506" y="1049" on="0"/>
        <pt x="1552" y="1057" on="1"/>
        <pt x="1561" y="996" on="0"/>
        <pt x="1571" y="880" on="0"/>
        <pt x="1571" y="822" on="1"/>
        <pt x="1571" y="619" on="0"/>
        <pt x="1458" y="309" on="0"/>
        <pt x="1248" y="99" on="0"/>
        <pt x="949" y="-8" on="0"/>
        <pt x="763" y="-8" on="1"/>
        <pt x="714" y="-8" on="0"/>
        <pt x="603" y="-3" on="0"/>
        <pt x="550" y="4" on="1"/>
        <pt x="550" y="629" on="1"/>
        <pt x="709" y="629" on="1"/>
      </contour>
    </TTGlyph>
    <TTGlyph name="afii57645" xMin="140" yMin="887" xMax="628" yMax="1039">
      <contour>
        <pt x="140" y="1039" on="1"/>
        <pt x="628" y="1039" on="1"/>
        <pt x="628" y="887" on="1"/>
        <pt x="140" y="887" on="1"/>
      </contour>
    </TTGlyph>
    <TTGlyph name="afii57658" xMin="201" yMin="-20" xMax="469" yMax="887">
      <contour>
        <pt x="335" y="887" on="1"/>
        <pt x="363" y="887" on="0"/>
        <pt x="412" y="866" on="0"/>
        <pt x="430" y="848" on="1"/>
        <pt x="448" y="830" on="0"/>
        <pt x="469" y="781" on="0"/>
        <pt x="469" y="753" on="1"/>
        <pt x="469" y="726" on="0"/>
        <pt x="448" y="677" on="0"/>
        <pt x="430" y="659" on="1"/>
        <pt x="412" y="640" on="0"/>
        <pt x="363" y="619" on="0"/>
        <pt x="335" y="619" on="1"/>
        <pt x="307" y="619" on="0"/>
        <pt x="258" y="640" on="0"/>
        <pt x="240" y="659" on="1"/>
        <pt x="222" y="677" on="0"/>
        <pt x="201" y="726" on="0"/>
        <pt x="201" y="753" on="1"/>
        <pt x="201" y="781" on="0"/>
        <pt x="222" y="830" on="0"/>
        <pt x="240" y="848" on="1"/>
        <pt x="258" y="866" on="0"/>
        <pt x="307" y="887" on="0"/>
      </contour>
      <contour>
        <pt x="335" y="248" on="1"/>
        <pt x="363" y="248" on="0"/>
        <pt x="412" y="227" on="0"/>
        <pt x="430" y="209" on="1"/>
        <pt x="448" y="191" on="0"/>
        <pt x="469" y="142" on="0"/>
        <pt x="469" y="114" on="1"/>
        <pt x="469" y="87" on="0"/>
        <pt x="448" y="38" on="0"/>
        <pt x="430" y="20" on="1"/>
        <pt x="412" y="1" on="0"/>
        <pt x="363" y="-20" on="0"/>
        <pt x="335" y="-20" on="1"/>
        <pt x="307" y="-20" on="0"/>
        <pt x="258" y="1" on="0"/>
        <pt x="240" y="20" on="1"/>
        <pt x="222" y="38" on="0"/>
        <pt x="201" y="87" on="0"/>
        <pt x="201" y="114" on="1"/>
        <pt x="201" y="142" on="0"/>
        <pt x="222" y="191" on="0"/>
        <pt x="240" y="209" on="1"/>
        <pt x="258" y="227" on="0"/>
        <pt x="307" y="248" on="0"/>
      </contour>
    </TTGlyph>
    <TTGlyph name="afii57664" xMin="117" yMin="-40" xMax="1041" yMax="1073">
      <contour>
        <pt x="117" y="-9" on="1"/>
        <pt x="117" y="19" on="0"/>
        <pt x="118" y="91" on="0"/>
        <pt x="119" y="174" on="0"/>
        <pt x="121" y="262" on="0"/>
        <pt x="122" y="306" on="1"/>
        <pt x="124" y="381" on="0"/>
        <pt x="142" y="498" on="0"/>
        <pt x="176" y="594" on="0"/>
        <pt x="227" y="676" on="0"/>
        <pt x="262" y="716" on="1"/>
        <pt x="227" y="766" on="0"/>
        <pt x="178" y="848" on="0"/>
        <pt x="163" y="882" on="1"/>
        <pt x="147" y="917" on="0"/>
        <pt x="125" y="989" on="0"/>
        <pt x="117" y="1020" on="1"/>
        <pt x="153" y="1036" on="0"/>
        <pt x="237" y="1063" on="0"/>
        <pt x="279" y="1073" on="1"/>
        <pt x="283" y="1061" on="0"/>
        <pt x="290" y="1038" on="0"/>
        <pt x="294" y="1026" on="1"/>
        <pt x="304" y="994" on="0"/>
        <pt x="329" y="930" on="0"/>
        <pt x="369" y="854" on="0"/>
        <pt x="430" y="762" on="0"/>
        <pt x="476" y="704" on="1"/>
        <pt x="492" y="683" on="0"/>
        <pt x="523" y="648" on="0"/>
        <pt x="565" y="600" on="0"/>
        <pt x="627" y="529" on="0"/>
        <pt x="676" y="473" on="1"/>
        <pt x="680" y="468" on="1"/>
        <pt x="716" y="494" on="0"/>
        <pt x="762" y="552" on="0"/>
        <pt x="795" y="619" on="0"/>
        <pt x="820" y="696" on="0"/>
        <pt x="833" y="740" on="1"/>
        <pt x="844" y="779" on="0"/>
        <pt x="865" y="858" on="0"/>
        <pt x="875" y="897" on="1"/>
        <pt x="729" y="925" on="1"/>
        <pt x="756" y="1065" on="1"/>
        <pt x="1036" y="1016" on="1"/>
        <pt x="1041" y="887" on="1"/>
        <pt x="1031" y="839" on="0"/>
        <pt x="999" y="725" on="0"/>
        <pt x="985" y="676" on="1"/>
        <pt x="967" y="613" on="0"/>
        <pt x="932" y="521" on="0"/>
        <pt x="888" y="447" on="0"/>
        <pt x="827" y="383" on="0"/>
        <pt x="782" y="349" on="1"/>
        <pt x="1021" y="68" on="1"/>
        <pt x="899" y="-40" on="1"/>
        <pt x="365" y="577" on="1"/>
        <pt x="334" y="539" on="0"/>
        <pt x="305" y="439" on="0"/>
        <pt x="293" y="328" on="0"/>
        <pt x="293" y="209" on="0"/>
        <pt x="292" y="151" on="1"/>
        <pt x="291" y="119" on="0"/>
        <pt x="291" y="44" on="0"/>
        <pt x="290" y="-9" on="1"/>
      </contour>
    </TTGlyph>
    <TTGlyph name="afii57665" xMin="98" yMin="0" xMax="1045" yMax="1075">
      <contour>
        <pt x="444" y="887" on="1"/>
        <pt x="400" y="887" on="0"/>
        <pt x="330" y="889" on="0"/>
        <pt x="265" y="897" on="0"/>
        <pt x="199" y="914" on="0"/>
        <pt x="160" y="929" on="1"/>
        <pt x="173" y="965" on="0"/>
        <pt x="198" y="1037" on="0"/>
        <pt x="211" y="1075" on="1"/>
        <pt x="253" y="1062" on="0"/>
        <pt x="317" y="1048" on="0"/>
        <pt x="378" y="1041" on="0"/>
        <pt x="445" y="1039" on="0"/>
        <pt x="490" y="1039" on="1"/>
        <pt x="519" y="1039" on="1"/>
        <pt x="582" y="1039" on="0"/>
        <pt x="704" y="1011" on="0"/>
        <pt x="753" y="972" on="1"/>
        <pt x="801" y="934" on="0"/>
        <pt x="861" y="800" on="0"/>
        <pt x="861" y="692" on="1"/>
        <pt x="861" y="152" on="1"/>
        <pt x="1045" y="152" on="1"/>
        <pt x="1045" y="0" on="1"/>
        <pt x="98" y="0" on="1"/>
        <pt x="98" y="152" on="1"/>
        <pt x="688" y="152" on="1"/>
        <pt x="688" y="667" on="1"/>
        <pt x="688" y="729" on="0"/>
        <pt x="670" y="814" on="0"/>
        <pt x="625" y="865" on="0"/>
        <pt x="547" y="887" on="0"/>
        <pt x="487" y="887" on="1"/>
      </contour>
    </TTGlyph>
    <TTGlyph name="afii57666" xMin="58" yMin="-27" xMax="759" yMax="1039">
      <contour>
        <pt x="614" y="1039" on="1"/>
        <pt x="614" y="502" on="1"/>
        <pt x="614" y="454" on="0"/>
        <pt x="642" y="367" on="0"/>
        <pt x="659" y="322" on="1"/>
        <pt x="688" y="244" on="0"/>
        <pt x="739" y="85" on="0"/>
        <pt x="759" y="0" on="1"/>
        <pt x="598" y="0" on="1"/>
        <pt x="585" y="52" on="0"/>
        <pt x="550" y="167" on="0"/>
        <pt x="530" y="218" on="1"/>
        <pt x="505" y="282" on="1"/>
        <pt x="473" y="245" on="0"/>
        <pt x="430" y="194" on="0"/>
        <pt x="396" y="157" on="0"/>
        <pt x="367" y="126" on="0"/>
        <pt x="350" y="109" on="1"/>
        <pt x="297" y="55" on="0"/>
        <pt x="173" y="-15" on="0"/>
        <pt x="92" y="-27" on="1"/>
        <pt x="82" y="11" on="0"/>
        <pt x="65" y="88" on="0"/>
        <pt x="58" y="126" on="1"/>
        <pt x="92" y="135" on="0"/>
        <pt x="148" y="153" on="0"/>
        <pt x="198" y="180" on="0"/>
        <pt x="243" y="217" on="0"/>
        <pt x="267" y="244" on="1"/>
        <pt x="447" y="441" on="1"/>
        <pt x="447" y="887" on="1"/>
        <pt x="219" y="887" on="1"/>
        <pt x="219" y="1039" on="1"/>
      </contour>
    </TTGlyph>
    <TTGlyph name="afii57667" xMin="97" yMin="0" xMax="999" yMax="1075">
      <contour>
        <pt x="381" y="887" on="1"/>
        <pt x="337" y="887" on="0"/>
        <pt x="267" y="889" on="0"/>
        <pt x="202" y="897" on="0"/>
        <pt x="136" y="914" on="0"/>
        <pt x="97" y="929" on="1"/>
        <pt x="110" y="965" on="0"/>
        <pt x="135" y="1037" on="0"/>
        <pt x="148" y="1075" on="1"/>
        <pt x="190" y="1062" on="0"/>
        <pt x="254" y="1048" on="0"/>
        <pt x="315" y="1041" on="0"/>
        <pt x="382" y="1039" on="0"/>
        <pt x="427" y="1039" on="1"/>
        <pt x="999" y="1039" on="1"/>
        <pt x="999" y="887" on="1"/>
        <pt x="797" y="887" on="1"/>
        <pt x="797" y="0" on="1"/>
        <pt x="624" y="0" on="1"/>
        <pt x="624" y="887" on="1"/>
      </contour>
    </TTGlyph>
    <TTGlyph name="afii57668" xMin="141" yMin="0" xMax="1008" yMax="1075">
      <contour>
        <pt x="425" y="887" on="1"/>
        <pt x="381" y="887" on="0"/>
        <pt x="311" y="889" on="0"/>
        <pt x="246" y="897" on="0"/>
        <pt x="180" y="914" on="0"/>
        <pt x="141" y="929" on="1"/>
        <pt x="154" y="965" on="0"/>
        <pt x="179" y="1037" on="0"/>
        <pt x="192" y="1075" on="1"/>
        <pt x="234" y="1062" on="0"/>
        <pt x="298" y="1048" on="0"/>
        <pt x="359" y="1041" on="0"/>
        <pt x="426" y="1039" on="0"/>
        <pt x="471" y="1039" on="1"/>
        <pt x="666" y="1039" on="1"/>
        <pt x="729" y="1039" on="0"/>
        <pt x="851" y="1011" on="0"/>
        <pt x="900" y="971" on="1"/>
        <pt x="948" y="933" on="0"/>
        <pt x="1008" y="795" on="0"/>
        <pt x="1008" y="686" on="1"/>
        <pt x="1008" y="0" on="1"/>
        <pt x="835" y="0" on="1"/>
        <pt x="835" y="667" on="1"/>
        <pt x="835" y="730" on="0"/>
        <pt x="818" y="814" on="0"/>
        <pt x="773" y="865" on="0"/>
        <pt x="694" y="887" on="0"/>
        <pt x="633" y="887" on="1"/>
      </contour>
      <contour>
        <pt x="157" y="314" on="1"/>
        <pt x="157" y="359" on="0"/>
        <pt x="158" y="427" on="0"/>
        <pt x="164" y="489" on="0"/>
        <pt x="174" y="552" on="0"/>
        <pt x="183" y="590" on="1"/>
        <pt x="225" y="584" on="0"/>
        <pt x="310" y="571" on="0"/>
        <pt x="352" y="565" on="1"/>
        <pt x="346" y="529" on="0"/>
        <pt x="337" y="472" on="0"/>
        <pt x="332" y="415" on="0"/>
        <pt x="330" y="352" on="0"/>
        <pt x="330" y="310" on="1"/>
        <pt x="330" y="0" on="1"/>
        <pt x="157" y="0" on="1"/>
      </contour>
    </TTGlyph>
    <TTGlyph name="afii57669" xMin="131" yMin="0" xMax="479" yMax="1039">
      <contour>
        <pt x="479" y="1039" on="1"/>
        <pt x="479" y="0" on="1"/>
        <pt x="306" y="0" on="1"/>
        <pt x="306" y="887" on="1"/>
        <pt x="131" y="887" on="1"/>
        <pt x="131" y="1039" on="1"/>
      </contour>
    </TTGlyph>
    <TTGlyph name="afii57670" xMin="93" yMin="0" xMax="751" yMax="1075">
      <contour>
        <pt x="317" y="887" on="1"/>
        <pt x="287" y="888" on="0"/>
        <pt x="233" y="892" on="0"/>
        <pt x="180" y="901" on="0"/>
        <pt x="125" y="917" on="0"/>
        <pt x="93" y="929" on="1"/>
        <pt x="106" y="965" on="0"/>
        <pt x="131" y="1037" on="0"/>
        <pt x="144" y="1075" on="1"/>
        <pt x="186" y="1062" on="0"/>
        <pt x="250" y="1048" on="0"/>
        <pt x="311" y="1041" on="0"/>
        <pt x="378" y="1039" on="0"/>
        <pt x="423" y="1039" on="1"/>
        <pt x="751" y="1039" on="1"/>
        <pt x="751" y="887" on="1"/>
        <pt x="491" y="887" on="1"/>
        <pt x="632" y="0" on="1"/>
        <pt x="455" y="0" on="1"/>
      </contour>
    </TTGlyph>
    <TTGlyph name="afii57671" xMin="97" yMin="0" xMax="1018" yMax="1075">
      <contour>
        <pt x="181" y="557" on="1"/>
        <pt x="181" y="606" on="0"/>
        <pt x="184" y="689" on="0"/>
        <pt x="196" y="767" on="0"/>
        <pt x="218" y="847" on="0"/>
        <pt x="237" y="893" on="1"/>
        <pt x="204" y="897" on="0"/>
        <pt x="137" y="914" on="0"/>
        <pt x="97" y="929" on="1"/>
        <pt x="110" y="965" on="0"/>
        <pt x="135" y="1037" on="0"/>
        <pt x="148" y="1075" on="1"/>
        <pt x="190" y="1062" on="0"/>
        <pt x="254" y="1048" on="0"/>
        <pt x="315" y="1041" on="0"/>
        <pt x="382" y="1039" on="0"/>
        <pt x="427" y="1039" on="1"/>
        <pt x="674" y="1039" on="1"/>
        <pt x="737" y="1039" on="0"/>
        <pt x="860" y="1011" on="0"/>
        <pt x="909" y="972" on="1"/>
        <pt x="958" y="934" on="0"/>
        <pt x="1018" y="800" on="0"/>
        <pt x="1018" y="692" on="1"/>
        <pt x="1018" y="0" on="1"/>
        <pt x="845" y="0" on="1"/>
        <pt x="845" y="667" on="1"/>
        <pt x="845" y="731" on="0"/>
        <pt x="827" y="815" on="0"/>
        <pt x="781" y="866" on="0"/>
        <pt x="703" y="887" on="0"/>
        <pt x="644" y="887" on="1"/>
        <pt x="405" y="887" on="1"/>
        <pt x="385" y="845" on="0"/>
        <pt x="364" y="762" on="0"/>
        <pt x="355" y="682" on="0"/>
        <pt x="354" y="605" on="0"/>
        <pt x="354" y="568" on="1"/>
        <pt x="354" y="0" on="1"/>
        <pt x="181" y="0" on="1"/>
      </contour>
    </TTGlyph>
    <TTGlyph name="afii57672" xMin="125" yMin="-8" xMax="1125" yMax="1060">
      <contour>
        <pt x="184" y="545" on="1"/>
        <pt x="178" y="640" on="0"/>
        <pt x="173" y="769" on="0"/>
        <pt x="164" y="867" on="0"/>
        <pt x="144" y="948" on="0"/>
        <pt x="125" y="994" on="1"/>
        <pt x="161" y="1014" on="0"/>
        <pt x="238" y="1046" on="0"/>
        <pt x="276" y="1060" on="1"/>
        <pt x="295" y="1024" on="0"/>
        <pt x="319" y="957" on="0"/>
        <pt x="333" y="879" on="0"/>
        <pt x="341" y="779" on="0"/>
        <pt x="345" y="710" on="1"/>
        <pt x="376" y="146" on="1"/>
        <pt x="390" y="145" on="0"/>
        <pt x="418" y="144" on="0"/>
        <pt x="432" y="144" on="1"/>
        <pt x="546" y="144" on="0"/>
        <pt x="740" y="214" on="0"/>
        <pt x="883" y="362" on="0"/>
        <pt x="964" y="590" on="0"/>
        <pt x="964" y="749" on="1"/>
        <pt x="964" y="785" on="0"/>
        <pt x="959" y="846" on="0"/>
        <pt x="954" y="868" on="1"/>
        <pt x="906" y="880" on="0"/>
        <pt x="817" y="896" on="0"/>
        <pt x="765" y="901" on="1"/>
        <pt x="753" y="866" on="0"/>
        <pt x="732" y="809" on="0"/>
        <pt x="713" y="753" on="0"/>
        <pt x="694" y="696" on="0"/>
        <pt x="684" y="662" on="1"/>
        <pt x="545" y="708" on="1"/>
        <pt x="569" y="796" on="0"/>
        <pt x="628" y="969" on="0"/>
        <pt x="660" y="1056" on="1"/>
        <pt x="785" y="1048" on="0"/>
        <pt x="1000" y="1007" on="0"/>
        <pt x="1100" y="985" on="1"/>
        <pt x="1114" y="929" on="0"/>
        <pt x="1125" y="809" on="0"/>
        <pt x="1125" y="736" on="1"/>
        <pt x="1125" y="561" on="0"/>
        <pt x="1030" y="296" on="0"/>
        <pt x="945" y="203" on="1"/>
        <pt x="886" y="140" on="0"/>
        <pt x="757" y="58" on="0"/>
        <pt x="618" y="10" on="0"/>
        <pt x="470" y="-8" on="0"/>
        <pt x="394" y="-8" on="1"/>
        <pt x="346" y="-8" on="0"/>
        <pt x="257" y="-3" on="0"/>
        <pt x="217" y="2" on="1"/>
      </contour>
    </TTGlyph>
    <TTGlyph name="afii57673" xMin="113" yMin="439" xMax="515" yMax="1039">
      <contour>
        <pt x="515" y="1039" on="1"/>
        <pt x="515" y="715" on="1"/>
        <pt x="515" y="661" on="0"/>
        <pt x="513" y="589" on="0"/>
        <pt x="510" y="559" on="1"/>
        <pt x="507" y="529" on="0"/>
        <pt x="497" y="473" on="0"/>
        <pt x="489" y="439" on="1"/>
        <pt x="320" y="464" on="1"/>
        <pt x="325" y="494" on="0"/>
        <pt x="333" y="544" on="0"/>
        <pt x="336" y="572" on="1"/>
        <pt x="339" y="600" on="0"/>
        <pt x="342" y="670" on="0"/>
        <pt x="342" y="719" on="1"/>
        <pt x="342" y="887" on="1"/>
        <pt x="113" y="887" on="1"/>
        <pt x="113" y="1039" on="1"/>
      </contour>
    </TTGlyph>
    <TTGlyph name="afii57674" xMin="91" yMin="-315" xMax="829" yMax="1075">
      <contour>
        <pt x="375" y="887" on="1"/>
        <pt x="331" y="887" on="0"/>
        <pt x="261" y="889" on="0"/>
        <pt x="196" y="897" on="0"/>
        <pt x="130" y="914" on="0"/>
        <pt x="91" y="929" on="1"/>
        <pt x="104" y="965" on="0"/>
        <pt x="129" y="1037" on="0"/>
        <pt x="142" y="1075" on="1"/>
        <pt x="184" y="1062" on="0"/>
        <pt x="248" y="1048" on="0"/>
        <pt x="309" y="1041" on="0"/>
        <pt x="376" y="1039" on="0"/>
        <pt x="421" y="1039" on="1"/>
        <pt x="801" y="1039" on="1"/>
        <pt x="810" y="1009" on="0"/>
        <pt x="821" y="964" on="0"/>
        <pt x="824" y="947" on="1"/>
        <pt x="827" y="929" on="0"/>
        <pt x="829" y="899" on="0"/>
        <pt x="829" y="883" on="1"/>
        <pt x="829" y="-315" on="1"/>
        <pt x="656" y="-315" on="1"/>
        <pt x="656" y="887" on="1"/>
      </contour>
    </TTGlyph>
    <TTGlyph name="afii57675" xMin="98" yMin="0" xMax="889" yMax="1075">
      <contour>
        <pt x="432" y="887" on="1"/>
        <pt x="388" y="887" on="0"/>
        <pt x="318" y="889" on="0"/>
        <pt x="253" y="897" on="0"/>
        <pt x="187" y="914" on="0"/>
        <pt x="148" y="929" on="1"/>
        <pt x="161" y="965" on="0"/>
        <pt x="186" y="1037" on="0"/>
        <pt x="199" y="1075" on="1"/>
        <pt x="241" y="1062" on="0"/>
        <pt x="305" y="1048" on="0"/>
        <pt x="366" y="1041" on="0"/>
        <pt x="433" y="1039" on="0"/>
        <pt x="478" y="1039" on="1"/>
        <pt x="538" y="1039" on="1"/>
        <pt x="599" y="1039" on="0"/>
        <pt x="718" y="1008" on="0"/>
        <pt x="766" y="968" on="1"/>
        <pt x="814" y="928" on="0"/>
        <pt x="877" y="792" on="0"/>
        <pt x="882" y="686" on="1"/>
        <pt x="885" y="630" on="0"/>
        <pt x="887" y="519" on="0"/>
        <pt x="889" y="401" on="0"/>
        <pt x="889" y="271" on="0"/>
        <pt x="889" y="198" on="1"/>
        <pt x="889" y="174" on="0"/>
        <pt x="887" y="135" on="0"/>
        <pt x="884" y="113" on="1"/>
        <pt x="881" y="91" on="0"/>
        <pt x="870" y="38" on="0"/>
        <pt x="861" y="0" on="1"/>
        <pt x="98" y="0" on="1"/>
        <pt x="98" y="152" on="1"/>
        <pt x="719" y="152" on="1"/>
        <pt x="719" y="275" on="0"/>
        <pt x="715" y="538" on="0"/>
        <pt x="710" y="667" on="1"/>
        <pt x="708" y="730" on="0"/>
        <pt x="689" y="814" on="0"/>
        <pt x="645" y="865" on="0"/>
        <pt x="568" y="887" on="0"/>
        <pt x="507" y="887" on="1"/>
      </contour>
    </TTGlyph>
    <TTGlyph name="afii57676" xMin="120" yMin="-40" xMax="895" yMax="1323">
      <contour>
        <pt x="293" y="1323" on="1"/>
        <pt x="293" y="1039" on="1"/>
        <pt x="870" y="1039" on="1"/>
        <pt x="879" y="1006" on="0"/>
        <pt x="889" y="962" on="0"/>
        <pt x="892" y="945" on="1"/>
        <pt x="894" y="927" on="0"/>
        <pt x="895" y="896" on="0"/>
        <pt x="895" y="878" on="1"/>
        <pt x="895" y="662" on="1"/>
        <pt x="895" y="544" on="0"/>
        <pt x="800" y="334" on="0"/>
        <pt x="706" y="229" on="1"/>
        <pt x="461" y="-40" on="1"/>
        <pt x="339" y="69" on="1"/>
        <pt x="568" y="325" on="1"/>
        <pt x="601" y="363" on="0"/>
        <pt x="658" y="435" on="0"/>
        <pt x="699" y="513" on="0"/>
        <pt x="722" y="602" on="0"/>
        <pt x="722" y="656" on="1"/>
        <pt x="722" y="887" on="1"/>
        <pt x="120" y="887" on="1"/>
        <pt x="120" y="1323" on="1"/>
      </contour>
    </TTGlyph>
    <TTGlyph name="afii57677" xMin="79" yMin="0" xMax="1023" yMax="1075">
      <contour>
        <pt x="163" y="557" on="1"/>
        <pt x="163" y="606" on="0"/>
        <pt x="166" y="689" on="0"/>
        <pt x="178" y="767" on="0"/>
        <pt x="200" y="847" on="0"/>
        <pt x="219" y="893" on="1"/>
        <pt x="186" y="897" on="0"/>
        <pt x="119" y="914" on="0"/>
        <pt x="79" y="929" on="1"/>
        <pt x="92" y="965" on="0"/>
        <pt x="117" y="1037" on="0"/>
        <pt x="130" y="1075" on="1"/>
        <pt x="172" y="1062" on="0"/>
        <pt x="236" y="1047" on="0"/>
        <pt x="297" y="1040" on="0"/>
        <pt x="364" y="1039" on="0"/>
        <pt x="409" y="1039" on="1"/>
        <pt x="679" y="1039" on="1"/>
        <pt x="742" y="1039" on="0"/>
        <pt x="865" y="1011" on="0"/>
        <pt x="914" y="972" on="1"/>
        <pt x="963" y="934" on="0"/>
        <pt x="1023" y="800" on="0"/>
        <pt x="1023" y="692" on="1"/>
        <pt x="1023" y="0" on="1"/>
        <pt x="163" y="0" on="1"/>
      </contour>
      <contour>
        <pt x="850" y="667" on="1"/>
        <pt x="850" y="731" on="0"/>
        <pt x="832" y="815" on="0"/>
        <pt x="786" y="866" on="0"/>
        <pt x="708" y="887" on="0"/>
        <pt x="649" y="887" on="1"/>
        <pt x="387" y="887" on="1"/>
        <pt x="367" y="845" on="0"/>
        <pt x="346" y="762" on="0"/>
        <pt x="337" y="682" on="0"/>
        <pt x="336" y="605" on="0"/>
        <pt x="336" y="568" on="1"/>
        <pt x="336" y="152" on="1"/>
        <pt x="850" y="152" on="1"/>
      </contour>
    </TTGlyph>
    <TTGlyph name="afii57678" xMin="105" yMin="-9" xMax="1070" yMax="1082">
      <contour>
        <pt x="105" y="-9" on="1"/>
        <pt x="121" y="90" on="0"/>
        <pt x="146" y="237" on="0"/>
        <pt x="166" y="351" on="0"/>
        <pt x="181" y="442" on="0"/>
        <pt x="196" y="529" on="0"/>
        <pt x="210" y="621" on="0"/>
        <pt x="219" y="679" on="1"/>
        <pt x="224" y="729" on="0"/>
        <pt x="217" y="798" on="0"/>
        <pt x="190" y="863" on="0"/>
        <pt x="142" y="936" on="0"/>
        <pt x="107" y="991" on="1"/>
        <pt x="127" y="1003" on="0"/>
        <pt x="159" y="1023" on="0"/>
        <pt x="193" y="1043" on="0"/>
        <pt x="232" y="1066" on="0"/>
        <pt x="260" y="1082" on="1"/>
        <pt x="283" y="1050" on="0"/>
        <pt x="316" y="1002" on="0"/>
        <pt x="342" y="961" on="0"/>
        <pt x="362" y="921" on="0"/>
        <pt x="372" y="899" on="1"/>
        <pt x="414" y="938" on="0"/>
        <pt x="491" y="999" on="0"/>
        <pt x="571" y="1040" on="0"/>
        <pt x="661" y="1062" on="0"/>
        <pt x="715" y="1062" on="1"/>
        <pt x="847" y="1062" on="0"/>
        <pt x="1023" y="925" on="0"/>
        <pt x="1052" y="783" on="1"/>
        <pt x="1060" y="743" on="0"/>
        <pt x="1067" y="624" on="0"/>
        <pt x="1070" y="497" on="0"/>
        <pt x="1069" y="376" on="0"/>
        <pt x="1069" y="333" on="1"/>
        <pt x="1068" y="264" on="0"/>
        <pt x="1064" y="138" on="0"/>
        <pt x="1061" y="96" on="1"/>
        <pt x="1059" y="74" on="0"/>
        <pt x="1055" y="26" on="0"/>
        <pt x="1051" y="0" on="1"/>
        <pt x="558" y="0" on="1"/>
        <pt x="558" y="152" on="1"/>
        <pt x="893" y="152" on="1"/>
        <pt x="894" y="169" on="0"/>
        <pt x="897" y="209" on="0"/>
        <pt x="898" y="276" on="0"/>
        <pt x="899" y="383" on="0"/>
        <pt x="899" y="467" on="1"/>
        <pt x="899" y="505" on="0"/>
        <pt x="897" y="584" on="0"/>
        <pt x="893" y="657" on="0"/>
        <pt x="886" y="721" on="0"/>
        <pt x="881" y="744" on="1"/>
        <pt x="872" y="781" on="0"/>
        <pt x="844" y="842" on="0"/>
        <pt x="800" y="884" on="0"/>
        <pt x="740" y="907" on="0"/>
        <pt x="699" y="907" on="1"/>
        <pt x="655" y="907" on="0"/>
        <pt x="574" y="879" on="0"/>
        <pt x="500" y="832" on="0"/>
        <pt x="432" y="770" on="0"/>
        <pt x="401" y="737" on="1"/>
        <pt x="383" y="626" on="0"/>
        <pt x="356" y="456" on="0"/>
        <pt x="334" y="321" on="0"/>
        <pt x="317" y="216" on="0"/>
        <pt x="301" y="124" on="0"/>
        <pt x="287" y="38" on="0"/>
        <pt x="279" y="-9" on="1"/>
      </contour>
    </TTGlyph>
    <TTGlyph name="afii57679" xMin="109" yMin="-315" xMax="487" yMax="1039">
      <contour>
        <pt x="487" y="1039" on="1"/>
        <pt x="487" y="-315" on="1"/>
        <pt x="314" y="-315" on="1"/>
        <pt x="314" y="887" on="1"/>
        <pt x="109" y="887" on="1"/>
        <pt x="109" y="1039" on="1"/>
      </contour>
    </TTGlyph>
    <TTGlyph name="afii57680" xMin="71" yMin="0" xMax="675" yMax="1039">
      <contour>
        <pt x="583" y="1039" on="1"/>
        <pt x="587" y="1005" on="1"/>
        <pt x="590" y="971" on="0"/>
        <pt x="603" y="854" on="0"/>
        <pt x="619" y="697" on="0"/>
        <pt x="638" y="515" on="0"/>
        <pt x="658" y="318" on="0"/>
        <pt x="667" y="221" on="1"/>
        <pt x="671" y="177" on="0"/>
        <pt x="675" y="121" on="0"/>
        <pt x="675" y="76" on="0"/>
        <pt x="671" y="32" on="0"/>
        <pt x="667" y="0" on="1"/>
        <pt x="71" y="0" on="1"/>
        <pt x="71" y="152" on="1"/>
        <pt x="504" y="152" on="1"/>
        <pt x="427" y="887" on="1"/>
        <pt x="183" y="887" on="1"/>
        <pt x="183" y="1039" on="1"/>
      </contour>
    </TTGlyph>
</ttFont>
